<?xml version="1.0" encoding="utf-8"?>
<!-- Generator: Adobe Illustrator 24.3.0, SVG Export Plug-In . SVG Version: 6.00 Build 0)  -->
<svg version="1.1" id="Capa_1" xmlns="http://www.w3.org/2000/svg" xmlns:xlink="http://www.w3.org/1999/xlink" x="0px" y="0px"
	 width="1024px" height="512px" viewBox="0 0 1024 512" style="enable-background:new 0 0 1024 512;" xml:space="preserve">
<style type="text/css">
	.st0{fill:#F7F7F7;}
	.st1{fill:#30A3F9;}
	.st2{fill:#FFFFFF;}
	.st3{fill:none;}
	.st4{font-family:'HelveticaNeueLTStd-Bd';}
	.st5{font-size:18px;}
</style>
<rect x="0" class="st0" width="1023.5" height="512"/>
<g>
	<path class="st1" d="M976.5,80.1c0.1,0.1,0.3,0.1,0.4,0.2c4.1,1.1,6.1,5.1,4.6,9.1c-0.1,0.1-0.1,0.3-0.2,0.5
		c0.2,0.1,0.4,0.2,0.6,0.2c2.9,1,4.8,3.6,4.8,6.7c0,3.1,0,6.2,0,9.3c0,2.4-1.3,3.7-3.8,3.8c-0.2,0-0.5,0-0.9,0c0,0.4,0,0.7,0,1.1
		c0,4,0,7.9,0,11.9c0,2.4-1,3.4-3.4,3.4c-2.3,0-4.5,0-6.8,0c-2.4,0-3.4-1.1-3.4-3.4c0-3.9,0-7.9,0-11.8c0-0.3,0-0.7,0-1.2
		c-0.4,0-0.8,0-1.1,0c-2.1-0.1-3.5-1.4-3.5-3.5c0-2.9,0.1-5.8,0-8.7c-0.2-3.7,1.7-6.6,5.4-7.8c-0.2-0.5-0.4-1-0.5-1.6
		c-0.8-3.6,1.3-7,4.8-8c0.2-0.1,0.4-0.1,0.6-0.2C975,80.1,975.8,80.1,976.5,80.1z M982.2,107c0.8-0.2,1.8,0.4,1.8-0.9
		c0-3.3,0.1-6.5,0-9.8c-0.1-2.9-3.2-4.7-5.8-3.5c-1.9,0.9-3.8,0.8-5.7-0.1c-0.4-0.2-0.8-0.3-1.2-0.3c-2.6,0-4.5,1.8-4.5,4.4
		c0,2.9,0,5.7,0,8.6c0,1.5,0.2,1.7,1.8,1.4c0-2.4,0-4.8,0-7.3c0-1.5,0.5-2.2,1.4-2.2c1,0,1.4,0.7,1.4,2.1c0,7.5,0,15,0,22.5
		c0,0.4,0,0.8,0.1,1.2c0.9,0,1.7,0,2.5,0c0-0.4,0-0.8,0-1.1c0-3.5,0-7,0-10.5c0-0.3,0-0.7,0.1-1c0.1-0.7,0.6-1.1,1.4-1.1
		c0.7,0,1.2,0.4,1.3,1.1c0.1,0.3,0.1,0.7,0.1,1c0,3.5,0,7,0,10.6c0,0.3,0,0.7,0,1c0.9,0,1.7,0,2.6,0c0-0.4,0-0.8,0-1.2
		c0-7.5,0-14.9,0-22.4c0-0.4,0-0.8,0.1-1.1c0.1-0.7,0.6-1.1,1.4-1.1c0.7,0,1.2,0.5,1.3,1.2c0.1,0.4,0,0.8,0,1.2
		C982.2,102.2,982.2,104.6,982.2,107z M971.5,86.8c0,2.1,1.7,3.9,3.8,3.9c2.1,0,4-1.8,4-3.9c0-2.1-1.7-3.9-3.9-3.9
		C973.3,82.9,971.5,84.6,971.5,86.8z"/>
	<path class="st2" d="M982.2,107c0-2.5,0-4.8,0-7.1c0-0.4,0-0.8,0-1.2c-0.1-0.8-0.6-1.2-1.3-1.2c-0.7,0-1.2,0.4-1.4,1.1
		c-0.1,0.4-0.1,0.7-0.1,1.1c0,7.5,0,14.9,0,22.4c0,0.4,0,0.7,0,1.2c-0.9,0-1.7,0-2.6,0c0-0.4,0-0.7,0-1c0-3.5,0-7,0-10.6
		c0-0.3,0-0.7-0.1-1c-0.1-0.7-0.6-1.1-1.3-1.1c-0.8,0-1.2,0.4-1.4,1.1c-0.1,0.3-0.1,0.7-0.1,1c0,3.5,0,7,0,10.5c0,0.3,0,0.7,0,1.1
		c-0.9,0-1.6,0-2.5,0c0-0.4-0.1-0.8-0.1-1.2c0-7.5,0-15,0-22.5c0-1.5-0.4-2.1-1.4-2.1c-1,0-1.4,0.7-1.4,2.2c0,2.4,0,4.8,0,7.3
		c-1.7,0.3-1.8,0.2-1.8-1.4c0-2.9,0-5.7,0-8.6c0-2.7,1.8-4.5,4.5-4.4c0.4,0,0.8,0.2,1.2,0.3c1.9,0.9,3.8,0.9,5.7,0.1
		c2.6-1.2,5.7,0.6,5.8,3.5c0.1,3.3,0.1,6.5,0,9.8C984,107.4,983,106.9,982.2,107z"/>
	<path class="st2" d="M971.5,86.8c0-2.1,1.8-3.9,4-3.9c2.1,0,3.9,1.8,3.9,3.9c0,2.1-1.8,3.9-4,3.9C973.2,90.6,971.5,88.9,971.5,86.8
		z"/>
</g>
<path d="M752.1,367.4"/>
<path d="M778,90.4"/>
<g>
	<path d="M700.5,354.6c0.1,0.1,0.3,0.1,0.4,0.2c4.1,1.1,6.1,5.1,4.6,9.1c-0.1,0.1-0.1,0.3-0.2,0.5c0.2,0.1,0.4,0.2,0.6,0.2
		c2.9,1,4.8,3.6,4.8,6.7c0,3.1,0,6.2,0,9.3c0,2.4-1.3,3.7-3.8,3.8c-0.2,0-0.5,0-0.9,0c0,0.4,0,0.7,0,1.1c0,4,0,7.9,0,11.9
		c0,2.4-1,3.4-3.4,3.4c-2.3,0-4.5,0-6.8,0c-2.4,0-3.4-1.1-3.4-3.4c0-3.9,0-7.9,0-11.8c0-0.3,0-0.7,0-1.2c-0.4,0-0.8,0-1.1,0
		c-2.1-0.1-3.5-1.4-3.5-3.5c0-2.9,0.1-5.8,0-8.7c-0.2-3.7,1.7-6.6,5.4-7.8c-0.2-0.5-0.4-1-0.5-1.6c-0.8-3.6,1.3-7,4.8-8
		c0.2-0.1,0.4-0.1,0.6-0.2C699,354.6,699.8,354.6,700.5,354.6z M706.2,381.5c0.8-0.2,1.8,0.4,1.8-0.9c0-3.3,0.1-6.5,0-9.8
		c-0.1-2.9-3.2-4.7-5.8-3.5c-1.9,0.9-3.8,0.8-5.7-0.1c-0.4-0.2-0.8-0.3-1.2-0.3c-2.6,0-4.5,1.8-4.5,4.4c0,2.9,0,5.7,0,8.6
		c0,1.5,0.2,1.7,1.8,1.4c0-2.4,0-4.8,0-7.3c0-1.5,0.5-2.2,1.4-2.2c1,0,1.4,0.7,1.4,2.1c0,7.5,0,15,0,22.5c0,0.4,0,0.8,0.1,1.2
		c0.9,0,1.7,0,2.5,0c0-0.4,0-0.8,0-1.1c0-3.5,0-7,0-10.5c0-0.3,0-0.7,0.1-1c0.1-0.7,0.6-1.1,1.4-1.1c0.7,0,1.2,0.4,1.3,1.1
		c0.1,0.3,0.1,0.7,0.1,1c0,3.5,0,7,0,10.6c0,0.3,0,0.7,0,1c0.9,0,1.7,0,2.6,0c0-0.4,0-0.8,0-1.2c0-7.5,0-14.9,0-22.4
		c0-0.4,0-0.8,0.1-1.1c0.1-0.7,0.6-1.1,1.4-1.1c0.7,0,1.2,0.5,1.3,1.2c0.1,0.4,0,0.8,0,1.2C706.2,376.7,706.2,379.1,706.2,381.5z
		 M695.5,361.3c0,2.1,1.7,3.9,3.8,3.9c2.1,0,4-1.8,4-3.9c0-2.1-1.7-3.9-3.9-3.9C697.3,357.4,695.5,359.1,695.5,361.3z"/>
	<path class="st2" d="M706.2,381.5c0-2.5,0-4.8,0-7.1c0-0.4,0-0.8,0-1.2c-0.1-0.8-0.6-1.2-1.3-1.2c-0.7,0-1.2,0.4-1.4,1.1
		c-0.1,0.4-0.1,0.7-0.1,1.1c0,7.5,0,14.9,0,22.4c0,0.4,0,0.7,0,1.2c-0.9,0-1.7,0-2.6,0c0-0.4,0-0.7,0-1c0-3.5,0-7,0-10.6
		c0-0.3,0-0.7-0.1-1c-0.1-0.7-0.6-1.1-1.3-1.1c-0.8,0-1.2,0.4-1.4,1.1c-0.1,0.3-0.1,0.7-0.1,1c0,3.5,0,7,0,10.5c0,0.3,0,0.7,0,1.1
		c-0.9,0-1.6,0-2.5,0c0-0.4-0.1-0.8-0.1-1.2c0-7.5,0-15,0-22.5c0-1.5-0.4-2.1-1.4-2.1c-1,0-1.4,0.7-1.4,2.2c0,2.4,0,4.8,0,7.3
		c-1.7,0.3-1.8,0.2-1.8-1.4c0-2.9,0-5.7,0-8.6c0-2.7,1.8-4.5,4.5-4.4c0.4,0,0.8,0.2,1.2,0.3c1.9,0.9,3.8,0.9,5.7,0.1
		c2.6-1.2,5.7,0.6,5.8,3.5c0.1,3.3,0.1,6.5,0,9.8C708,381.9,707,381.4,706.2,381.5z"/>
	<path class="st2" d="M695.5,361.3c0-2.1,1.8-3.9,4-3.9c2.1,0,3.9,1.8,3.9,3.9c0,2.1-1.8,3.9-4,3.9
		C697.2,365.1,695.5,363.4,695.5,361.3z"/>
</g>
<g>
	<path d="M729.1,354.6c0.1,0.1,0.3,0.1,0.4,0.2c4.1,1.1,6.1,5.1,4.6,9.1c-0.1,0.1-0.1,0.3-0.2,0.5c0.2,0.1,0.4,0.2,0.6,0.2
		c2.9,1,4.8,3.6,4.8,6.7c0,3.1,0,6.2,0,9.3c0,2.4-1.3,3.7-3.8,3.8c-0.2,0-0.5,0-0.9,0c0,0.4,0,0.7,0,1.1c0,4,0,7.9,0,11.9
		c0,2.4-1,3.4-3.4,3.4c-2.3,0-4.5,0-6.8,0c-2.4,0-3.4-1.1-3.4-3.4c0-3.9,0-7.9,0-11.8c0-0.3,0-0.7,0-1.2c-0.4,0-0.8,0-1.1,0
		c-2.1-0.1-3.5-1.4-3.5-3.5c0-2.9,0.1-5.8,0-8.7c-0.2-3.7,1.7-6.6,5.4-7.8c-0.2-0.5-0.4-1-0.5-1.6c-0.8-3.6,1.3-7,4.8-8
		c0.2-0.1,0.4-0.1,0.6-0.2C727.6,354.6,728.4,354.6,729.1,354.6z M734.8,381.6c0.8-0.2,1.8,0.4,1.8-0.9c0-3.3,0.1-6.5,0-9.8
		c-0.1-2.9-3.2-4.7-5.8-3.5c-1.9,0.9-3.8,0.8-5.7-0.1c-0.4-0.2-0.8-0.3-1.2-0.3c-2.6,0-4.5,1.8-4.5,4.4c0,2.9,0,5.7,0,8.6
		c0,1.5,0.2,1.7,1.8,1.4c0-2.4,0-4.8,0-7.3c0-1.5,0.5-2.2,1.4-2.2c1,0,1.4,0.7,1.4,2.1c0,7.5,0,15,0,22.5c0,0.4,0,0.8,0.1,1.2
		c0.9,0,1.7,0,2.5,0c0-0.4,0-0.8,0-1.1c0-3.5,0-7,0-10.5c0-0.3,0-0.7,0.1-1c0.1-0.7,0.6-1.1,1.4-1.1c0.7,0,1.2,0.4,1.3,1.1
		c0.1,0.3,0.1,0.7,0.1,1c0,3.5,0,7,0,10.6c0,0.3,0,0.7,0,1c0.9,0,1.7,0,2.6,0c0-0.4,0-0.8,0-1.2c0-7.5,0-14.9,0-22.4
		c0-0.4,0-0.8,0.1-1.1c0.1-0.7,0.6-1.1,1.4-1.1c0.7,0,1.2,0.5,1.3,1.2c0.1,0.4,0,0.8,0,1.2C734.8,376.8,734.8,379.1,734.8,381.6z
		 M724.1,361.3c0,2.1,1.7,3.9,3.8,3.9c2.1,0,4-1.8,4-3.9c0-2.1-1.7-3.9-3.9-3.9C725.9,357.4,724.1,359.2,724.1,361.3z"/>
	<path class="st2" d="M734.8,381.6c0-2.5,0-4.8,0-7.1c0-0.4,0-0.8,0-1.2c-0.1-0.8-0.6-1.2-1.3-1.2c-0.7,0-1.2,0.4-1.4,1.1
		c-0.1,0.4-0.1,0.7-0.1,1.1c0,7.5,0,14.9,0,22.4c0,0.4,0,0.7,0,1.2c-0.9,0-1.7,0-2.6,0c0-0.4,0-0.7,0-1c0-3.5,0-7,0-10.6
		c0-0.3,0-0.7-0.1-1c-0.1-0.7-0.6-1.1-1.3-1.1c-0.8,0-1.2,0.4-1.4,1.1c-0.1,0.3-0.1,0.7-0.1,1c0,3.5,0,7,0,10.5c0,0.3,0,0.7,0,1.1
		c-0.9,0-1.6,0-2.5,0c0-0.4-0.1-0.8-0.1-1.2c0-7.5,0-15,0-22.5c0-1.5-0.4-2.1-1.4-2.1c-1,0-1.4,0.7-1.4,2.2c0,2.4,0,4.8,0,7.3
		c-1.7,0.3-1.8,0.2-1.8-1.4c0-2.9,0-5.7,0-8.6c0-2.7,1.8-4.5,4.5-4.4c0.4,0,0.8,0.2,1.2,0.3c1.9,0.9,3.8,0.9,5.7,0.1
		c2.6-1.2,5.7,0.6,5.8,3.5c0.1,3.3,0.1,6.5,0,9.8C736.6,382,735.6,381.4,734.8,381.6z"/>
	<path class="st2" d="M724.1,361.3c0-2.1,1.8-3.9,4-3.9c2.1,0,3.9,1.8,3.9,3.9c0,2.1-1.8,3.9-4,3.9
		C725.8,365.2,724.1,363.4,724.1,361.3z"/>
</g>
<g>
	<path d="M756.5,354.7c0.1,0.1,0.3,0.1,0.4,0.2c4.1,1.1,6.1,5.1,4.6,9.1c-0.1,0.1-0.1,0.3-0.2,0.5c0.2,0.1,0.4,0.2,0.6,0.2
		c2.9,1,4.8,3.6,4.8,6.7c0,3.1,0,6.2,0,9.3c0,2.4-1.3,3.7-3.8,3.8c-0.2,0-0.5,0-0.9,0c0,0.4,0,0.7,0,1.1c0,4,0,7.9,0,11.9
		c0,2.4-1,3.4-3.4,3.4c-2.3,0-4.5,0-6.8,0c-2.4,0-3.4-1.1-3.4-3.4c0-3.9,0-7.9,0-11.8c0-0.3,0-0.7,0-1.2c-0.4,0-0.8,0-1.1,0
		c-2.1-0.1-3.5-1.4-3.5-3.5c0-2.9,0.1-5.8,0-8.7c-0.2-3.7,1.7-6.6,5.4-7.8c-0.2-0.5-0.4-1-0.5-1.6c-0.8-3.6,1.3-7,4.8-8
		c0.2-0.1,0.4-0.1,0.6-0.2C755,354.7,755.7,354.7,756.5,354.7z M762.1,381.6c0.8-0.2,1.8,0.4,1.8-0.9c0-3.3,0.1-6.5,0-9.8
		c-0.1-2.9-3.2-4.7-5.8-3.5c-1.9,0.9-3.8,0.8-5.7-0.1c-0.4-0.2-0.8-0.3-1.2-0.3c-2.6,0-4.5,1.8-4.5,4.4c0,2.9,0,5.7,0,8.6
		c0,1.5,0.2,1.7,1.8,1.4c0-2.4,0-4.8,0-7.3c0-1.5,0.5-2.2,1.4-2.2c1,0,1.4,0.7,1.4,2.1c0,7.5,0,15,0,22.5c0,0.4,0,0.8,0.1,1.2
		c0.9,0,1.7,0,2.5,0c0-0.4,0-0.8,0-1.1c0-3.5,0-7,0-10.5c0-0.3,0-0.7,0.1-1c0.1-0.7,0.6-1.1,1.4-1.1c0.7,0,1.2,0.4,1.3,1.1
		c0.1,0.3,0.1,0.7,0.1,1c0,3.5,0,7,0,10.6c0,0.3,0,0.7,0,1c0.9,0,1.7,0,2.6,0c0-0.4,0-0.8,0-1.2c0-7.5,0-14.9,0-22.4
		c0-0.4,0-0.8,0.1-1.1c0.1-0.7,0.6-1.1,1.4-1.1c0.7,0,1.2,0.5,1.3,1.2c0.1,0.4,0,0.8,0,1.2C762.1,376.8,762.1,379.1,762.1,381.6z
		 M751.4,361.4c0,2.1,1.7,3.9,3.8,3.9c2.1,0,4-1.8,4-3.9c0-2.1-1.7-3.9-3.9-3.9C753.2,357.4,751.4,359.2,751.4,361.4z"/>
	<path class="st2" d="M762.1,381.6c0-2.5,0-4.8,0-7.1c0-0.4,0-0.8,0-1.2c-0.1-0.8-0.6-1.2-1.3-1.2c-0.7,0-1.2,0.4-1.4,1.1
		c-0.1,0.4-0.1,0.7-0.1,1.1c0,7.5,0,14.9,0,22.4c0,0.4,0,0.7,0,1.2c-0.9,0-1.7,0-2.6,0c0-0.4,0-0.7,0-1c0-3.5,0-7,0-10.6
		c0-0.3,0-0.7-0.1-1c-0.1-0.7-0.6-1.1-1.3-1.1c-0.8,0-1.2,0.4-1.4,1.1c-0.1,0.3-0.1,0.7-0.1,1c0,3.5,0,7,0,10.5c0,0.3,0,0.7,0,1.1
		c-0.9,0-1.6,0-2.5,0c0-0.4-0.1-0.8-0.1-1.2c0-7.5,0-15,0-22.5c0-1.5-0.4-2.1-1.4-2.1c-1,0-1.4,0.7-1.4,2.2c0,2.4,0,4.8,0,7.3
		c-1.7,0.3-1.8,0.2-1.8-1.4c0-2.9,0-5.7,0-8.6c0-2.7,1.8-4.5,4.5-4.4c0.4,0,0.8,0.2,1.2,0.3c1.9,0.9,3.8,0.9,5.7,0.1
		c2.6-1.2,5.7,0.6,5.8,3.5c0.1,3.3,0.1,6.5,0,9.8C763.9,382,762.9,381.4,762.1,381.6z"/>
	<path class="st2" d="M751.4,361.4c0-2.1,1.8-3.9,4-3.9c2.1,0,3.9,1.8,3.9,3.9c0,2.1-1.8,3.9-4,3.9
		C753.2,365.2,751.4,363.5,751.4,361.4z"/>
</g>
<g>
	<path d="M784.1,354.7c0.1,0.1,0.3,0.1,0.4,0.2c4.1,1.1,6.1,5.1,4.6,9.1c-0.1,0.1-0.1,0.3-0.2,0.5c0.2,0.1,0.4,0.2,0.6,0.2
		c2.9,1,4.8,3.6,4.8,6.7c0,3.1,0,6.2,0,9.3c0,2.4-1.3,3.7-3.8,3.8c-0.2,0-0.5,0-0.9,0c0,0.4,0,0.7,0,1.1c0,4,0,7.9,0,11.9
		c0,2.4-1,3.4-3.4,3.4c-2.3,0-4.5,0-6.8,0c-2.4,0-3.4-1.1-3.4-3.4c0-3.9,0-7.9,0-11.8c0-0.3,0-0.7,0-1.2c-0.4,0-0.8,0-1.1,0
		c-2.1-0.1-3.5-1.4-3.5-3.5c0-2.9,0.1-5.8,0-8.7c-0.2-3.7,1.7-6.6,5.4-7.8c-0.2-0.5-0.4-1-0.5-1.6c-0.8-3.6,1.3-7,4.8-8
		c0.2-0.1,0.4-0.1,0.6-0.2C782.6,354.7,783.4,354.7,784.1,354.7z M789.8,381.6c0.8-0.2,1.8,0.4,1.8-0.9c0-3.3,0.1-6.5,0-9.8
		c-0.1-2.9-3.2-4.7-5.8-3.5c-1.9,0.9-3.8,0.8-5.7-0.1c-0.4-0.2-0.8-0.3-1.2-0.3c-2.6,0-4.5,1.8-4.5,4.4c0,2.9,0,5.7,0,8.6
		c0,1.5,0.2,1.7,1.8,1.4c0-2.4,0-4.8,0-7.3c0-1.5,0.5-2.2,1.4-2.2c1,0,1.4,0.7,1.4,2.1c0,7.5,0,15,0,22.5c0,0.4,0,0.8,0.1,1.2
		c0.9,0,1.7,0,2.5,0c0-0.4,0-0.8,0-1.1c0-3.5,0-7,0-10.5c0-0.3,0-0.7,0.1-1c0.1-0.7,0.6-1.1,1.4-1.1c0.7,0,1.2,0.4,1.3,1.1
		c0.1,0.3,0.1,0.7,0.1,1c0,3.5,0,7,0,10.6c0,0.3,0,0.7,0,1c0.9,0,1.7,0,2.6,0c0-0.4,0-0.8,0-1.2c0-7.5,0-14.9,0-22.4
		c0-0.4,0-0.8,0.1-1.1c0.1-0.7,0.6-1.1,1.4-1.1c0.7,0,1.2,0.5,1.3,1.2c0.1,0.4,0,0.8,0,1.2C789.8,376.8,789.8,379.1,789.8,381.6z
		 M779.1,361.3c0,2.1,1.7,3.9,3.8,3.9c2.1,0,4-1.8,4-3.9c0-2.1-1.7-3.9-3.9-3.9C780.9,357.4,779.1,359.2,779.1,361.3z"/>
	<path class="st2" d="M789.8,381.6c0-2.5,0-4.8,0-7.1c0-0.4,0-0.8,0-1.2c-0.1-0.8-0.6-1.2-1.3-1.2c-0.7,0-1.2,0.4-1.4,1.1
		c-0.1,0.4-0.1,0.7-0.1,1.1c0,7.5,0,14.9,0,22.4c0,0.4,0,0.7,0,1.2c-0.9,0-1.7,0-2.6,0c0-0.4,0-0.7,0-1c0-3.5,0-7,0-10.6
		c0-0.3,0-0.7-0.1-1c-0.1-0.7-0.6-1.1-1.3-1.1c-0.8,0-1.2,0.4-1.4,1.1c-0.1,0.3-0.1,0.7-0.1,1c0,3.5,0,7,0,10.5c0,0.3,0,0.7,0,1.1
		c-0.9,0-1.6,0-2.5,0c0-0.4-0.1-0.8-0.1-1.2c0-7.5,0-15,0-22.5c0-1.5-0.4-2.1-1.4-2.1c-1,0-1.4,0.7-1.4,2.2c0,2.4,0,4.8,0,7.3
		c-1.7,0.3-1.8,0.2-1.8-1.4c0-2.9,0-5.7,0-8.6c0-2.7,1.8-4.5,4.5-4.4c0.4,0,0.8,0.2,1.2,0.3c1.9,0.9,3.8,0.9,5.7,0.1
		c2.6-1.2,5.7,0.6,5.8,3.5c0.1,3.3,0.1,6.5,0,9.8C791.6,382,790.6,381.4,789.8,381.6z"/>
	<path class="st2" d="M779.1,361.3c0-2.1,1.8-3.9,4-3.9c2.1,0,3.9,1.8,3.9,3.9c0,2.1-1.8,3.9-4,3.9
		C780.8,365.2,779.1,363.4,779.1,361.3z"/>
</g>
<path d="M793.5,199.7"/>
<g>
	<path d="M698.1,80.1c0.1,0.1,0.3,0.1,0.4,0.2c4.1,1.1,6.1,5.1,4.6,9.1c-0.1,0.1-0.1,0.3-0.2,0.5c0.2,0.1,0.4,0.2,0.6,0.2
		c2.9,1,4.8,3.6,4.8,6.7c0,3.1,0,6.2,0,9.3c0,2.4-1.3,3.7-3.8,3.8c-0.2,0-0.5,0-0.9,0c0,0.4,0,0.7,0,1.1c0,4,0,7.9,0,11.9
		c0,2.4-1,3.4-3.4,3.4c-2.3,0-4.5,0-6.8,0c-2.4,0-3.4-1.1-3.4-3.4c0-3.9,0-7.9,0-11.8c0-0.3,0-0.7,0-1.2c-0.4,0-0.8,0-1.1,0
		c-2.1-0.1-3.5-1.4-3.5-3.5c0-2.9,0.1-5.8,0-8.7c-0.2-3.7,1.7-6.6,5.4-7.8c-0.2-0.5-0.4-1-0.5-1.6c-0.8-3.6,1.3-7,4.8-8
		c0.2-0.1,0.4-0.1,0.6-0.2C696.6,80.1,697.3,80.1,698.1,80.1z M703.7,107c0.8-0.2,1.8,0.4,1.8-0.9c0-3.3,0.1-6.5,0-9.8
		c-0.1-2.9-3.2-4.7-5.8-3.5c-1.9,0.9-3.8,0.8-5.7-0.1c-0.4-0.2-0.8-0.3-1.2-0.3c-2.6,0-4.5,1.8-4.5,4.4c0,2.9,0,5.7,0,8.6
		c0,1.5,0.2,1.7,1.8,1.4c0-2.4,0-4.8,0-7.3c0-1.5,0.5-2.2,1.4-2.2c1,0,1.4,0.7,1.4,2.1c0,7.5,0,15,0,22.5c0,0.4,0,0.8,0.1,1.2
		c0.9,0,1.7,0,2.5,0c0-0.4,0-0.8,0-1.1c0-3.5,0-7,0-10.5c0-0.3,0-0.7,0.1-1c0.1-0.7,0.6-1.1,1.4-1.1c0.7,0,1.2,0.4,1.3,1.1
		c0.1,0.3,0.1,0.7,0.1,1c0,3.5,0,7,0,10.6c0,0.3,0,0.7,0,1c0.9,0,1.7,0,2.6,0c0-0.4,0-0.8,0-1.2c0-7.5,0-14.9,0-22.4
		c0-0.4,0-0.8,0.1-1.1c0.1-0.7,0.6-1.1,1.4-1.1c0.7,0,1.2,0.5,1.3,1.2c0.1,0.4,0,0.8,0,1.2C703.7,102.2,703.7,104.5,703.7,107z
		 M693,86.8c0,2.1,1.7,3.9,3.8,3.9c2.1,0,4-1.8,4-3.9c0-2.1-1.7-3.9-3.9-3.9C694.8,82.9,693,84.6,693,86.8z"/>
	<path class="st2" d="M703.7,107c0-2.5,0-4.8,0-7.1c0-0.4,0-0.8,0-1.2c-0.1-0.8-0.6-1.2-1.3-1.2c-0.7,0-1.2,0.4-1.4,1.1
		c-0.1,0.4-0.1,0.7-0.1,1.1c0,7.5,0,14.9,0,22.4c0,0.4,0,0.7,0,1.2c-0.9,0-1.7,0-2.6,0c0-0.4,0-0.7,0-1c0-3.5,0-7,0-10.6
		c0-0.3,0-0.7-0.1-1c-0.1-0.7-0.6-1.1-1.3-1.1c-0.8,0-1.2,0.4-1.4,1.1c-0.1,0.3-0.1,0.7-0.1,1c0,3.5,0,7,0,10.5c0,0.3,0,0.7,0,1.1
		c-0.9,0-1.6,0-2.5,0c0-0.4-0.1-0.8-0.1-1.2c0-7.5,0-15,0-22.5c0-1.5-0.4-2.1-1.4-2.1c-1,0-1.4,0.7-1.4,2.2c0,2.4,0,4.8,0,7.3
		c-1.7,0.3-1.8,0.2-1.8-1.4c0-2.9,0-5.7,0-8.6c0-2.7,1.8-4.5,4.5-4.4c0.4,0,0.8,0.2,1.2,0.3c1.9,0.9,3.8,0.9,5.7,0.1
		c2.6-1.2,5.7,0.6,5.8,3.5c0.1,3.3,0.1,6.5,0,9.8C705.5,107.4,704.5,106.8,703.7,107z"/>
	<path class="st2" d="M693,86.8c0-2.1,1.8-3.9,4-3.9c2.1,0,3.9,1.8,3.9,3.9c0,2.1-1.8,3.9-4,3.9C694.8,90.6,693,88.9,693,86.8z"/>
</g>
<g>
	<path d="M725.4,80.1c0.1,0.1,0.3,0.1,0.4,0.2c4.1,1.1,6.1,5.1,4.6,9.1c-0.1,0.1-0.1,0.3-0.2,0.5c0.2,0.1,0.4,0.2,0.6,0.2
		c2.9,1,4.8,3.6,4.8,6.7c0,3.1,0,6.2,0,9.3c0,2.4-1.3,3.7-3.8,3.8c-0.2,0-0.5,0-0.9,0c0,0.4,0,0.7,0,1.1c0,4,0,7.9,0,11.9
		c0,2.4-1,3.4-3.4,3.4c-2.3,0-4.5,0-6.8,0c-2.4,0-3.4-1.1-3.4-3.4c0-3.9,0-7.9,0-11.8c0-0.3,0-0.7,0-1.2c-0.4,0-0.8,0-1.1,0
		c-2.1-0.1-3.5-1.4-3.5-3.5c0-2.9,0.1-5.8,0-8.7c-0.2-3.7,1.7-6.6,5.4-7.8c-0.2-0.5-0.4-1-0.5-1.6c-0.8-3.6,1.3-7,4.8-8
		c0.2-0.1,0.4-0.1,0.6-0.2C723.9,80.1,724.7,80.1,725.4,80.1z M731.1,107c0.8-0.2,1.8,0.4,1.8-0.9c0-3.3,0.1-6.5,0-9.8
		c-0.1-2.9-3.2-4.7-5.8-3.5c-1.9,0.9-3.8,0.8-5.7-0.1c-0.4-0.2-0.8-0.3-1.2-0.3c-2.6,0-4.5,1.8-4.5,4.4c0,2.9,0,5.7,0,8.6
		c0,1.5,0.2,1.7,1.8,1.4c0-2.4,0-4.8,0-7.3c0-1.5,0.5-2.2,1.4-2.2c1,0,1.4,0.7,1.4,2.1c0,7.5,0,15,0,22.5c0,0.4,0,0.8,0.1,1.2
		c0.9,0,1.7,0,2.5,0c0-0.4,0-0.8,0-1.1c0-3.5,0-7,0-10.5c0-0.3,0-0.7,0.1-1c0.1-0.7,0.6-1.1,1.4-1.1c0.7,0,1.2,0.4,1.3,1.1
		c0.1,0.3,0.1,0.7,0.1,1c0,3.5,0,7,0,10.6c0,0.3,0,0.7,0,1c0.9,0,1.7,0,2.6,0c0-0.4,0-0.8,0-1.2c0-7.5,0-14.9,0-22.4
		c0-0.4,0-0.8,0.1-1.1c0.1-0.7,0.6-1.1,1.4-1.1c0.7,0,1.2,0.5,1.3,1.2c0.1,0.4,0,0.8,0,1.2C731.1,102.2,731.1,104.6,731.1,107z
		 M720.4,86.8c0,2.1,1.7,3.9,3.8,3.9c2.1,0,4-1.8,4-3.9c0-2.1-1.7-3.9-3.9-3.9C722.2,82.9,720.4,84.6,720.4,86.8z"/>
	<path class="st2" d="M731.1,107c0-2.5,0-4.8,0-7.1c0-0.4,0-0.8,0-1.2c-0.1-0.8-0.6-1.2-1.3-1.2c-0.7,0-1.2,0.4-1.4,1.1
		c-0.1,0.4-0.1,0.7-0.1,1.1c0,7.5,0,14.9,0,22.4c0,0.4,0,0.7,0,1.2c-0.9,0-1.7,0-2.6,0c0-0.4,0-0.7,0-1c0-3.5,0-7,0-10.6
		c0-0.3,0-0.7-0.1-1c-0.1-0.7-0.6-1.1-1.3-1.1c-0.8,0-1.2,0.4-1.4,1.1c-0.1,0.3-0.1,0.7-0.1,1c0,3.5,0,7,0,10.5c0,0.3,0,0.7,0,1.1
		c-0.9,0-1.6,0-2.5,0c0-0.4-0.1-0.8-0.1-1.2c0-7.5,0-15,0-22.5c0-1.5-0.4-2.1-1.4-2.1c-1,0-1.4,0.7-1.4,2.2c0,2.4,0,4.8,0,7.3
		c-1.7,0.3-1.8,0.2-1.8-1.4c0-2.9,0-5.7,0-8.6c0-2.7,1.8-4.5,4.5-4.4c0.4,0,0.8,0.2,1.2,0.3c1.9,0.9,3.8,0.9,5.7,0.1
		c2.6-1.2,5.7,0.6,5.8,3.5c0.1,3.3,0.1,6.5,0,9.8C732.9,107.5,731.9,106.9,731.1,107z"/>
	<path class="st2" d="M720.4,86.8c0-2.1,1.8-3.9,4-3.9c2.1,0,3.9,1.8,3.9,3.9c0,2.1-1.8,3.9-4,3.9C722.1,90.7,720.4,88.9,720.4,86.8
		z"/>
</g>
<g>
	<path d="M754,80.2c0.1,0.1,0.3,0.1,0.4,0.2c4.1,1.1,6.1,5.1,4.6,9.1c-0.1,0.1-0.1,0.3-0.2,0.5c0.2,0.1,0.4,0.2,0.6,0.2
		c2.9,1,4.8,3.6,4.8,6.7c0,3.1,0,6.2,0,9.3c0,2.4-1.3,3.7-3.8,3.8c-0.2,0-0.5,0-0.9,0c0,0.4,0,0.7,0,1.1c0,4,0,7.9,0,11.9
		c0,2.4-1,3.4-3.4,3.4c-2.3,0-4.5,0-6.8,0c-2.4,0-3.4-1.1-3.4-3.4c0-3.9,0-7.9,0-11.8c0-0.3,0-0.7,0-1.2c-0.4,0-0.8,0-1.1,0
		c-2.1-0.1-3.5-1.4-3.5-3.5c0-2.9,0.1-5.8,0-8.7c-0.2-3.7,1.7-6.6,5.4-7.8c-0.2-0.5-0.4-1-0.5-1.6c-0.8-3.6,1.3-7,4.8-8
		c0.2-0.1,0.4-0.1,0.6-0.2C752.5,80.2,753.2,80.2,754,80.2z M759.7,107.1c0.8-0.2,1.8,0.4,1.8-0.9c0-3.3,0.1-6.5,0-9.8
		c-0.1-2.9-3.2-4.7-5.8-3.5c-1.9,0.9-3.8,0.8-5.7-0.1c-0.4-0.2-0.8-0.3-1.2-0.3c-2.6,0-4.5,1.8-4.5,4.4c0,2.9,0,5.7,0,8.6
		c0,1.5,0.2,1.7,1.8,1.4c0-2.4,0-4.8,0-7.3c0-1.5,0.5-2.2,1.4-2.2c1,0,1.4,0.7,1.4,2.1c0,7.5,0,15,0,22.5c0,0.4,0,0.8,0.1,1.2
		c0.9,0,1.7,0,2.5,0c0-0.4,0-0.8,0-1.1c0-3.5,0-7,0-10.5c0-0.3,0-0.7,0.1-1c0.1-0.7,0.6-1.1,1.4-1.1c0.7,0,1.2,0.4,1.3,1.1
		c0.1,0.3,0.1,0.7,0.1,1c0,3.5,0,7,0,10.6c0,0.3,0,0.7,0,1c0.9,0,1.7,0,2.6,0c0-0.4,0-0.8,0-1.2c0-7.5,0-14.9,0-22.4
		c0-0.4,0-0.8,0.1-1.1c0.1-0.7,0.6-1.1,1.4-1.1c0.7,0,1.2,0.5,1.3,1.2c0.1,0.4,0,0.8,0,1.2C759.7,102.3,759.7,104.6,759.7,107.1z
		 M749,86.8c0,2.1,1.7,3.9,3.8,3.9c2.1,0,4-1.8,4-3.9c0-2.1-1.7-3.9-3.9-3.9C750.8,82.9,749,84.7,749,86.8z"/>
	<path class="st2" d="M759.7,107.1c0-2.5,0-4.8,0-7.1c0-0.4,0-0.8,0-1.2c-0.1-0.8-0.6-1.2-1.3-1.2c-0.7,0-1.2,0.4-1.4,1.1
		c-0.1,0.4-0.1,0.7-0.1,1.1c0,7.5,0,14.9,0,22.4c0,0.4,0,0.7,0,1.2c-0.9,0-1.7,0-2.6,0c0-0.4,0-0.7,0-1c0-3.5,0-7,0-10.6
		c0-0.3,0-0.7-0.1-1c-0.1-0.7-0.6-1.1-1.3-1.1c-0.8,0-1.2,0.4-1.4,1.1c-0.1,0.3-0.1,0.7-0.1,1c0,3.5,0,7,0,10.5c0,0.3,0,0.7,0,1.1
		c-0.9,0-1.6,0-2.5,0c0-0.4-0.1-0.8-0.1-1.2c0-7.5,0-15,0-22.5c0-1.5-0.4-2.1-1.4-2.1c-1,0-1.4,0.7-1.4,2.2c0,2.4,0,4.8,0,7.3
		c-1.7,0.3-1.8,0.2-1.8-1.4c0-2.9,0-5.7,0-8.6c0-2.7,1.8-4.5,4.5-4.4c0.4,0,0.8,0.2,1.2,0.3c1.9,0.9,3.8,0.9,5.7,0.1
		c2.6-1.2,5.7,0.6,5.8,3.5c0.1,3.3,0.1,6.5,0,9.8C761.5,107.5,760.5,106.9,759.7,107.1z"/>
	<path class="st2" d="M749,86.8c0-2.1,1.8-3.9,4-3.9c2.1,0,3.9,1.8,3.9,3.9c0,2.1-1.8,3.9-4,3.9C750.7,90.7,749,89,749,86.8z"/>
</g>
<g>
	<path d="M781.3,80.2c0.1,0.1,0.3,0.1,0.4,0.2c4.1,1.1,6.1,5.1,4.6,9.1c-0.1,0.1-0.1,0.3-0.2,0.5c0.2,0.1,0.4,0.2,0.6,0.2
		c2.9,1,4.8,3.6,4.8,6.7c0,3.1,0,6.2,0,9.3c0,2.4-1.3,3.7-3.8,3.8c-0.2,0-0.5,0-0.9,0c0,0.4,0,0.7,0,1.1c0,4,0,7.9,0,11.9
		c0,2.4-1,3.4-3.4,3.4c-2.3,0-4.5,0-6.8,0c-2.4,0-3.4-1.1-3.4-3.4c0-3.9,0-7.9,0-11.8c0-0.3,0-0.7,0-1.2c-0.4,0-0.8,0-1.1,0
		c-2.1-0.1-3.5-1.4-3.5-3.5c0-2.9,0.1-5.8,0-8.7c-0.2-3.7,1.7-6.6,5.4-7.8c-0.2-0.5-0.4-1-0.5-1.6c-0.8-3.6,1.3-7,4.8-8
		c0.2-0.1,0.4-0.1,0.6-0.2C779.8,80.2,780.6,80.2,781.3,80.2z M787,107.1c0.8-0.2,1.8,0.4,1.8-0.9c0-3.3,0.1-6.5,0-9.8
		c-0.1-2.9-3.2-4.7-5.8-3.5c-1.9,0.9-3.8,0.8-5.7-0.1c-0.4-0.2-0.8-0.3-1.2-0.3c-2.6,0-4.5,1.8-4.5,4.4c0,2.9,0,5.7,0,8.6
		c0,1.5,0.2,1.7,1.8,1.4c0-2.4,0-4.8,0-7.3c0-1.5,0.5-2.2,1.4-2.2c1,0,1.4,0.7,1.4,2.1c0,7.5,0,15,0,22.5c0,0.4,0,0.8,0.1,1.2
		c0.9,0,1.7,0,2.5,0c0-0.4,0-0.8,0-1.1c0-3.5,0-7,0-10.5c0-0.3,0-0.7,0.1-1c0.1-0.7,0.6-1.1,1.4-1.1c0.7,0,1.2,0.4,1.3,1.1
		c0.1,0.3,0.1,0.7,0.1,1c0,3.5,0,7,0,10.6c0,0.3,0,0.7,0,1c0.9,0,1.7,0,2.6,0c0-0.4,0-0.8,0-1.2c0-7.5,0-14.9,0-22.4
		c0-0.4,0-0.8,0.1-1.1c0.1-0.7,0.6-1.1,1.4-1.1c0.7,0,1.2,0.5,1.3,1.2c0.1,0.4,0,0.8,0,1.2C787,102.3,787,104.7,787,107.1z
		 M776.3,86.9c0,2.1,1.7,3.9,3.8,3.9c2.1,0,4-1.8,4-3.9c0-2.1-1.7-3.9-3.9-3.9C778.1,83,776.3,84.7,776.3,86.9z"/>
	<path class="st2" d="M787,107.1c0-2.5,0-4.8,0-7.1c0-0.4,0-0.8,0-1.2c-0.1-0.8-0.6-1.2-1.3-1.2c-0.7,0-1.2,0.4-1.4,1.1
		c-0.1,0.4-0.1,0.7-0.1,1.1c0,7.5,0,14.9,0,22.4c0,0.4,0,0.7,0,1.2c-0.9,0-1.7,0-2.6,0c0-0.4,0-0.7,0-1c0-3.5,0-7,0-10.6
		c0-0.3,0-0.7-0.1-1c-0.1-0.7-0.6-1.1-1.3-1.1c-0.8,0-1.2,0.4-1.4,1.1c-0.1,0.3-0.1,0.7-0.1,1c0,3.5,0,7,0,10.5c0,0.3,0,0.7,0,1.1
		c-0.9,0-1.6,0-2.5,0c0-0.4-0.1-0.8-0.1-1.2c0-7.5,0-15,0-22.5c0-1.5-0.4-2.1-1.4-2.1c-1,0-1.4,0.7-1.4,2.2c0,2.4,0,4.8,0,7.3
		c-1.7,0.3-1.8,0.2-1.8-1.4c0-2.9,0-5.7,0-8.6c0-2.7,1.8-4.5,4.5-4.4c0.4,0,0.8,0.2,1.2,0.3c1.9,0.9,3.8,0.9,5.7,0.1
		c2.6-1.2,5.7,0.6,5.8,3.5c0.1,3.3,0.1,6.5,0,9.8C788.8,107.6,787.8,107,787,107.1z"/>
	<path class="st2" d="M776.3,86.9c0-2.1,1.8-3.9,4-3.9c2.1,0,3.9,1.8,3.9,3.9c0,2.1-1.8,3.9-4,3.9C778,90.7,776.3,89,776.3,86.9z"/>
</g>
<g>
	<path d="M809,80.2c0.1,0.1,0.3,0.1,0.4,0.2c4.1,1.1,6.1,5.1,4.6,9.1c-0.1,0.1-0.1,0.3-0.2,0.5c0.2,0.1,0.4,0.2,0.6,0.2
		c2.9,1,4.8,3.6,4.8,6.7c0,3.1,0,6.2,0,9.3c0,2.4-1.3,3.7-3.8,3.8c-0.2,0-0.5,0-0.9,0c0,0.4,0,0.7,0,1.1c0,4,0,7.9,0,11.9
		c0,2.4-1,3.4-3.4,3.4c-2.3,0-4.5,0-6.8,0c-2.4,0-3.4-1.1-3.4-3.4c0-3.9,0-7.9,0-11.8c0-0.3,0-0.7,0-1.2c-0.4,0-0.8,0-1.1,0
		c-2.1-0.1-3.5-1.4-3.5-3.5c0-2.9,0.1-5.8,0-8.7c-0.2-3.7,1.7-6.6,5.4-7.8c-0.2-0.5-0.4-1-0.5-1.6c-0.8-3.6,1.3-7,4.8-8
		c0.2-0.1,0.4-0.1,0.6-0.2C807.5,80.2,808.3,80.2,809,80.2z M814.7,107.1c0.8-0.2,1.8,0.4,1.8-0.9c0-3.3,0.1-6.5,0-9.8
		c-0.1-2.9-3.2-4.7-5.8-3.5c-1.9,0.9-3.8,0.8-5.7-0.1c-0.4-0.2-0.8-0.3-1.2-0.3c-2.6,0-4.5,1.8-4.5,4.4c0,2.9,0,5.7,0,8.6
		c0,1.5,0.2,1.7,1.8,1.4c0-2.4,0-4.8,0-7.3c0-1.5,0.5-2.2,1.4-2.2c1,0,1.4,0.7,1.4,2.1c0,7.5,0,15,0,22.5c0,0.4,0,0.8,0.1,1.2
		c0.9,0,1.7,0,2.5,0c0-0.4,0-0.8,0-1.1c0-3.5,0-7,0-10.5c0-0.3,0-0.7,0.1-1c0.1-0.7,0.6-1.1,1.4-1.1c0.7,0,1.2,0.4,1.3,1.1
		c0.1,0.3,0.1,0.7,0.1,1c0,3.5,0,7,0,10.6c0,0.3,0,0.7,0,1c0.9,0,1.7,0,2.6,0c0-0.4,0-0.8,0-1.2c0-7.5,0-14.9,0-22.4
		c0-0.4,0-0.8,0.1-1.1c0.1-0.7,0.6-1.1,1.4-1.1c0.7,0,1.2,0.5,1.3,1.2c0.1,0.4,0,0.8,0,1.2C814.7,102.3,814.7,104.6,814.7,107.1z
		 M804,86.9c0,2.1,1.7,3.9,3.8,3.9c2.1,0,4-1.8,4-3.9c0-2.1-1.7-3.9-3.9-3.9C805.8,83,804,84.7,804,86.9z"/>
	<path class="st2" d="M814.7,107.1c0-2.5,0-4.8,0-7.1c0-0.4,0-0.8,0-1.2c-0.1-0.8-0.6-1.2-1.3-1.2c-0.7,0-1.2,0.4-1.4,1.1
		c-0.1,0.4-0.1,0.7-0.1,1.1c0,7.5,0,14.9,0,22.4c0,0.4,0,0.7,0,1.2c-0.9,0-1.7,0-2.6,0c0-0.4,0-0.7,0-1c0-3.5,0-7,0-10.6
		c0-0.3,0-0.7-0.1-1c-0.1-0.7-0.6-1.1-1.3-1.1c-0.8,0-1.2,0.4-1.4,1.1c-0.1,0.3-0.1,0.7-0.1,1c0,3.5,0,7,0,10.5c0,0.3,0,0.7,0,1.1
		c-0.9,0-1.6,0-2.5,0c0-0.4-0.1-0.8-0.1-1.2c0-7.5,0-15,0-22.5c0-1.5-0.4-2.1-1.4-2.1c-1,0-1.4,0.7-1.4,2.2c0,2.4,0,4.8,0,7.3
		c-1.7,0.3-1.8,0.2-1.8-1.4c0-2.9,0-5.7,0-8.6c0-2.7,1.8-4.5,4.5-4.4c0.4,0,0.8,0.2,1.2,0.3c1.9,0.9,3.8,0.9,5.7,0.1
		c2.6-1.2,5.7,0.6,5.8,3.5c0.1,3.3,0.1,6.5,0,9.8C816.5,107.5,815.5,107,814.7,107.1z"/>
	<path class="st2" d="M804,86.9c0-2.1,1.8-3.9,4-3.9c2.1,0,3.9,1.8,3.9,3.9c0,2.1-1.8,3.9-4,3.9C805.7,90.7,804,89,804,86.9z"/>
</g>
<path d="M777.2,203.3"/>
<g>
	<path d="M698.2,135.1c0.1,0.1,0.3,0.1,0.4,0.2c4.1,1.1,6.1,5.1,4.6,9.1c-0.1,0.1-0.1,0.3-0.2,0.5c0.2,0.1,0.4,0.2,0.6,0.2
		c2.9,1,4.8,3.6,4.8,6.7c0,3.1,0,6.2,0,9.3c0,2.4-1.3,3.7-3.8,3.8c-0.2,0-0.5,0-0.9,0c0,0.4,0,0.7,0,1.1c0,4,0,7.9,0,11.9
		c0,2.4-1,3.4-3.4,3.4c-2.3,0-4.5,0-6.8,0c-2.4,0-3.4-1.1-3.4-3.4c0-3.9,0-7.9,0-11.8c0-0.3,0-0.7,0-1.2c-0.4,0-0.8,0-1.1,0
		c-2.1-0.1-3.5-1.4-3.5-3.5c0-2.9,0.1-5.8,0-8.7c-0.2-3.7,1.7-6.6,5.4-7.8c-0.2-0.5-0.4-1-0.5-1.6c-0.8-3.6,1.3-7,4.8-8
		c0.2-0.1,0.4-0.1,0.6-0.2C696.7,135.1,697.5,135.1,698.2,135.1z M703.9,162.1c0.8-0.2,1.8,0.4,1.8-0.9c0-3.3,0.1-6.5,0-9.8
		c-0.1-2.9-3.2-4.7-5.8-3.5c-1.9,0.9-3.8,0.8-5.7-0.1c-0.4-0.2-0.8-0.3-1.2-0.3c-2.6,0-4.5,1.8-4.5,4.4c0,2.9,0,5.7,0,8.6
		c0,1.5,0.2,1.7,1.8,1.4c0-2.4,0-4.8,0-7.3c0-1.5,0.5-2.2,1.4-2.2c1,0,1.4,0.7,1.4,2.1c0,7.5,0,15,0,22.5c0,0.4,0,0.8,0.1,1.2
		c0.9,0,1.7,0,2.5,0c0-0.4,0-0.8,0-1.1c0-3.5,0-7,0-10.5c0-0.3,0-0.7,0.1-1c0.1-0.7,0.6-1.1,1.4-1.1c0.7,0,1.2,0.4,1.3,1.1
		c0.1,0.3,0.1,0.7,0.1,1c0,3.5,0,7,0,10.6c0,0.3,0,0.7,0,1c0.9,0,1.7,0,2.6,0c0-0.4,0-0.8,0-1.2c0-7.5,0-14.9,0-22.4
		c0-0.4,0-0.8,0.1-1.1c0.1-0.7,0.6-1.1,1.4-1.1c0.7,0,1.2,0.5,1.3,1.2c0.1,0.4,0,0.8,0,1.2C703.9,157.3,703.9,159.6,703.9,162.1z
		 M693.2,141.8c0,2.1,1.7,3.9,3.8,3.9c2.1,0,4-1.8,4-3.9c0-2.1-1.7-3.9-3.9-3.9C695,137.9,693.2,139.7,693.2,141.8z"/>
	<path class="st2" d="M703.9,162.1c0-2.5,0-4.8,0-7.1c0-0.4,0-0.8,0-1.2c-0.1-0.8-0.6-1.2-1.3-1.2c-0.7,0-1.2,0.4-1.4,1.1
		c-0.1,0.4-0.1,0.7-0.1,1.1c0,7.5,0,14.9,0,22.4c0,0.4,0,0.7,0,1.2c-0.9,0-1.7,0-2.6,0c0-0.4,0-0.7,0-1c0-3.5,0-7,0-10.6
		c0-0.3,0-0.7-0.1-1c-0.1-0.7-0.6-1.1-1.3-1.1c-0.8,0-1.2,0.4-1.4,1.1c-0.1,0.3-0.1,0.7-0.1,1c0,3.5,0,7,0,10.5c0,0.3,0,0.7,0,1.1
		c-0.9,0-1.6,0-2.5,0c0-0.4-0.1-0.8-0.1-1.2c0-7.5,0-15,0-22.5c0-1.5-0.4-2.1-1.4-2.1c-1,0-1.4,0.7-1.4,2.2c0,2.4,0,4.8,0,7.3
		c-1.7,0.3-1.8,0.2-1.8-1.4c0-2.9,0-5.7,0-8.6c0-2.7,1.8-4.5,4.5-4.4c0.4,0,0.8,0.2,1.2,0.3c1.9,0.9,3.8,0.9,5.7,0.1
		c2.6-1.2,5.7,0.6,5.8,3.5c0.1,3.3,0.1,6.5,0,9.8C705.7,162.5,704.7,161.9,703.9,162.1z"/>
	<path class="st2" d="M693.2,141.8c0-2.1,1.8-3.9,4-3.9c2.1,0,3.9,1.8,3.9,3.9c0,2.1-1.8,3.9-4,3.9
		C694.9,145.7,693.2,143.9,693.2,141.8z"/>
</g>
<g>
	<path d="M725.6,135.2c0.1,0.1,0.3,0.1,0.4,0.2c4.1,1.1,6.1,5.1,4.6,9.1c-0.1,0.1-0.1,0.3-0.2,0.5c0.2,0.1,0.4,0.2,0.6,0.2
		c2.9,1,4.8,3.6,4.8,6.7c0,3.1,0,6.2,0,9.3c0,2.4-1.3,3.7-3.8,3.8c-0.2,0-0.5,0-0.9,0c0,0.4,0,0.7,0,1.1c0,4,0,7.9,0,11.9
		c0,2.4-1,3.4-3.4,3.4c-2.3,0-4.5,0-6.8,0c-2.4,0-3.4-1.1-3.4-3.4c0-3.9,0-7.9,0-11.8c0-0.3,0-0.7,0-1.2c-0.4,0-0.8,0-1.1,0
		c-2.1-0.1-3.5-1.4-3.5-3.5c0-2.9,0.1-5.8,0-8.7c-0.2-3.7,1.7-6.6,5.4-7.8c-0.2-0.5-0.4-1-0.5-1.6c-0.8-3.6,1.3-7,4.8-8
		c0.2-0.1,0.4-0.1,0.6-0.2C724.1,135.2,724.8,135.2,725.6,135.2z M731.3,162.1c0.8-0.2,1.8,0.4,1.8-0.9c0-3.3,0.1-6.5,0-9.8
		c-0.1-2.9-3.2-4.7-5.8-3.5c-1.9,0.9-3.8,0.8-5.7-0.1c-0.4-0.2-0.8-0.3-1.2-0.3c-2.6,0-4.5,1.8-4.5,4.4c0,2.9,0,5.7,0,8.6
		c0,1.5,0.2,1.7,1.8,1.4c0-2.4,0-4.8,0-7.3c0-1.5,0.5-2.2,1.4-2.2c1,0,1.4,0.7,1.4,2.1c0,7.5,0,15,0,22.5c0,0.4,0,0.8,0.1,1.2
		c0.9,0,1.7,0,2.5,0c0-0.4,0-0.8,0-1.1c0-3.5,0-7,0-10.5c0-0.3,0-0.7,0.1-1c0.1-0.7,0.6-1.1,1.4-1.1c0.7,0,1.2,0.4,1.3,1.1
		c0.1,0.3,0.1,0.7,0.1,1c0,3.5,0,7,0,10.6c0,0.3,0,0.7,0,1c0.9,0,1.7,0,2.6,0c0-0.4,0-0.8,0-1.2c0-7.5,0-14.9,0-22.4
		c0-0.4,0-0.8,0.1-1.1c0.1-0.7,0.6-1.1,1.4-1.1c0.7,0,1.2,0.5,1.3,1.2c0.1,0.4,0,0.8,0,1.2C731.3,157.3,731.3,159.7,731.3,162.1z
		 M720.5,141.9c0,2.1,1.7,3.9,3.8,3.9c2.1,0,4-1.8,4-3.9c0-2.1-1.7-3.9-3.9-3.9C722.3,138,720.6,139.7,720.5,141.9z"/>
	<path class="st2" d="M731.3,162.1c0-2.5,0-4.8,0-7.1c0-0.4,0-0.8,0-1.2c-0.1-0.8-0.6-1.2-1.3-1.2c-0.7,0-1.2,0.4-1.4,1.1
		c-0.1,0.4-0.1,0.7-0.1,1.1c0,7.5,0,14.9,0,22.4c0,0.4,0,0.7,0,1.2c-0.9,0-1.7,0-2.6,0c0-0.4,0-0.7,0-1c0-3.5,0-7,0-10.6
		c0-0.3,0-0.7-0.1-1c-0.1-0.7-0.6-1.1-1.3-1.1c-0.8,0-1.2,0.4-1.4,1.1c-0.1,0.3-0.1,0.7-0.1,1c0,3.5,0,7,0,10.5c0,0.3,0,0.7,0,1.1
		c-0.9,0-1.6,0-2.5,0c0-0.4-0.1-0.8-0.1-1.2c0-7.5,0-15,0-22.5c0-1.5-0.4-2.1-1.4-2.1c-1,0-1.4,0.7-1.4,2.2c0,2.4,0,4.8,0,7.3
		c-1.7,0.3-1.8,0.2-1.8-1.4c0-2.9,0-5.7,0-8.6c0-2.7,1.8-4.5,4.5-4.4c0.4,0,0.8,0.2,1.2,0.3c1.9,0.9,3.8,0.9,5.7,0.1
		c2.6-1.2,5.7,0.6,5.8,3.5c0.1,3.3,0.1,6.5,0,9.8C733.1,162.5,732,162,731.3,162.1z"/>
	<path class="st2" d="M720.5,141.9c0-2.1,1.8-3.9,4-3.9c2.1,0,3.9,1.8,3.9,3.9c0,2.1-1.8,3.9-4,3.9
		C722.3,145.7,720.5,144,720.5,141.9z"/>
</g>
<g>
	<path d="M754.2,135.2c0.1,0.1,0.3,0.1,0.4,0.2c4.1,1.1,6.1,5.1,4.6,9.1c-0.1,0.1-0.1,0.3-0.2,0.5c0.2,0.1,0.4,0.2,0.6,0.2
		c2.9,1,4.8,3.6,4.8,6.7c0,3.1,0,6.2,0,9.3c0,2.4-1.3,3.7-3.8,3.8c-0.2,0-0.5,0-0.9,0c0,0.4,0,0.7,0,1.1c0,4,0,7.9,0,11.9
		c0,2.4-1,3.4-3.4,3.4c-2.3,0-4.5,0-6.8,0c-2.4,0-3.4-1.1-3.4-3.4c0-3.9,0-7.9,0-11.8c0-0.3,0-0.7,0-1.2c-0.4,0-0.8,0-1.1,0
		c-2.1-0.1-3.5-1.4-3.5-3.5c0-2.9,0.1-5.8,0-8.7c-0.2-3.7,1.7-6.6,5.4-7.8c-0.2-0.5-0.4-1-0.5-1.6c-0.8-3.6,1.3-7,4.8-8
		c0.2-0.1,0.4-0.1,0.6-0.2C752.7,135.2,753.4,135.2,754.2,135.2z M759.8,162.2c0.8-0.2,1.8,0.4,1.8-0.9c0-3.3,0.1-6.5,0-9.8
		c-0.1-2.9-3.2-4.7-5.8-3.5c-1.9,0.9-3.8,0.8-5.7-0.1c-0.4-0.2-0.8-0.3-1.2-0.3c-2.6,0-4.5,1.8-4.5,4.4c0,2.9,0,5.7,0,8.6
		c0,1.5,0.2,1.7,1.8,1.4c0-2.4,0-4.8,0-7.3c0-1.5,0.5-2.2,1.4-2.2c1,0,1.4,0.7,1.4,2.1c0,7.5,0,15,0,22.5c0,0.4,0,0.8,0.1,1.2
		c0.9,0,1.7,0,2.5,0c0-0.4,0-0.8,0-1.1c0-3.5,0-7,0-10.5c0-0.3,0-0.7,0.1-1c0.1-0.7,0.6-1.1,1.4-1.1c0.7,0,1.2,0.4,1.3,1.1
		c0.1,0.3,0.1,0.7,0.1,1c0,3.5,0,7,0,10.6c0,0.3,0,0.7,0,1c0.9,0,1.7,0,2.6,0c0-0.4,0-0.8,0-1.2c0-7.5,0-14.9,0-22.4
		c0-0.4,0-0.8,0.1-1.1c0.1-0.7,0.6-1.1,1.4-1.1c0.7,0,1.2,0.5,1.3,1.2c0.1,0.4,0,0.8,0,1.2C759.8,157.4,759.8,159.7,759.8,162.2z
		 M749.1,141.9c0,2.1,1.7,3.9,3.8,3.9c2.1,0,4-1.8,4-3.9c0-2.1-1.7-3.9-3.9-3.9C750.9,138,749.1,139.8,749.1,141.9z"/>
	<path class="st2" d="M759.8,162.2c0-2.5,0-4.8,0-7.1c0-0.4,0-0.8,0-1.2c-0.1-0.8-0.6-1.2-1.3-1.2c-0.7,0-1.2,0.4-1.4,1.1
		c-0.1,0.4-0.1,0.7-0.1,1.1c0,7.5,0,14.9,0,22.4c0,0.4,0,0.7,0,1.2c-0.9,0-1.7,0-2.6,0c0-0.4,0-0.7,0-1c0-3.5,0-7,0-10.6
		c0-0.3,0-0.7-0.1-1c-0.1-0.7-0.6-1.1-1.3-1.1c-0.8,0-1.2,0.4-1.4,1.1c-0.1,0.3-0.1,0.7-0.1,1c0,3.5,0,7,0,10.5c0,0.3,0,0.7,0,1.1
		c-0.9,0-1.6,0-2.5,0c0-0.4-0.1-0.8-0.1-1.2c0-7.5,0-15,0-22.5c0-1.5-0.4-2.1-1.4-2.1c-1,0-1.4,0.7-1.4,2.2c0,2.4,0,4.8,0,7.3
		c-1.7,0.3-1.8,0.2-1.8-1.4c0-2.9,0-5.7,0-8.6c0-2.7,1.8-4.5,4.5-4.4c0.4,0,0.8,0.2,1.2,0.3c1.9,0.9,3.8,0.9,5.7,0.1
		c2.6-1.2,5.7,0.6,5.8,3.5c0.1,3.3,0.1,6.5,0,9.8C761.6,162.6,760.6,162,759.8,162.2z"/>
	<path class="st2" d="M749.1,141.9c0-2.1,1.8-3.9,4-3.9c2.1,0,3.9,1.8,3.9,3.9c0,2.1-1.8,3.9-4,3.9
		C750.9,145.8,749.1,144,749.1,141.9z"/>
</g>
<g>
	<path d="M781.5,135.3c0.1,0.1,0.3,0.1,0.4,0.2c4.1,1.1,6.1,5.1,4.6,9.1c-0.1,0.1-0.1,0.3-0.2,0.5c0.2,0.1,0.4,0.2,0.6,0.2
		c2.9,1,4.8,3.6,4.8,6.7c0,3.1,0,6.2,0,9.3c0,2.4-1.3,3.7-3.8,3.8c-0.2,0-0.5,0-0.9,0c0,0.4,0,0.7,0,1.1c0,4,0,7.9,0,11.9
		c0,2.4-1,3.4-3.4,3.4c-2.3,0-4.5,0-6.8,0c-2.4,0-3.4-1.1-3.4-3.4c0-3.9,0-7.9,0-11.8c0-0.3,0-0.7,0-1.2c-0.4,0-0.8,0-1.1,0
		c-2.1-0.1-3.5-1.4-3.5-3.5c0-2.9,0.1-5.8,0-8.7c-0.2-3.7,1.7-6.6,5.4-7.8c-0.2-0.5-0.4-1-0.5-1.6c-0.8-3.6,1.3-7,4.8-8
		c0.2-0.1,0.4-0.1,0.6-0.2C780,135.3,780.8,135.3,781.5,135.3z M787.2,162.2c0.8-0.2,1.8,0.4,1.8-0.9c0-3.3,0.1-6.5,0-9.8
		c-0.1-2.9-3.2-4.7-5.8-3.5c-1.9,0.9-3.8,0.8-5.7-0.1c-0.4-0.2-0.8-0.3-1.2-0.3c-2.6,0-4.5,1.8-4.5,4.4c0,2.9,0,5.7,0,8.6
		c0,1.5,0.2,1.7,1.8,1.4c0-2.4,0-4.8,0-7.3c0-1.5,0.5-2.2,1.4-2.2c1,0,1.4,0.7,1.4,2.1c0,7.5,0,15,0,22.5c0,0.4,0,0.8,0.1,1.2
		c0.9,0,1.7,0,2.5,0c0-0.4,0-0.8,0-1.1c0-3.5,0-7,0-10.5c0-0.3,0-0.7,0.1-1c0.1-0.7,0.6-1.1,1.4-1.1c0.7,0,1.2,0.4,1.3,1.1
		c0.1,0.3,0.1,0.7,0.1,1c0,3.5,0,7,0,10.6c0,0.3,0,0.7,0,1c0.9,0,1.7,0,2.6,0c0-0.4,0-0.8,0-1.2c0-7.5,0-14.9,0-22.4
		c0-0.4,0-0.8,0.1-1.1c0.1-0.7,0.6-1.1,1.4-1.1c0.7,0,1.2,0.5,1.3,1.2c0.1,0.4,0,0.8,0,1.2C787.2,157.4,787.2,159.7,787.2,162.2z
		 M776.5,142c0,2.1,1.7,3.9,3.8,3.9c2.1,0,4-1.8,4-3.9c0-2.1-1.7-3.9-3.9-3.9C778.3,138,776.5,139.8,776.5,142z"/>
	<path class="st2" d="M787.2,162.2c0-2.5,0-4.8,0-7.1c0-0.4,0-0.8,0-1.2c-0.1-0.8-0.6-1.2-1.3-1.2c-0.7,0-1.2,0.4-1.4,1.1
		c-0.1,0.4-0.1,0.7-0.1,1.1c0,7.5,0,14.9,0,22.4c0,0.4,0,0.7,0,1.2c-0.9,0-1.7,0-2.6,0c0-0.4,0-0.7,0-1c0-3.5,0-7,0-10.6
		c0-0.3,0-0.7-0.1-1c-0.1-0.7-0.6-1.1-1.3-1.1c-0.8,0-1.2,0.4-1.4,1.1c-0.1,0.3-0.1,0.7-0.1,1c0,3.5,0,7,0,10.5c0,0.3,0,0.7,0,1.1
		c-0.9,0-1.6,0-2.5,0c0-0.4-0.1-0.8-0.1-1.2c0-7.5,0-15,0-22.5c0-1.5-0.4-2.1-1.4-2.1c-1,0-1.4,0.7-1.4,2.2c0,2.4,0,4.8,0,7.3
		c-1.7,0.3-1.8,0.2-1.8-1.4c0-2.9,0-5.7,0-8.6c0-2.7,1.8-4.5,4.5-4.4c0.4,0,0.8,0.2,1.2,0.3c1.9,0.9,3.8,0.9,5.7,0.1
		c2.6-1.2,5.7,0.6,5.8,3.5c0.1,3.3,0.1,6.5,0,9.8C789,162.6,788,162,787.2,162.2z"/>
	<path class="st2" d="M776.5,142c0-2.1,1.8-3.9,4-3.9c2.1,0,3.9,1.8,3.9,3.9c0,2.1-1.8,3.9-4,3.9C778.2,145.8,776.5,144.1,776.5,142
		z"/>
</g>
<g>
	<path d="M809.2,135.2c0.1,0.1,0.3,0.1,0.4,0.2c4.1,1.1,6.1,5.1,4.6,9.1c-0.1,0.1-0.1,0.3-0.2,0.5c0.2,0.1,0.4,0.2,0.6,0.2
		c2.9,1,4.8,3.6,4.8,6.7c0,3.1,0,6.2,0,9.3c0,2.4-1.3,3.7-3.8,3.8c-0.2,0-0.5,0-0.9,0c0,0.4,0,0.7,0,1.1c0,4,0,7.9,0,11.9
		c0,2.4-1,3.4-3.4,3.4c-2.3,0-4.5,0-6.8,0c-2.4,0-3.4-1.1-3.4-3.4c0-3.9,0-7.9,0-11.8c0-0.3,0-0.7,0-1.2c-0.4,0-0.8,0-1.1,0
		c-2.1-0.1-3.5-1.4-3.5-3.5c0-2.9,0.1-5.8,0-8.7c-0.2-3.7,1.7-6.6,5.4-7.8c-0.2-0.5-0.4-1-0.5-1.6c-0.8-3.6,1.3-7,4.8-8
		c0.2-0.1,0.4-0.1,0.6-0.2C807.7,135.2,808.4,135.2,809.2,135.2z M814.8,162.2c0.8-0.2,1.8,0.4,1.8-0.9c0-3.3,0.1-6.5,0-9.8
		c-0.1-2.9-3.2-4.7-5.8-3.5c-1.9,0.9-3.8,0.8-5.7-0.1c-0.4-0.2-0.8-0.3-1.2-0.3c-2.6,0-4.5,1.8-4.5,4.4c0,2.9,0,5.7,0,8.6
		c0,1.5,0.2,1.7,1.8,1.4c0-2.4,0-4.8,0-7.3c0-1.5,0.5-2.2,1.4-2.2c1,0,1.4,0.7,1.4,2.1c0,7.5,0,15,0,22.5c0,0.4,0,0.8,0.1,1.2
		c0.9,0,1.7,0,2.5,0c0-0.4,0-0.8,0-1.1c0-3.5,0-7,0-10.5c0-0.3,0-0.7,0.1-1c0.1-0.7,0.6-1.1,1.4-1.1c0.7,0,1.2,0.4,1.3,1.1
		c0.1,0.3,0.1,0.7,0.1,1c0,3.5,0,7,0,10.6c0,0.3,0,0.7,0,1c0.9,0,1.7,0,2.6,0c0-0.4,0-0.8,0-1.2c0-7.5,0-14.9,0-22.4
		c0-0.4,0-0.8,0.1-1.1c0.1-0.7,0.6-1.1,1.4-1.1c0.7,0,1.2,0.5,1.3,1.2c0.1,0.4,0,0.8,0,1.2C814.8,157.4,814.8,159.7,814.8,162.2z
		 M804.1,141.9c0,2.1,1.7,3.9,3.8,3.9c2.1,0,4-1.8,4-3.9c0-2.1-1.7-3.9-3.9-3.9C805.9,138,804.1,139.8,804.1,141.9z"/>
	<path class="st2" d="M814.8,162.2c0-2.5,0-4.8,0-7.1c0-0.4,0-0.8,0-1.2c-0.1-0.8-0.6-1.2-1.3-1.2c-0.7,0-1.2,0.4-1.4,1.1
		c-0.1,0.4-0.1,0.7-0.1,1.1c0,7.5,0,14.9,0,22.4c0,0.4,0,0.7,0,1.2c-0.9,0-1.7,0-2.6,0c0-0.4,0-0.7,0-1c0-3.5,0-7,0-10.6
		c0-0.3,0-0.7-0.1-1c-0.1-0.7-0.6-1.1-1.3-1.1c-0.8,0-1.2,0.4-1.4,1.1c-0.1,0.3-0.1,0.7-0.1,1c0,3.5,0,7,0,10.5c0,0.3,0,0.7,0,1.1
		c-0.9,0-1.6,0-2.5,0c0-0.4-0.1-0.8-0.1-1.2c0-7.5,0-15,0-22.5c0-1.5-0.4-2.1-1.4-2.1c-1,0-1.4,0.7-1.4,2.2c0,2.4,0,4.8,0,7.3
		c-1.7,0.3-1.8,0.2-1.8-1.4c0-2.9,0-5.7,0-8.6c0-2.7,1.8-4.5,4.5-4.4c0.4,0,0.8,0.2,1.2,0.3c1.9,0.9,3.8,0.9,5.7,0.1
		c2.6-1.2,5.7,0.6,5.8,3.5c0.1,3.3,0.1,6.5,0,9.8C816.6,162.6,815.6,162,814.8,162.2z"/>
	<path class="st2" d="M804.1,141.9c0-2.1,1.8-3.9,4-3.9c2.1,0,3.9,1.8,3.9,3.9c0,2.1-1.8,3.9-4,3.9
		C805.9,145.8,804.1,144,804.1,141.9z"/>
</g>
<path d="M777.2,258.1"/>
<g>
	<path d="M698.2,190c0.1,0.1,0.3,0.1,0.4,0.2c4.1,1.1,6.1,5.1,4.6,9.1c-0.1,0.1-0.1,0.3-0.2,0.5c0.2,0.1,0.4,0.2,0.6,0.2
		c2.9,1,4.8,3.6,4.8,6.7c0,3.1,0,6.2,0,9.3c0,2.4-1.3,3.7-3.8,3.8c-0.2,0-0.5,0-0.9,0c0,0.4,0,0.7,0,1.1c0,4,0,7.9,0,11.9
		c0,2.4-1,3.4-3.4,3.4c-2.3,0-4.5,0-6.8,0c-2.4,0-3.4-1.1-3.4-3.4c0-3.9,0-7.9,0-11.8c0-0.3,0-0.7,0-1.2c-0.4,0-0.8,0-1.1,0
		c-2.1-0.1-3.5-1.4-3.5-3.5c0-2.9,0.1-5.8,0-8.7c-0.2-3.7,1.7-6.6,5.4-7.8c-0.2-0.5-0.4-1-0.5-1.6c-0.8-3.6,1.3-7,4.8-8
		c0.2-0.1,0.4-0.1,0.6-0.2C696.7,190,697.5,190,698.2,190z M703.9,216.9c0.8-0.2,1.8,0.4,1.8-0.9c0-3.3,0.1-6.5,0-9.8
		c-0.1-2.9-3.2-4.7-5.8-3.5c-1.9,0.9-3.8,0.8-5.7-0.1c-0.4-0.2-0.8-0.3-1.2-0.3c-2.6,0-4.5,1.8-4.5,4.4c0,2.9,0,5.7,0,8.6
		c0,1.5,0.2,1.7,1.8,1.4c0-2.4,0-4.8,0-7.3c0-1.5,0.5-2.2,1.4-2.2c1,0,1.4,0.7,1.4,2.1c0,7.5,0,15,0,22.5c0,0.4,0,0.8,0.1,1.2
		c0.9,0,1.7,0,2.5,0c0-0.4,0-0.8,0-1.1c0-3.5,0-7,0-10.5c0-0.3,0-0.7,0.1-1c0.1-0.7,0.6-1.1,1.4-1.1c0.7,0,1.2,0.4,1.3,1.1
		c0.1,0.3,0.1,0.7,0.1,1c0,3.5,0,7,0,10.6c0,0.3,0,0.7,0,1c0.9,0,1.7,0,2.6,0c0-0.4,0-0.8,0-1.2c0-7.5,0-14.9,0-22.4
		c0-0.4,0-0.8,0.1-1.1c0.1-0.7,0.6-1.1,1.4-1.1c0.7,0,1.2,0.5,1.3,1.2c0.1,0.4,0,0.8,0,1.2C703.9,212.1,703.9,214.5,703.9,216.9z
		 M693.2,196.7c0,2.1,1.7,3.9,3.8,3.9c2.1,0,4-1.8,4-3.9c0-2.1-1.7-3.9-3.9-3.9C695,192.8,693.2,194.5,693.2,196.7z"/>
	<path class="st2" d="M703.9,216.9c0-2.5,0-4.8,0-7.1c0-0.4,0-0.8,0-1.2c-0.1-0.8-0.6-1.2-1.3-1.2c-0.7,0-1.2,0.4-1.4,1.1
		c-0.1,0.4-0.1,0.7-0.1,1.1c0,7.5,0,14.9,0,22.4c0,0.4,0,0.7,0,1.2c-0.9,0-1.7,0-2.6,0c0-0.4,0-0.7,0-1c0-3.5,0-7,0-10.6
		c0-0.3,0-0.7-0.1-1c-0.1-0.7-0.6-1.1-1.3-1.1c-0.8,0-1.2,0.4-1.4,1.1c-0.1,0.3-0.1,0.7-0.1,1c0,3.5,0,7,0,10.5c0,0.3,0,0.7,0,1.1
		c-0.9,0-1.6,0-2.5,0c0-0.4-0.1-0.8-0.1-1.2c0-7.5,0-15,0-22.5c0-1.5-0.4-2.1-1.4-2.1c-1,0-1.4,0.7-1.4,2.2c0,2.4,0,4.8,0,7.3
		c-1.7,0.3-1.8,0.2-1.8-1.4c0-2.9,0-5.7,0-8.6c0-2.7,1.8-4.5,4.5-4.4c0.4,0,0.8,0.2,1.2,0.3c1.9,0.9,3.8,0.9,5.7,0.1
		c2.6-1.2,5.7,0.6,5.8,3.5c0.1,3.3,0.1,6.5,0,9.8C705.7,217.4,704.7,216.8,703.9,216.9z"/>
	<path class="st2" d="M693.2,196.7c0-2.1,1.8-3.9,4-3.9c2.1,0,3.9,1.8,3.9,3.9c0,2.1-1.8,3.9-4,3.9
		C694.9,200.6,693.2,198.8,693.2,196.7z"/>
</g>
<g>
	<path d="M725.6,190c0.1,0.1,0.3,0.1,0.4,0.2c4.1,1.1,6.1,5.1,4.6,9.1c-0.1,0.1-0.1,0.3-0.2,0.5c0.2,0.1,0.4,0.2,0.6,0.2
		c2.9,1,4.8,3.6,4.8,6.7c0,3.1,0,6.2,0,9.3c0,2.4-1.3,3.7-3.8,3.8c-0.2,0-0.5,0-0.9,0c0,0.4,0,0.7,0,1.1c0,4,0,7.9,0,11.9
		c0,2.4-1,3.4-3.4,3.4c-2.3,0-4.5,0-6.8,0c-2.4,0-3.4-1.1-3.4-3.4c0-3.9,0-7.9,0-11.8c0-0.3,0-0.7,0-1.2c-0.4,0-0.8,0-1.1,0
		c-2.1-0.1-3.5-1.4-3.5-3.5c0-2.9,0.1-5.8,0-8.7c-0.2-3.7,1.7-6.6,5.4-7.8c-0.2-0.5-0.4-1-0.5-1.6c-0.8-3.6,1.3-7,4.8-8
		c0.2-0.1,0.4-0.1,0.6-0.2C724.1,190,724.8,190,725.6,190z M731.3,217c0.8-0.2,1.8,0.4,1.8-0.9c0-3.3,0.1-6.5,0-9.8
		c-0.1-2.9-3.2-4.7-5.8-3.5c-1.9,0.9-3.8,0.8-5.7-0.1c-0.4-0.2-0.8-0.3-1.2-0.3c-2.6,0-4.5,1.8-4.5,4.4c0,2.9,0,5.7,0,8.6
		c0,1.5,0.2,1.7,1.8,1.4c0-2.4,0-4.8,0-7.3c0-1.5,0.5-2.2,1.4-2.2c1,0,1.4,0.7,1.4,2.1c0,7.5,0,15,0,22.5c0,0.4,0,0.8,0.1,1.2
		c0.9,0,1.7,0,2.5,0c0-0.4,0-0.8,0-1.1c0-3.5,0-7,0-10.5c0-0.3,0-0.7,0.1-1c0.1-0.7,0.6-1.1,1.4-1.1c0.7,0,1.2,0.4,1.3,1.1
		c0.1,0.3,0.1,0.7,0.1,1c0,3.5,0,7,0,10.6c0,0.3,0,0.7,0,1c0.9,0,1.7,0,2.6,0c0-0.4,0-0.8,0-1.2c0-7.5,0-14.9,0-22.4
		c0-0.4,0-0.8,0.1-1.1c0.1-0.7,0.6-1.1,1.4-1.1c0.7,0,1.2,0.5,1.3,1.2c0.1,0.4,0,0.8,0,1.2C731.3,212.2,731.3,214.5,731.3,217z
		 M720.5,196.7c0,2.1,1.7,3.9,3.8,3.9c2.1,0,4-1.8,4-3.9c0-2.1-1.7-3.9-3.9-3.9C722.3,192.8,720.6,194.6,720.5,196.7z"/>
	<path class="st2" d="M731.3,217c0-2.5,0-4.8,0-7.1c0-0.4,0-0.8,0-1.2c-0.1-0.8-0.6-1.2-1.3-1.2c-0.7,0-1.2,0.4-1.4,1.1
		c-0.1,0.4-0.1,0.7-0.1,1.1c0,7.5,0,14.9,0,22.4c0,0.4,0,0.7,0,1.2c-0.9,0-1.7,0-2.6,0c0-0.4,0-0.7,0-1c0-3.5,0-7,0-10.6
		c0-0.3,0-0.7-0.1-1c-0.1-0.7-0.6-1.1-1.3-1.1c-0.8,0-1.2,0.4-1.4,1.1c-0.1,0.3-0.1,0.7-0.1,1c0,3.5,0,7,0,10.5c0,0.3,0,0.7,0,1.1
		c-0.9,0-1.6,0-2.5,0c0-0.4-0.1-0.8-0.1-1.2c0-7.5,0-15,0-22.5c0-1.5-0.4-2.1-1.4-2.1c-1,0-1.4,0.7-1.4,2.2c0,2.4,0,4.8,0,7.3
		c-1.7,0.3-1.8,0.2-1.8-1.4c0-2.9,0-5.7,0-8.6c0-2.7,1.8-4.5,4.5-4.4c0.4,0,0.8,0.2,1.2,0.3c1.9,0.9,3.8,0.9,5.7,0.1
		c2.6-1.2,5.7,0.6,5.8,3.5c0.1,3.3,0.1,6.5,0,9.8C733.1,217.4,732,216.8,731.3,217z"/>
	<path class="st2" d="M720.5,196.7c0-2.1,1.8-3.9,4-3.9c2.1,0,3.9,1.8,3.9,3.9c0,2.1-1.8,3.9-4,3.9
		C722.3,200.6,720.5,198.8,720.5,196.7z"/>
</g>
<g>
	<path d="M754.2,190.1c0.1,0.1,0.3,0.1,0.4,0.2c4.1,1.1,6.1,5.1,4.6,9.1c-0.1,0.1-0.1,0.3-0.2,0.5c0.2,0.1,0.4,0.2,0.6,0.2
		c2.9,1,4.8,3.6,4.8,6.7c0,3.1,0,6.2,0,9.3c0,2.4-1.3,3.7-3.8,3.8c-0.2,0-0.5,0-0.9,0c0,0.4,0,0.7,0,1.1c0,4,0,7.9,0,11.9
		c0,2.4-1,3.4-3.4,3.4c-2.3,0-4.5,0-6.8,0c-2.4,0-3.4-1.1-3.4-3.4c0-3.9,0-7.9,0-11.8c0-0.3,0-0.7,0-1.2c-0.4,0-0.8,0-1.1,0
		c-2.1-0.1-3.5-1.4-3.5-3.5c0-2.9,0.1-5.8,0-8.7c-0.2-3.7,1.7-6.6,5.4-7.8c-0.2-0.5-0.4-1-0.5-1.6c-0.8-3.6,1.3-7,4.8-8
		c0.2-0.1,0.4-0.1,0.6-0.2C752.7,190.1,753.4,190.1,754.2,190.1z M759.8,217c0.8-0.2,1.8,0.4,1.8-0.9c0-3.3,0.1-6.5,0-9.8
		c-0.1-2.9-3.2-4.7-5.8-3.5c-1.9,0.9-3.8,0.8-5.7-0.1c-0.4-0.2-0.8-0.3-1.2-0.3c-2.6,0-4.5,1.8-4.5,4.4c0,2.9,0,5.7,0,8.6
		c0,1.5,0.2,1.7,1.8,1.4c0-2.4,0-4.8,0-7.3c0-1.5,0.5-2.2,1.4-2.2c1,0,1.4,0.7,1.4,2.1c0,7.5,0,15,0,22.5c0,0.4,0,0.8,0.1,1.2
		c0.9,0,1.7,0,2.5,0c0-0.4,0-0.8,0-1.1c0-3.5,0-7,0-10.5c0-0.3,0-0.7,0.1-1c0.1-0.7,0.6-1.1,1.4-1.1c0.7,0,1.2,0.4,1.3,1.1
		c0.1,0.3,0.1,0.7,0.1,1c0,3.5,0,7,0,10.6c0,0.3,0,0.7,0,1c0.9,0,1.7,0,2.6,0c0-0.4,0-0.8,0-1.2c0-7.5,0-14.9,0-22.4
		c0-0.4,0-0.8,0.1-1.1c0.1-0.7,0.6-1.1,1.4-1.1c0.7,0,1.2,0.5,1.3,1.2c0.1,0.4,0,0.8,0,1.2C759.8,212.2,759.8,214.6,759.8,217z
		 M749.1,196.8c0,2.1,1.7,3.9,3.8,3.9c2.1,0,4-1.8,4-3.9c0-2.1-1.7-3.9-3.9-3.9C750.9,192.9,749.1,194.6,749.1,196.8z"/>
	<path class="st2" d="M759.8,217c0-2.5,0-4.8,0-7.1c0-0.4,0-0.8,0-1.2c-0.1-0.8-0.6-1.2-1.3-1.2c-0.7,0-1.2,0.4-1.4,1.1
		c-0.1,0.4-0.1,0.7-0.1,1.1c0,7.5,0,14.9,0,22.4c0,0.4,0,0.7,0,1.2c-0.9,0-1.7,0-2.6,0c0-0.4,0-0.7,0-1c0-3.5,0-7,0-10.6
		c0-0.3,0-0.7-0.1-1c-0.1-0.7-0.6-1.1-1.3-1.1c-0.8,0-1.2,0.4-1.4,1.1c-0.1,0.3-0.1,0.7-0.1,1c0,3.5,0,7,0,10.5c0,0.3,0,0.7,0,1.1
		c-0.9,0-1.6,0-2.5,0c0-0.4-0.1-0.8-0.1-1.2c0-7.5,0-15,0-22.5c0-1.5-0.4-2.1-1.4-2.1c-1,0-1.4,0.7-1.4,2.2c0,2.4,0,4.8,0,7.3
		c-1.7,0.3-1.8,0.2-1.8-1.4c0-2.9,0-5.7,0-8.6c0-2.7,1.8-4.5,4.5-4.4c0.4,0,0.8,0.2,1.2,0.3c1.9,0.9,3.8,0.9,5.7,0.1
		c2.6-1.2,5.7,0.6,5.8,3.5c0.1,3.3,0.1,6.5,0,9.8C761.6,217.5,760.6,216.9,759.8,217z"/>
	<path class="st2" d="M749.1,196.8c0-2.1,1.8-3.9,4-3.9c2.1,0,3.9,1.8,3.9,3.9c0,2.1-1.8,3.9-4,3.9
		C750.9,200.6,749.1,198.9,749.1,196.8z"/>
</g>
<g>
	<path d="M781.5,190.1c0.1,0.1,0.3,0.1,0.4,0.2c4.1,1.1,6.1,5.1,4.6,9.1c-0.1,0.1-0.1,0.3-0.2,0.5c0.2,0.1,0.4,0.2,0.6,0.2
		c2.9,1,4.8,3.6,4.8,6.7c0,3.1,0,6.2,0,9.3c0,2.4-1.3,3.7-3.8,3.8c-0.2,0-0.5,0-0.9,0c0,0.4,0,0.7,0,1.1c0,4,0,7.9,0,11.9
		c0,2.4-1,3.4-3.4,3.4c-2.3,0-4.5,0-6.8,0c-2.4,0-3.4-1.1-3.4-3.4c0-3.9,0-7.9,0-11.8c0-0.3,0-0.7,0-1.2c-0.4,0-0.8,0-1.1,0
		c-2.1-0.1-3.5-1.4-3.5-3.5c0-2.9,0.1-5.8,0-8.7c-0.2-3.7,1.7-6.6,5.4-7.8c-0.2-0.5-0.4-1-0.5-1.6c-0.8-3.6,1.3-7,4.8-8
		c0.2-0.1,0.4-0.1,0.6-0.2C780,190.1,780.8,190.1,781.5,190.1z M787.2,217.1c0.8-0.2,1.8,0.4,1.8-0.9c0-3.3,0.1-6.5,0-9.8
		c-0.1-2.9-3.2-4.7-5.8-3.5c-1.9,0.9-3.8,0.8-5.7-0.1c-0.4-0.2-0.8-0.3-1.2-0.3c-2.6,0-4.5,1.8-4.5,4.4c0,2.9,0,5.7,0,8.6
		c0,1.5,0.2,1.7,1.8,1.4c0-2.4,0-4.8,0-7.3c0-1.5,0.5-2.2,1.4-2.2c1,0,1.4,0.7,1.4,2.1c0,7.5,0,15,0,22.5c0,0.4,0,0.8,0.1,1.2
		c0.9,0,1.7,0,2.5,0c0-0.4,0-0.8,0-1.1c0-3.5,0-7,0-10.5c0-0.3,0-0.7,0.1-1c0.1-0.7,0.6-1.1,1.4-1.1c0.7,0,1.2,0.4,1.3,1.1
		c0.1,0.3,0.1,0.7,0.1,1c0,3.5,0,7,0,10.6c0,0.3,0,0.7,0,1c0.9,0,1.7,0,2.6,0c0-0.4,0-0.8,0-1.2c0-7.5,0-14.9,0-22.4
		c0-0.4,0-0.8,0.1-1.1c0.1-0.7,0.6-1.1,1.4-1.1c0.7,0,1.2,0.5,1.3,1.2c0.1,0.4,0,0.8,0,1.2C787.2,212.3,787.2,214.6,787.2,217.1z
		 M776.5,196.8c0,2.1,1.7,3.9,3.8,3.9c2.1,0,4-1.8,4-3.9c0-2.1-1.7-3.9-3.9-3.9C778.3,192.9,776.5,194.7,776.5,196.8z"/>
	<path class="st2" d="M787.2,217.1c0-2.5,0-4.8,0-7.1c0-0.4,0-0.8,0-1.2c-0.1-0.8-0.6-1.2-1.3-1.2c-0.7,0-1.2,0.4-1.4,1.1
		c-0.1,0.4-0.1,0.7-0.1,1.1c0,7.5,0,14.9,0,22.4c0,0.4,0,0.7,0,1.2c-0.9,0-1.7,0-2.6,0c0-0.4,0-0.7,0-1c0-3.5,0-7,0-10.6
		c0-0.3,0-0.7-0.1-1c-0.1-0.7-0.6-1.1-1.3-1.1c-0.8,0-1.2,0.4-1.4,1.1c-0.1,0.3-0.1,0.7-0.1,1c0,3.5,0,7,0,10.5c0,0.3,0,0.7,0,1.1
		c-0.9,0-1.6,0-2.5,0c0-0.4-0.1-0.8-0.1-1.2c0-7.5,0-15,0-22.5c0-1.5-0.4-2.1-1.4-2.1c-1,0-1.4,0.7-1.4,2.2c0,2.4,0,4.8,0,7.3
		c-1.7,0.3-1.8,0.2-1.8-1.4c0-2.9,0-5.7,0-8.6c0-2.7,1.8-4.5,4.5-4.4c0.4,0,0.8,0.2,1.2,0.3c1.9,0.9,3.8,0.9,5.7,0.1
		c2.6-1.2,5.7,0.6,5.8,3.5c0.1,3.3,0.1,6.5,0,9.8C789,217.5,788,216.9,787.2,217.1z"/>
	<path class="st2" d="M776.5,196.8c0-2.1,1.8-3.9,4-3.9c2.1,0,3.9,1.8,3.9,3.9c0,2.1-1.8,3.9-4,3.9
		C778.2,200.7,776.5,198.9,776.5,196.8z"/>
</g>
<g>
	<path d="M809.2,190.1c0.1,0.1,0.3,0.1,0.4,0.2c4.1,1.1,6.1,5.1,4.6,9.1c-0.1,0.1-0.1,0.3-0.2,0.5c0.2,0.1,0.4,0.2,0.6,0.2
		c2.9,1,4.8,3.6,4.8,6.7c0,3.1,0,6.2,0,9.3c0,2.4-1.3,3.7-3.8,3.8c-0.2,0-0.5,0-0.9,0c0,0.4,0,0.7,0,1.1c0,4,0,7.9,0,11.9
		c0,2.4-1,3.4-3.4,3.4c-2.3,0-4.5,0-6.8,0c-2.4,0-3.4-1.1-3.4-3.4c0-3.9,0-7.9,0-11.8c0-0.3,0-0.7,0-1.2c-0.4,0-0.8,0-1.1,0
		c-2.1-0.1-3.5-1.4-3.5-3.5c0-2.9,0.1-5.8,0-8.7c-0.2-3.7,1.7-6.6,5.4-7.8c-0.2-0.5-0.4-1-0.5-1.6c-0.8-3.6,1.3-7,4.8-8
		c0.2-0.1,0.4-0.1,0.6-0.2C807.7,190.1,808.4,190.1,809.2,190.1z M814.8,217c0.8-0.2,1.8,0.4,1.8-0.9c0-3.3,0.1-6.5,0-9.8
		c-0.1-2.9-3.2-4.7-5.8-3.5c-1.9,0.9-3.8,0.8-5.7-0.1c-0.4-0.2-0.8-0.3-1.2-0.3c-2.6,0-4.5,1.8-4.5,4.4c0,2.9,0,5.7,0,8.6
		c0,1.5,0.2,1.7,1.8,1.4c0-2.4,0-4.8,0-7.3c0-1.5,0.5-2.2,1.4-2.2c1,0,1.4,0.7,1.4,2.1c0,7.5,0,15,0,22.5c0,0.4,0,0.8,0.1,1.2
		c0.9,0,1.7,0,2.5,0c0-0.4,0-0.8,0-1.1c0-3.5,0-7,0-10.5c0-0.3,0-0.7,0.1-1c0.1-0.7,0.6-1.1,1.4-1.1c0.7,0,1.2,0.4,1.3,1.1
		c0.1,0.3,0.1,0.7,0.1,1c0,3.5,0,7,0,10.6c0,0.3,0,0.7,0,1c0.9,0,1.7,0,2.6,0c0-0.4,0-0.8,0-1.2c0-7.5,0-14.9,0-22.4
		c0-0.4,0-0.8,0.1-1.1c0.1-0.7,0.6-1.1,1.4-1.1c0.7,0,1.2,0.5,1.3,1.2c0.1,0.4,0,0.8,0,1.2C814.8,212.2,814.8,214.6,814.8,217z
		 M804.1,196.8c0,2.1,1.7,3.9,3.8,3.9c2.1,0,4-1.8,4-3.9c0-2.1-1.7-3.9-3.9-3.9C805.9,192.9,804.1,194.6,804.1,196.8z"/>
	<path class="st2" d="M814.8,217c0-2.5,0-4.8,0-7.1c0-0.4,0-0.8,0-1.2c-0.1-0.8-0.6-1.2-1.3-1.2c-0.7,0-1.2,0.4-1.4,1.1
		c-0.1,0.4-0.1,0.7-0.1,1.1c0,7.5,0,14.9,0,22.4c0,0.4,0,0.7,0,1.2c-0.9,0-1.7,0-2.6,0c0-0.4,0-0.7,0-1c0-3.5,0-7,0-10.6
		c0-0.3,0-0.7-0.1-1c-0.1-0.7-0.6-1.1-1.3-1.1c-0.8,0-1.2,0.4-1.4,1.1c-0.1,0.3-0.1,0.7-0.1,1c0,3.5,0,7,0,10.5c0,0.3,0,0.7,0,1.1
		c-0.9,0-1.6,0-2.5,0c0-0.4-0.1-0.8-0.1-1.2c0-7.5,0-15,0-22.5c0-1.5-0.4-2.1-1.4-2.1c-1,0-1.4,0.7-1.4,2.2c0,2.4,0,4.8,0,7.3
		c-1.7,0.3-1.8,0.2-1.8-1.4c0-2.9,0-5.7,0-8.6c0-2.7,1.8-4.5,4.5-4.4c0.4,0,0.8,0.2,1.2,0.3c1.9,0.9,3.8,0.9,5.7,0.1
		c2.6-1.2,5.7,0.6,5.8,3.5c0.1,3.3,0.1,6.5,0,9.8C816.6,217.5,815.6,216.9,814.8,217z"/>
	<path class="st2" d="M804.1,196.8c0-2.1,1.8-3.9,4-3.9c2.1,0,3.9,1.8,3.9,3.9c0,2.1-1.8,3.9-4,3.9
		C805.9,200.7,804.1,198.9,804.1,196.8z"/>
</g>
<path d="M777.2,313.4"/>
<g>
	<path d="M698.2,245.2c0.1,0.1,0.3,0.1,0.4,0.2c4.1,1.1,6.1,5.1,4.6,9.1c-0.1,0.1-0.1,0.3-0.2,0.5c0.2,0.1,0.4,0.2,0.6,0.2
		c2.9,1,4.8,3.6,4.8,6.7c0,3.1,0,6.2,0,9.3c0,2.4-1.3,3.7-3.8,3.8c-0.2,0-0.5,0-0.9,0c0,0.4,0,0.7,0,1.1c0,4,0,7.9,0,11.9
		c0,2.4-1,3.4-3.4,3.4c-2.3,0-4.5,0-6.8,0c-2.4,0-3.4-1.1-3.4-3.4c0-3.9,0-7.9,0-11.8c0-0.3,0-0.7,0-1.2c-0.4,0-0.8,0-1.1,0
		c-2.1-0.1-3.5-1.4-3.5-3.5c0-2.9,0.1-5.8,0-8.7c-0.2-3.7,1.7-6.6,5.4-7.8c-0.2-0.5-0.4-1-0.5-1.6c-0.8-3.6,1.3-7,4.8-8
		c0.2-0.1,0.4-0.1,0.6-0.2C696.7,245.2,697.5,245.2,698.2,245.2z M703.9,272.2c0.8-0.2,1.8,0.4,1.8-0.9c0-3.3,0.1-6.5,0-9.8
		c-0.1-2.9-3.2-4.7-5.8-3.5c-1.9,0.9-3.8,0.8-5.7-0.1c-0.4-0.2-0.8-0.3-1.2-0.3c-2.6,0-4.5,1.8-4.5,4.4c0,2.9,0,5.7,0,8.6
		c0,1.5,0.2,1.7,1.8,1.4c0-2.4,0-4.8,0-7.3c0-1.5,0.5-2.2,1.4-2.2c1,0,1.4,0.7,1.4,2.1c0,7.5,0,15,0,22.5c0,0.4,0,0.8,0.1,1.2
		c0.9,0,1.7,0,2.5,0c0-0.4,0-0.8,0-1.1c0-3.5,0-7,0-10.5c0-0.3,0-0.7,0.1-1c0.1-0.7,0.6-1.1,1.4-1.1c0.7,0,1.2,0.4,1.3,1.1
		c0.1,0.3,0.1,0.7,0.1,1c0,3.5,0,7,0,10.6c0,0.3,0,0.7,0,1c0.9,0,1.7,0,2.6,0c0-0.4,0-0.8,0-1.2c0-7.5,0-14.9,0-22.4
		c0-0.4,0-0.8,0.1-1.1c0.1-0.7,0.6-1.1,1.4-1.1c0.7,0,1.2,0.5,1.3,1.2c0.1,0.4,0,0.8,0,1.2C703.9,267.4,703.9,269.7,703.9,272.2z
		 M693.2,251.9c0,2.1,1.7,3.9,3.8,3.9c2.1,0,4-1.8,4-3.9c0-2.1-1.7-3.9-3.9-3.9C695,248,693.2,249.8,693.2,251.9z"/>
	<path class="st2" d="M703.9,272.2c0-2.5,0-4.8,0-7.1c0-0.4,0-0.8,0-1.2c-0.1-0.8-0.6-1.2-1.3-1.2c-0.7,0-1.2,0.4-1.4,1.1
		c-0.1,0.4-0.1,0.7-0.1,1.1c0,7.5,0,14.9,0,22.4c0,0.4,0,0.7,0,1.2c-0.9,0-1.7,0-2.6,0c0-0.4,0-0.7,0-1c0-3.5,0-7,0-10.6
		c0-0.3,0-0.7-0.1-1c-0.1-0.7-0.6-1.1-1.3-1.1c-0.8,0-1.2,0.4-1.4,1.1c-0.1,0.3-0.1,0.7-0.1,1c0,3.5,0,7,0,10.5c0,0.3,0,0.7,0,1.1
		c-0.9,0-1.6,0-2.5,0c0-0.4-0.1-0.8-0.1-1.2c0-7.5,0-15,0-22.5c0-1.5-0.4-2.1-1.4-2.1c-1,0-1.4,0.7-1.4,2.2c0,2.4,0,4.8,0,7.3
		c-1.7,0.3-1.8,0.2-1.8-1.4c0-2.9,0-5.7,0-8.6c0-2.7,1.8-4.5,4.5-4.4c0.4,0,0.8,0.2,1.2,0.3c1.9,0.9,3.8,0.9,5.7,0.1
		c2.6-1.2,5.7,0.6,5.8,3.5c0.1,3.3,0.1,6.5,0,9.8C705.7,272.6,704.7,272,703.9,272.2z"/>
	<path class="st2" d="M693.2,251.9c0-2.1,1.8-3.9,4-3.9c2.1,0,3.9,1.8,3.9,3.9c0,2.1-1.8,3.9-4,3.9
		C694.9,255.8,693.2,254,693.2,251.9z"/>
</g>
<g>
	<path d="M725.6,245.3c0.1,0.1,0.3,0.1,0.4,0.2c4.1,1.1,6.1,5.1,4.6,9.1c-0.1,0.1-0.1,0.3-0.2,0.5c0.2,0.1,0.4,0.2,0.6,0.2
		c2.9,1,4.8,3.6,4.8,6.7c0,3.1,0,6.2,0,9.3c0,2.4-1.3,3.7-3.8,3.8c-0.2,0-0.5,0-0.9,0c0,0.4,0,0.7,0,1.1c0,4,0,7.9,0,11.9
		c0,2.4-1,3.4-3.4,3.4c-2.3,0-4.5,0-6.8,0c-2.4,0-3.4-1.1-3.4-3.4c0-3.9,0-7.9,0-11.8c0-0.3,0-0.7,0-1.2c-0.4,0-0.8,0-1.1,0
		c-2.1-0.1-3.5-1.4-3.5-3.5c0-2.9,0.1-5.8,0-8.7c-0.2-3.7,1.7-6.6,5.4-7.8c-0.2-0.5-0.4-1-0.5-1.6c-0.8-3.6,1.3-7,4.8-8
		c0.2-0.1,0.4-0.1,0.6-0.2C724.1,245.3,724.8,245.3,725.6,245.3z M731.3,272.2c0.8-0.2,1.8,0.4,1.8-0.9c0-3.3,0.1-6.5,0-9.8
		c-0.1-2.9-3.2-4.7-5.8-3.5c-1.9,0.9-3.8,0.8-5.7-0.1c-0.4-0.2-0.8-0.3-1.2-0.3c-2.6,0-4.5,1.8-4.5,4.4c0,2.9,0,5.7,0,8.6
		c0,1.5,0.2,1.7,1.8,1.4c0-2.4,0-4.8,0-7.3c0-1.5,0.5-2.2,1.4-2.2c1,0,1.4,0.7,1.4,2.1c0,7.5,0,15,0,22.5c0,0.4,0,0.8,0.1,1.2
		c0.9,0,1.7,0,2.5,0c0-0.4,0-0.8,0-1.1c0-3.5,0-7,0-10.5c0-0.3,0-0.7,0.1-1c0.1-0.7,0.6-1.1,1.4-1.1c0.7,0,1.2,0.4,1.3,1.1
		c0.1,0.3,0.1,0.7,0.1,1c0,3.5,0,7,0,10.6c0,0.3,0,0.7,0,1c0.9,0,1.7,0,2.6,0c0-0.4,0-0.8,0-1.2c0-7.5,0-14.9,0-22.4
		c0-0.4,0-0.8,0.1-1.1c0.1-0.7,0.6-1.1,1.4-1.1c0.7,0,1.2,0.5,1.3,1.2c0.1,0.4,0,0.8,0,1.2C731.3,267.4,731.3,269.8,731.3,272.2z
		 M720.5,252c0,2.1,1.7,3.9,3.8,3.9c2.1,0,4-1.8,4-3.9c0-2.1-1.7-3.9-3.9-3.9C722.3,248.1,720.6,249.8,720.5,252z"/>
	<path class="st2" d="M731.3,272.2c0-2.5,0-4.8,0-7.1c0-0.4,0-0.8,0-1.2c-0.1-0.8-0.6-1.2-1.3-1.2c-0.7,0-1.2,0.4-1.4,1.1
		c-0.1,0.4-0.1,0.7-0.1,1.1c0,7.5,0,14.9,0,22.4c0,0.4,0,0.7,0,1.2c-0.9,0-1.7,0-2.6,0c0-0.4,0-0.7,0-1c0-3.5,0-7,0-10.6
		c0-0.3,0-0.7-0.1-1c-0.1-0.7-0.6-1.1-1.3-1.1c-0.8,0-1.2,0.4-1.4,1.1c-0.1,0.3-0.1,0.7-0.1,1c0,3.5,0,7,0,10.5c0,0.3,0,0.7,0,1.1
		c-0.9,0-1.6,0-2.5,0c0-0.4-0.1-0.8-0.1-1.2c0-7.5,0-15,0-22.5c0-1.5-0.4-2.1-1.4-2.1c-1,0-1.4,0.7-1.4,2.2c0,2.4,0,4.8,0,7.3
		c-1.7,0.3-1.8,0.2-1.8-1.4c0-2.9,0-5.7,0-8.6c0-2.7,1.8-4.5,4.5-4.4c0.4,0,0.8,0.2,1.2,0.3c1.9,0.9,3.8,0.9,5.7,0.1
		c2.6-1.2,5.7,0.6,5.8,3.5c0.1,3.3,0.1,6.5,0,9.8C733.1,272.6,732,272.1,731.3,272.2z"/>
	<path class="st2" d="M720.5,252c0-2.1,1.8-3.9,4-3.9c2.1,0,3.9,1.8,3.9,3.9c0,2.1-1.8,3.9-4,3.9C722.3,255.8,720.5,254.1,720.5,252
		z"/>
</g>
<g>
	<path d="M754.2,245.3c0.1,0.1,0.3,0.1,0.4,0.2c4.1,1.1,6.1,5.1,4.6,9.1c-0.1,0.1-0.1,0.3-0.2,0.5c0.2,0.1,0.4,0.2,0.6,0.2
		c2.9,1,4.8,3.6,4.8,6.7c0,3.1,0,6.2,0,9.3c0,2.4-1.3,3.7-3.8,3.8c-0.2,0-0.5,0-0.9,0c0,0.4,0,0.7,0,1.1c0,4,0,7.9,0,11.9
		c0,2.4-1,3.4-3.4,3.4c-2.3,0-4.5,0-6.8,0c-2.4,0-3.4-1.1-3.4-3.4c0-3.9,0-7.9,0-11.8c0-0.3,0-0.7,0-1.2c-0.4,0-0.8,0-1.1,0
		c-2.1-0.1-3.5-1.4-3.5-3.5c0-2.9,0.1-5.8,0-8.7c-0.2-3.7,1.7-6.6,5.4-7.8c-0.2-0.5-0.4-1-0.5-1.6c-0.8-3.6,1.3-7,4.8-8
		c0.2-0.1,0.4-0.1,0.6-0.2C752.7,245.3,753.4,245.3,754.2,245.3z M759.8,272.3c0.8-0.2,1.8,0.4,1.8-0.9c0-3.3,0.1-6.5,0-9.8
		c-0.1-2.9-3.2-4.7-5.8-3.5c-1.9,0.9-3.8,0.8-5.7-0.1c-0.4-0.2-0.8-0.3-1.2-0.3c-2.6,0-4.5,1.8-4.5,4.4c0,2.9,0,5.7,0,8.6
		c0,1.5,0.2,1.7,1.8,1.4c0-2.4,0-4.8,0-7.3c0-1.5,0.5-2.2,1.4-2.2c1,0,1.4,0.7,1.4,2.1c0,7.5,0,15,0,22.5c0,0.4,0,0.8,0.1,1.2
		c0.9,0,1.7,0,2.5,0c0-0.4,0-0.8,0-1.1c0-3.5,0-7,0-10.5c0-0.3,0-0.7,0.1-1c0.1-0.7,0.6-1.1,1.4-1.1c0.7,0,1.2,0.4,1.3,1.1
		c0.1,0.3,0.1,0.7,0.1,1c0,3.5,0,7,0,10.6c0,0.3,0,0.7,0,1c0.9,0,1.7,0,2.6,0c0-0.4,0-0.8,0-1.2c0-7.5,0-14.9,0-22.4
		c0-0.4,0-0.8,0.1-1.1c0.1-0.7,0.6-1.1,1.4-1.1c0.7,0,1.2,0.5,1.3,1.2c0.1,0.4,0,0.8,0,1.2C759.8,267.5,759.8,269.8,759.8,272.3z
		 M749.1,252c0,2.1,1.7,3.9,3.8,3.9c2.1,0,4-1.8,4-3.9c0-2.1-1.7-3.9-3.9-3.9C750.9,248.1,749.1,249.9,749.1,252z"/>
	<path class="st2" d="M759.8,272.3c0-2.5,0-4.8,0-7.1c0-0.4,0-0.8,0-1.2c-0.1-0.8-0.6-1.2-1.3-1.2c-0.7,0-1.2,0.4-1.4,1.1
		c-0.1,0.4-0.1,0.7-0.1,1.1c0,7.5,0,14.9,0,22.4c0,0.4,0,0.7,0,1.2c-0.9,0-1.7,0-2.6,0c0-0.4,0-0.7,0-1c0-3.5,0-7,0-10.6
		c0-0.3,0-0.7-0.1-1c-0.1-0.7-0.6-1.1-1.3-1.1c-0.8,0-1.2,0.4-1.4,1.1c-0.1,0.3-0.1,0.7-0.1,1c0,3.5,0,7,0,10.5c0,0.3,0,0.7,0,1.1
		c-0.9,0-1.6,0-2.5,0c0-0.4-0.1-0.8-0.1-1.2c0-7.5,0-15,0-22.5c0-1.5-0.4-2.1-1.4-2.1c-1,0-1.4,0.7-1.4,2.2c0,2.4,0,4.8,0,7.3
		c-1.7,0.3-1.8,0.2-1.8-1.4c0-2.9,0-5.7,0-8.6c0-2.7,1.8-4.5,4.5-4.4c0.4,0,0.8,0.2,1.2,0.3c1.9,0.9,3.8,0.9,5.7,0.1
		c2.6-1.2,5.7,0.6,5.8,3.5c0.1,3.3,0.1,6.5,0,9.8C761.6,272.7,760.6,272.1,759.8,272.3z"/>
	<path class="st2" d="M749.1,252c0-2.1,1.8-3.9,4-3.9c2.1,0,3.9,1.8,3.9,3.9c0,2.1-1.8,3.9-4,3.9C750.9,255.9,749.1,254.1,749.1,252
		z"/>
</g>
<g>
	<path d="M781.5,245.4c0.1,0.1,0.3,0.1,0.4,0.2c4.1,1.1,6.1,5.1,4.6,9.1c-0.1,0.1-0.1,0.3-0.2,0.5c0.2,0.1,0.4,0.2,0.6,0.2
		c2.9,1,4.8,3.6,4.8,6.7c0,3.1,0,6.2,0,9.3c0,2.4-1.3,3.7-3.8,3.8c-0.2,0-0.5,0-0.9,0c0,0.4,0,0.7,0,1.1c0,4,0,7.9,0,11.9
		c0,2.4-1,3.4-3.4,3.4c-2.3,0-4.5,0-6.8,0c-2.4,0-3.4-1.1-3.4-3.4c0-3.9,0-7.9,0-11.8c0-0.3,0-0.7,0-1.2c-0.4,0-0.8,0-1.1,0
		c-2.1-0.1-3.5-1.4-3.5-3.5c0-2.9,0.1-5.8,0-8.7c-0.2-3.7,1.7-6.6,5.4-7.8c-0.2-0.5-0.4-1-0.5-1.6c-0.8-3.6,1.3-7,4.8-8
		c0.2-0.1,0.4-0.1,0.6-0.2C780,245.4,780.8,245.4,781.5,245.4z M787.2,272.3c0.8-0.2,1.8,0.4,1.8-0.9c0-3.3,0.1-6.5,0-9.8
		c-0.1-2.9-3.2-4.7-5.8-3.5c-1.9,0.9-3.8,0.8-5.7-0.1c-0.4-0.2-0.8-0.3-1.2-0.3c-2.6,0-4.5,1.8-4.5,4.4c0,2.9,0,5.7,0,8.6
		c0,1.5,0.2,1.7,1.8,1.4c0-2.4,0-4.8,0-7.3c0-1.5,0.5-2.2,1.4-2.2c1,0,1.4,0.7,1.4,2.1c0,7.5,0,15,0,22.5c0,0.4,0,0.8,0.1,1.2
		c0.9,0,1.7,0,2.5,0c0-0.4,0-0.8,0-1.1c0-3.5,0-7,0-10.5c0-0.3,0-0.7,0.1-1c0.1-0.7,0.6-1.1,1.4-1.1c0.7,0,1.2,0.4,1.3,1.1
		c0.1,0.3,0.1,0.7,0.1,1c0,3.5,0,7,0,10.6c0,0.3,0,0.7,0,1c0.9,0,1.7,0,2.6,0c0-0.4,0-0.8,0-1.2c0-7.5,0-14.9,0-22.4
		c0-0.4,0-0.8,0.1-1.1c0.1-0.7,0.6-1.1,1.4-1.1c0.7,0,1.2,0.5,1.3,1.2c0.1,0.4,0,0.8,0,1.2C787.2,267.5,787.2,269.8,787.2,272.3z
		 M776.5,252.1c0,2.1,1.7,3.9,3.8,3.9c2.1,0,4-1.8,4-3.9c0-2.1-1.7-3.9-3.9-3.9C778.3,248.1,776.5,249.9,776.5,252.1z"/>
	<path class="st2" d="M787.2,272.3c0-2.5,0-4.8,0-7.1c0-0.4,0-0.8,0-1.2c-0.1-0.8-0.6-1.2-1.3-1.2c-0.7,0-1.2,0.4-1.4,1.1
		c-0.1,0.4-0.1,0.7-0.1,1.1c0,7.5,0,14.9,0,22.4c0,0.4,0,0.7,0,1.2c-0.9,0-1.7,0-2.6,0c0-0.4,0-0.7,0-1c0-3.5,0-7,0-10.6
		c0-0.3,0-0.7-0.1-1c-0.1-0.7-0.6-1.1-1.3-1.1c-0.8,0-1.2,0.4-1.4,1.1c-0.1,0.3-0.1,0.7-0.1,1c0,3.5,0,7,0,10.5c0,0.3,0,0.7,0,1.1
		c-0.9,0-1.6,0-2.5,0c0-0.4-0.1-0.8-0.1-1.2c0-7.5,0-15,0-22.5c0-1.5-0.4-2.1-1.4-2.1c-1,0-1.4,0.7-1.4,2.2c0,2.4,0,4.8,0,7.3
		c-1.7,0.3-1.8,0.2-1.8-1.4c0-2.9,0-5.7,0-8.6c0-2.7,1.8-4.5,4.5-4.4c0.4,0,0.8,0.2,1.2,0.3c1.9,0.9,3.8,0.9,5.7,0.1
		c2.6-1.2,5.7,0.6,5.8,3.5c0.1,3.3,0.1,6.5,0,9.8C789,272.7,788,272.1,787.2,272.3z"/>
	<path class="st2" d="M776.5,252.1c0-2.1,1.8-3.9,4-3.9c2.1,0,3.9,1.8,3.9,3.9c0,2.1-1.8,3.9-4,3.9
		C778.2,255.9,776.5,254.2,776.5,252.1z"/>
</g>
<g>
	<path d="M809.2,245.3c0.1,0.1,0.3,0.1,0.4,0.2c4.1,1.1,6.1,5.1,4.6,9.1c-0.1,0.1-0.1,0.3-0.2,0.5c0.2,0.1,0.4,0.2,0.6,0.2
		c2.9,1,4.8,3.6,4.8,6.7c0,3.1,0,6.2,0,9.3c0,2.4-1.3,3.7-3.8,3.8c-0.2,0-0.5,0-0.9,0c0,0.4,0,0.7,0,1.1c0,4,0,7.9,0,11.9
		c0,2.4-1,3.4-3.4,3.4c-2.3,0-4.5,0-6.8,0c-2.4,0-3.4-1.1-3.4-3.4c0-3.9,0-7.9,0-11.8c0-0.3,0-0.7,0-1.2c-0.4,0-0.8,0-1.1,0
		c-2.1-0.1-3.5-1.4-3.5-3.5c0-2.9,0.1-5.8,0-8.7c-0.2-3.7,1.7-6.6,5.4-7.8c-0.2-0.5-0.4-1-0.5-1.6c-0.8-3.6,1.3-7,4.8-8
		c0.2-0.1,0.4-0.1,0.6-0.2C807.7,245.3,808.4,245.3,809.2,245.3z M814.8,272.3c0.8-0.2,1.8,0.4,1.8-0.9c0-3.3,0.1-6.5,0-9.8
		c-0.1-2.9-3.2-4.7-5.8-3.5c-1.9,0.9-3.8,0.8-5.7-0.1c-0.4-0.2-0.8-0.3-1.2-0.3c-2.6,0-4.5,1.8-4.5,4.4c0,2.9,0,5.7,0,8.6
		c0,1.5,0.2,1.7,1.8,1.4c0-2.4,0-4.8,0-7.3c0-1.5,0.5-2.2,1.4-2.2c1,0,1.4,0.7,1.4,2.1c0,7.5,0,15,0,22.5c0,0.4,0,0.8,0.1,1.2
		c0.9,0,1.7,0,2.5,0c0-0.4,0-0.8,0-1.1c0-3.5,0-7,0-10.5c0-0.3,0-0.7,0.1-1c0.1-0.7,0.6-1.1,1.4-1.1c0.7,0,1.2,0.4,1.3,1.1
		c0.1,0.3,0.1,0.7,0.1,1c0,3.5,0,7,0,10.6c0,0.3,0,0.7,0,1c0.9,0,1.7,0,2.6,0c0-0.4,0-0.8,0-1.2c0-7.5,0-14.9,0-22.4
		c0-0.4,0-0.8,0.1-1.1c0.1-0.7,0.6-1.1,1.4-1.1c0.7,0,1.2,0.5,1.3,1.2c0.1,0.4,0,0.8,0,1.2C814.8,267.5,814.8,269.8,814.8,272.3z
		 M804.1,252c0,2.1,1.7,3.9,3.8,3.9c2.1,0,4-1.8,4-3.9c0-2.1-1.7-3.9-3.9-3.9C805.9,248.1,804.1,249.9,804.1,252z"/>
	<path class="st2" d="M814.8,272.3c0-2.5,0-4.8,0-7.1c0-0.4,0-0.8,0-1.2c-0.1-0.8-0.6-1.2-1.3-1.2c-0.7,0-1.2,0.4-1.4,1.1
		c-0.1,0.4-0.1,0.7-0.1,1.1c0,7.5,0,14.9,0,22.4c0,0.4,0,0.7,0,1.2c-0.9,0-1.7,0-2.6,0c0-0.4,0-0.7,0-1c0-3.5,0-7,0-10.6
		c0-0.3,0-0.7-0.1-1c-0.1-0.7-0.6-1.1-1.3-1.1c-0.8,0-1.2,0.4-1.4,1.1c-0.1,0.3-0.1,0.7-0.1,1c0,3.5,0,7,0,10.5c0,0.3,0,0.7,0,1.1
		c-0.9,0-1.6,0-2.5,0c0-0.4-0.1-0.8-0.1-1.2c0-7.5,0-15,0-22.5c0-1.5-0.4-2.1-1.4-2.1c-1,0-1.4,0.7-1.4,2.2c0,2.4,0,4.8,0,7.3
		c-1.7,0.3-1.8,0.2-1.8-1.4c0-2.9,0-5.7,0-8.6c0-2.7,1.8-4.5,4.5-4.4c0.4,0,0.8,0.2,1.2,0.3c1.9,0.9,3.8,0.9,5.7,0.1
		c2.6-1.2,5.7,0.6,5.8,3.5c0.1,3.3,0.1,6.5,0,9.8C816.6,272.7,815.6,272.1,814.8,272.3z"/>
	<path class="st2" d="M804.1,252c0-2.1,1.8-3.9,4-3.9c2.1,0,3.9,1.8,3.9,3.9c0,2.1-1.8,3.9-4,3.9C805.9,255.9,804.1,254.1,804.1,252
		z"/>
</g>
<g>
	<path d="M698.2,300.1c0.1,0.1,0.3,0.1,0.4,0.2c4.1,1.1,6.1,5.1,4.6,9.1c-0.1,0.1-0.1,0.3-0.2,0.5c0.2,0.1,0.4,0.2,0.6,0.2
		c2.9,1,4.8,3.6,4.8,6.7c0,3.1,0,6.2,0,9.3c0,2.4-1.3,3.7-3.8,3.8c-0.2,0-0.5,0-0.9,0c0,0.4,0,0.7,0,1.1c0,4,0,7.9,0,11.9
		c0,2.4-1,3.4-3.4,3.4c-2.3,0-4.5,0-6.8,0c-2.4,0-3.4-1.1-3.4-3.4c0-3.9,0-7.9,0-11.8c0-0.3,0-0.7,0-1.2c-0.4,0-0.8,0-1.1,0
		c-2.1-0.1-3.5-1.4-3.5-3.5c0-2.9,0.1-5.8,0-8.7c-0.2-3.7,1.7-6.6,5.4-7.8c-0.2-0.5-0.4-1-0.5-1.6c-0.8-3.6,1.3-7,4.8-8
		c0.2-0.1,0.4-0.1,0.6-0.2C696.7,300.1,697.5,300.1,698.2,300.1z M703.9,327c0.8-0.2,1.8,0.4,1.8-0.9c0-3.3,0.1-6.5,0-9.8
		c-0.1-2.9-3.2-4.7-5.8-3.5c-1.9,0.9-3.8,0.8-5.7-0.1c-0.4-0.2-0.8-0.3-1.2-0.3c-2.6,0-4.5,1.8-4.5,4.4c0,2.9,0,5.7,0,8.6
		c0,1.5,0.2,1.7,1.8,1.4c0-2.4,0-4.8,0-7.3c0-1.5,0.5-2.2,1.4-2.2c1,0,1.4,0.7,1.4,2.1c0,7.5,0,15,0,22.5c0,0.4,0,0.8,0.1,1.2
		c0.9,0,1.7,0,2.5,0c0-0.4,0-0.8,0-1.1c0-3.5,0-7,0-10.5c0-0.3,0-0.7,0.1-1c0.1-0.7,0.6-1.1,1.4-1.1c0.7,0,1.2,0.4,1.3,1.1
		c0.1,0.3,0.1,0.7,0.1,1c0,3.5,0,7,0,10.6c0,0.3,0,0.7,0,1c0.9,0,1.7,0,2.6,0c0-0.4,0-0.8,0-1.2c0-7.5,0-14.9,0-22.4
		c0-0.4,0-0.8,0.1-1.1c0.1-0.7,0.6-1.1,1.4-1.1c0.7,0,1.2,0.5,1.3,1.2c0.1,0.4,0,0.8,0,1.2C703.9,322.2,703.9,324.6,703.9,327z
		 M693.2,306.8c0,2.1,1.7,3.9,3.8,3.9c2.1,0,4-1.8,4-3.9c0-2.1-1.7-3.9-3.9-3.9C695,302.9,693.2,304.6,693.2,306.8z"/>
	<path class="st2" d="M703.9,327c0-2.5,0-4.8,0-7.1c0-0.4,0-0.8,0-1.2c-0.1-0.8-0.6-1.2-1.3-1.2c-0.7,0-1.2,0.4-1.4,1.1
		c-0.1,0.4-0.1,0.7-0.1,1.1c0,7.5,0,14.9,0,22.4c0,0.4,0,0.7,0,1.2c-0.9,0-1.7,0-2.6,0c0-0.4,0-0.7,0-1c0-3.5,0-7,0-10.6
		c0-0.3,0-0.7-0.1-1c-0.1-0.7-0.6-1.1-1.3-1.1c-0.8,0-1.2,0.4-1.4,1.1c-0.1,0.3-0.1,0.7-0.1,1c0,3.5,0,7,0,10.5c0,0.3,0,0.7,0,1.1
		c-0.9,0-1.6,0-2.5,0c0-0.4-0.1-0.8-0.1-1.2c0-7.5,0-15,0-22.5c0-1.5-0.4-2.1-1.4-2.1c-1,0-1.4,0.7-1.4,2.2c0,2.4,0,4.8,0,7.3
		c-1.7,0.3-1.8,0.2-1.8-1.4c0-2.9,0-5.7,0-8.6c0-2.7,1.8-4.5,4.5-4.4c0.4,0,0.8,0.2,1.2,0.3c1.9,0.9,3.8,0.9,5.7,0.1
		c2.6-1.2,5.7,0.6,5.8,3.5c0.1,3.3,0.1,6.5,0,9.8C705.7,327.5,704.7,326.9,703.9,327z"/>
	<path class="st2" d="M693.2,306.8c0-2.1,1.8-3.9,4-3.9c2.1,0,3.9,1.8,3.9,3.9c0,2.1-1.8,3.9-4,3.9
		C694.9,310.7,693.2,308.9,693.2,306.8z"/>
</g>
<g>
	<path d="M725.6,300.1c0.1,0.1,0.3,0.1,0.4,0.2c4.1,1.1,6.1,5.1,4.6,9.1c-0.1,0.1-0.1,0.3-0.2,0.5c0.2,0.1,0.4,0.2,0.6,0.2
		c2.9,1,4.8,3.6,4.8,6.7c0,3.1,0,6.2,0,9.3c0,2.4-1.3,3.7-3.8,3.8c-0.2,0-0.5,0-0.9,0c0,0.4,0,0.7,0,1.1c0,4,0,7.9,0,11.9
		c0,2.4-1,3.4-3.4,3.4c-2.3,0-4.5,0-6.8,0c-2.4,0-3.4-1.1-3.4-3.4c0-3.9,0-7.9,0-11.8c0-0.3,0-0.7,0-1.2c-0.4,0-0.8,0-1.1,0
		c-2.1-0.1-3.5-1.4-3.5-3.5c0-2.9,0.1-5.8,0-8.7c-0.2-3.7,1.7-6.6,5.4-7.8c-0.2-0.5-0.4-1-0.5-1.6c-0.8-3.6,1.3-7,4.8-8
		c0.2-0.1,0.4-0.1,0.6-0.2C724.1,300.1,724.8,300.1,725.6,300.1z M731.3,327.1c0.8-0.2,1.8,0.4,1.8-0.9c0-3.3,0.1-6.5,0-9.8
		c-0.1-2.9-3.2-4.7-5.8-3.5c-1.9,0.9-3.8,0.8-5.7-0.1c-0.4-0.2-0.8-0.3-1.2-0.3c-2.6,0-4.5,1.8-4.5,4.4c0,2.9,0,5.7,0,8.6
		c0,1.5,0.2,1.7,1.8,1.4c0-2.4,0-4.8,0-7.3c0-1.5,0.5-2.2,1.4-2.2c1,0,1.4,0.7,1.4,2.1c0,7.5,0,15,0,22.5c0,0.4,0,0.8,0.1,1.2
		c0.9,0,1.7,0,2.5,0c0-0.4,0-0.8,0-1.1c0-3.5,0-7,0-10.5c0-0.3,0-0.7,0.1-1c0.1-0.7,0.6-1.1,1.4-1.1c0.7,0,1.2,0.4,1.3,1.1
		c0.1,0.3,0.1,0.7,0.1,1c0,3.5,0,7,0,10.6c0,0.3,0,0.7,0,1c0.9,0,1.7,0,2.6,0c0-0.4,0-0.8,0-1.2c0-7.5,0-14.9,0-22.4
		c0-0.4,0-0.8,0.1-1.1c0.1-0.7,0.6-1.1,1.4-1.1c0.7,0,1.2,0.5,1.3,1.2c0.1,0.4,0,0.8,0,1.2C731.3,322.3,731.3,324.6,731.3,327.1z
		 M720.5,306.8c0,2.1,1.7,3.9,3.8,3.9c2.1,0,4-1.8,4-3.9c0-2.1-1.7-3.9-3.9-3.9C722.3,302.9,720.6,304.7,720.5,306.8z"/>
	<path class="st2" d="M731.3,327.1c0-2.5,0-4.8,0-7.1c0-0.4,0-0.8,0-1.2c-0.1-0.8-0.6-1.2-1.3-1.2c-0.7,0-1.2,0.4-1.4,1.1
		c-0.1,0.4-0.1,0.7-0.1,1.1c0,7.5,0,14.9,0,22.4c0,0.4,0,0.7,0,1.2c-0.9,0-1.7,0-2.6,0c0-0.4,0-0.7,0-1c0-3.5,0-7,0-10.6
		c0-0.3,0-0.7-0.1-1c-0.1-0.7-0.6-1.1-1.3-1.1c-0.8,0-1.2,0.4-1.4,1.1c-0.1,0.3-0.1,0.7-0.1,1c0,3.5,0,7,0,10.5c0,0.3,0,0.7,0,1.1
		c-0.9,0-1.6,0-2.5,0c0-0.4-0.1-0.8-0.1-1.2c0-7.5,0-15,0-22.5c0-1.5-0.4-2.1-1.4-2.1c-1,0-1.4,0.7-1.4,2.2c0,2.4,0,4.8,0,7.3
		c-1.7,0.3-1.8,0.2-1.8-1.4c0-2.9,0-5.7,0-8.6c0-2.7,1.8-4.5,4.5-4.4c0.4,0,0.8,0.2,1.2,0.3c1.9,0.9,3.8,0.9,5.7,0.1
		c2.6-1.2,5.7,0.6,5.8,3.5c0.1,3.3,0.1,6.5,0,9.8C733.1,327.5,732,326.9,731.3,327.1z"/>
	<path class="st2" d="M720.5,306.8c0-2.1,1.8-3.9,4-3.9c2.1,0,3.9,1.8,3.9,3.9c0,2.1-1.8,3.9-4,3.9
		C722.3,310.7,720.5,308.9,720.5,306.8z"/>
</g>
<g>
	<path d="M754.2,300.2c0.1,0.1,0.3,0.1,0.4,0.2c4.1,1.1,6.1,5.1,4.6,9.1c-0.1,0.1-0.1,0.3-0.2,0.5c0.2,0.1,0.4,0.2,0.6,0.2
		c2.9,1,4.8,3.6,4.8,6.7c0,3.1,0,6.2,0,9.3c0,2.4-1.3,3.7-3.8,3.8c-0.2,0-0.5,0-0.9,0c0,0.4,0,0.7,0,1.1c0,4,0,7.9,0,11.9
		c0,2.4-1,3.4-3.4,3.4c-2.3,0-4.5,0-6.8,0c-2.4,0-3.4-1.1-3.4-3.4c0-3.9,0-7.9,0-11.8c0-0.3,0-0.7,0-1.2c-0.4,0-0.8,0-1.1,0
		c-2.1-0.1-3.5-1.4-3.5-3.5c0-2.9,0.1-5.8,0-8.7c-0.2-3.7,1.7-6.6,5.4-7.8c-0.2-0.5-0.4-1-0.5-1.6c-0.8-3.6,1.3-7,4.8-8
		c0.2-0.1,0.4-0.1,0.6-0.2C752.7,300.2,753.4,300.2,754.2,300.2z M759.8,327.1c0.8-0.2,1.8,0.4,1.8-0.9c0-3.3,0.1-6.5,0-9.8
		c-0.1-2.9-3.2-4.7-5.8-3.5c-1.9,0.9-3.8,0.8-5.7-0.1c-0.4-0.2-0.8-0.3-1.2-0.3c-2.6,0-4.5,1.8-4.5,4.4c0,2.9,0,5.7,0,8.6
		c0,1.5,0.2,1.7,1.8,1.4c0-2.4,0-4.8,0-7.3c0-1.5,0.5-2.2,1.4-2.2c1,0,1.4,0.7,1.4,2.1c0,7.5,0,15,0,22.5c0,0.4,0,0.8,0.1,1.2
		c0.9,0,1.7,0,2.5,0c0-0.4,0-0.8,0-1.1c0-3.5,0-7,0-10.5c0-0.3,0-0.7,0.1-1c0.1-0.7,0.6-1.1,1.4-1.1c0.7,0,1.2,0.4,1.3,1.1
		c0.1,0.3,0.1,0.7,0.1,1c0,3.5,0,7,0,10.6c0,0.3,0,0.7,0,1c0.9,0,1.7,0,2.6,0c0-0.4,0-0.8,0-1.2c0-7.5,0-14.9,0-22.4
		c0-0.4,0-0.8,0.1-1.1c0.1-0.7,0.6-1.1,1.4-1.1c0.7,0,1.2,0.5,1.3,1.2c0.1,0.4,0,0.8,0,1.2C759.8,322.3,759.8,324.7,759.8,327.1z
		 M749.1,306.9c0,2.1,1.7,3.9,3.8,3.9c2.1,0,4-1.8,4-3.9c0-2.1-1.7-3.9-3.9-3.9C750.9,303,749.1,304.7,749.1,306.9z"/>
	<path class="st2" d="M759.8,327.1c0-2.5,0-4.8,0-7.1c0-0.4,0-0.8,0-1.2c-0.1-0.8-0.6-1.2-1.3-1.2c-0.7,0-1.2,0.4-1.4,1.1
		c-0.1,0.4-0.1,0.7-0.1,1.1c0,7.5,0,14.9,0,22.4c0,0.4,0,0.7,0,1.2c-0.9,0-1.7,0-2.6,0c0-0.4,0-0.7,0-1c0-3.5,0-7,0-10.6
		c0-0.3,0-0.7-0.1-1c-0.1-0.7-0.6-1.1-1.3-1.1c-0.8,0-1.2,0.4-1.4,1.1c-0.1,0.3-0.1,0.7-0.1,1c0,3.5,0,7,0,10.5c0,0.3,0,0.7,0,1.1
		c-0.9,0-1.6,0-2.5,0c0-0.4-0.1-0.8-0.1-1.2c0-7.5,0-15,0-22.5c0-1.5-0.4-2.1-1.4-2.1c-1,0-1.4,0.7-1.4,2.2c0,2.4,0,4.8,0,7.3
		c-1.7,0.3-1.8,0.2-1.8-1.4c0-2.9,0-5.7,0-8.6c0-2.7,1.8-4.5,4.5-4.4c0.4,0,0.8,0.2,1.2,0.3c1.9,0.9,3.8,0.9,5.7,0.1
		c2.6-1.2,5.7,0.6,5.8,3.5c0.1,3.3,0.1,6.5,0,9.8C761.6,327.6,760.6,327,759.8,327.1z"/>
	<path class="st2" d="M749.1,306.9c0-2.1,1.8-3.9,4-3.9c2.1,0,3.9,1.8,3.9,3.9c0,2.1-1.8,3.9-4,3.9
		C750.9,310.7,749.1,309,749.1,306.9z"/>
</g>
<g>
	<path d="M781.5,300.2c0.1,0.1,0.3,0.1,0.4,0.2c4.1,1.1,6.1,5.1,4.6,9.1c-0.1,0.1-0.1,0.3-0.2,0.5c0.2,0.1,0.4,0.2,0.6,0.2
		c2.9,1,4.8,3.6,4.8,6.7c0,3.1,0,6.2,0,9.3c0,2.4-1.3,3.7-3.8,3.8c-0.2,0-0.5,0-0.9,0c0,0.4,0,0.7,0,1.1c0,4,0,7.9,0,11.9
		c0,2.4-1,3.4-3.4,3.4c-2.3,0-4.5,0-6.8,0c-2.4,0-3.4-1.1-3.4-3.4c0-3.9,0-7.9,0-11.8c0-0.3,0-0.7,0-1.2c-0.4,0-0.8,0-1.1,0
		c-2.1-0.1-3.5-1.4-3.5-3.5c0-2.9,0.1-5.8,0-8.7c-0.2-3.7,1.7-6.6,5.4-7.8c-0.2-0.5-0.4-1-0.5-1.6c-0.8-3.6,1.3-7,4.8-8
		c0.2-0.1,0.4-0.1,0.6-0.2C780,300.2,780.8,300.2,781.5,300.2z M787.2,327.2c0.8-0.2,1.8,0.4,1.8-0.9c0-3.3,0.1-6.5,0-9.8
		c-0.1-2.9-3.2-4.7-5.8-3.5c-1.9,0.9-3.8,0.8-5.7-0.1c-0.4-0.2-0.8-0.3-1.2-0.3c-2.6,0-4.5,1.8-4.5,4.4c0,2.9,0,5.7,0,8.6
		c0,1.5,0.2,1.7,1.8,1.4c0-2.4,0-4.8,0-7.3c0-1.5,0.5-2.2,1.4-2.2c1,0,1.4,0.7,1.4,2.1c0,7.5,0,15,0,22.5c0,0.4,0,0.8,0.1,1.2
		c0.9,0,1.7,0,2.5,0c0-0.4,0-0.8,0-1.1c0-3.5,0-7,0-10.5c0-0.3,0-0.7,0.1-1c0.1-0.7,0.6-1.1,1.4-1.1c0.7,0,1.2,0.4,1.3,1.1
		c0.1,0.3,0.1,0.7,0.1,1c0,3.5,0,7,0,10.6c0,0.3,0,0.7,0,1c0.9,0,1.7,0,2.6,0c0-0.4,0-0.8,0-1.2c0-7.5,0-14.9,0-22.4
		c0-0.4,0-0.8,0.1-1.1c0.1-0.7,0.6-1.1,1.4-1.1c0.7,0,1.2,0.5,1.3,1.2c0.1,0.4,0,0.8,0,1.2C787.2,322.4,787.2,324.7,787.2,327.2z
		 M776.5,306.9c0,2.1,1.7,3.9,3.8,3.9c2.1,0,4-1.8,4-3.9c0-2.1-1.7-3.9-3.9-3.9C778.3,303,776.5,304.8,776.5,306.9z"/>
	<path class="st2" d="M787.2,327.2c0-2.5,0-4.8,0-7.1c0-0.4,0-0.8,0-1.2c-0.1-0.8-0.6-1.2-1.3-1.2c-0.7,0-1.2,0.4-1.4,1.1
		c-0.1,0.4-0.1,0.7-0.1,1.1c0,7.5,0,14.9,0,22.4c0,0.4,0,0.7,0,1.2c-0.9,0-1.7,0-2.6,0c0-0.4,0-0.7,0-1c0-3.5,0-7,0-10.6
		c0-0.3,0-0.7-0.1-1c-0.1-0.7-0.6-1.1-1.3-1.1c-0.8,0-1.2,0.4-1.4,1.1c-0.1,0.3-0.1,0.7-0.1,1c0,3.5,0,7,0,10.5c0,0.3,0,0.7,0,1.1
		c-0.9,0-1.6,0-2.5,0c0-0.4-0.1-0.8-0.1-1.2c0-7.5,0-15,0-22.5c0-1.5-0.4-2.1-1.4-2.1c-1,0-1.4,0.7-1.4,2.2c0,2.4,0,4.8,0,7.3
		c-1.7,0.3-1.8,0.2-1.8-1.4c0-2.9,0-5.7,0-8.6c0-2.7,1.8-4.5,4.5-4.4c0.4,0,0.8,0.2,1.2,0.3c1.9,0.9,3.8,0.9,5.7,0.1
		c2.6-1.2,5.7,0.6,5.8,3.5c0.1,3.3,0.1,6.5,0,9.8C789,327.6,788,327,787.2,327.2z"/>
	<path class="st2" d="M776.5,306.9c0-2.1,1.8-3.9,4-3.9c2.1,0,3.9,1.8,3.9,3.9c0,2.1-1.8,3.9-4,3.9
		C778.2,310.8,776.5,309,776.5,306.9z"/>
</g>
<g>
	<path d="M809.2,300.2c0.1,0.1,0.3,0.1,0.4,0.2c4.1,1.1,6.1,5.1,4.6,9.1c-0.1,0.1-0.1,0.3-0.2,0.5c0.2,0.1,0.4,0.2,0.6,0.2
		c2.9,1,4.8,3.6,4.8,6.7c0,3.1,0,6.2,0,9.3c0,2.4-1.3,3.7-3.8,3.8c-0.2,0-0.5,0-0.9,0c0,0.4,0,0.7,0,1.1c0,4,0,7.9,0,11.9
		c0,2.4-1,3.4-3.4,3.4c-2.3,0-4.5,0-6.8,0c-2.4,0-3.4-1.1-3.4-3.4c0-3.9,0-7.9,0-11.8c0-0.3,0-0.7,0-1.2c-0.4,0-0.8,0-1.1,0
		c-2.1-0.1-3.5-1.4-3.5-3.5c0-2.9,0.1-5.8,0-8.7c-0.2-3.7,1.7-6.6,5.4-7.8c-0.2-0.5-0.4-1-0.5-1.6c-0.8-3.6,1.3-7,4.8-8
		c0.2-0.1,0.4-0.1,0.6-0.2C807.7,300.2,808.4,300.2,809.2,300.2z M814.8,327.1c0.8-0.2,1.8,0.4,1.8-0.9c0-3.3,0.1-6.5,0-9.8
		c-0.1-2.9-3.2-4.7-5.8-3.5c-1.9,0.9-3.8,0.8-5.7-0.1c-0.4-0.2-0.8-0.3-1.2-0.3c-2.6,0-4.5,1.8-4.5,4.4c0,2.9,0,5.7,0,8.6
		c0,1.5,0.2,1.7,1.8,1.4c0-2.4,0-4.8,0-7.3c0-1.5,0.5-2.2,1.4-2.2c1,0,1.4,0.7,1.4,2.1c0,7.5,0,15,0,22.5c0,0.4,0,0.8,0.1,1.2
		c0.9,0,1.7,0,2.5,0c0-0.4,0-0.8,0-1.1c0-3.5,0-7,0-10.5c0-0.3,0-0.7,0.1-1c0.1-0.7,0.6-1.1,1.4-1.1c0.7,0,1.2,0.4,1.3,1.1
		c0.1,0.3,0.1,0.7,0.1,1c0,3.5,0,7,0,10.6c0,0.3,0,0.7,0,1c0.9,0,1.7,0,2.6,0c0-0.4,0-0.8,0-1.2c0-7.5,0-14.9,0-22.4
		c0-0.4,0-0.8,0.1-1.1c0.1-0.7,0.6-1.1,1.4-1.1c0.7,0,1.2,0.5,1.3,1.2c0.1,0.4,0,0.8,0,1.2C814.8,322.3,814.8,324.7,814.8,327.1z
		 M804.1,306.9c0,2.1,1.7,3.9,3.8,3.9c2.1,0,4-1.8,4-3.9c0-2.1-1.7-3.9-3.9-3.9C805.9,303,804.1,304.7,804.1,306.9z"/>
	<path class="st2" d="M814.8,327.1c0-2.5,0-4.8,0-7.1c0-0.4,0-0.8,0-1.2c-0.1-0.8-0.6-1.2-1.3-1.2c-0.7,0-1.2,0.4-1.4,1.1
		c-0.1,0.4-0.1,0.7-0.1,1.1c0,7.5,0,14.9,0,22.4c0,0.4,0,0.7,0,1.2c-0.9,0-1.7,0-2.6,0c0-0.4,0-0.7,0-1c0-3.5,0-7,0-10.6
		c0-0.3,0-0.7-0.1-1c-0.1-0.7-0.6-1.1-1.3-1.1c-0.8,0-1.2,0.4-1.4,1.1c-0.1,0.3-0.1,0.7-0.1,1c0,3.5,0,7,0,10.5c0,0.3,0,0.7,0,1.1
		c-0.9,0-1.6,0-2.5,0c0-0.4-0.1-0.8-0.1-1.2c0-7.5,0-15,0-22.5c0-1.5-0.4-2.1-1.4-2.1c-1,0-1.4,0.7-1.4,2.2c0,2.4,0,4.8,0,7.3
		c-1.7,0.3-1.8,0.2-1.8-1.4c0-2.9,0-5.7,0-8.6c0-2.7,1.8-4.5,4.5-4.4c0.4,0,0.8,0.2,1.2,0.3c1.9,0.9,3.8,0.9,5.7,0.1
		c2.6-1.2,5.7,0.6,5.8,3.5c0.1,3.3,0.1,6.5,0,9.8C816.6,327.6,815.6,327,814.8,327.1z"/>
	<path class="st2" d="M804.1,306.9c0-2.1,1.8-3.9,4-3.9c2.1,0,3.9,1.8,3.9,3.9c0,2.1-1.8,3.9-4,3.9
		C805.9,310.8,804.1,309,804.1,306.9z"/>
</g>
<rect x="855.5" y="416.3" class="st3" width="138" height="22.5"/>
<text transform="matrix(1 0 0 1 861.2868 429.1727)" class="st1 st4 st5">Sobrevivientes</text>
<image style="overflow:visible;" width="1200" height="675" xlink:href="../restos-del-avion-de-la-tragedia-de-los-andes.jpeg"  transform="matrix(0.5417 0 0 0.5417 0 73)">
</image>
<rect x="677.8" y="414.8" class="st3" width="138" height="15.3"/>
<text transform="matrix(1 0 0 1 703.2036 427.6213)" class="st4 st5">Fallecidos</text>
<g>
	<path class="st1" d="M949.9,79.5c0.1,0.1,0.3,0.1,0.4,0.2c4.1,1.1,6.1,5.1,4.6,9.1c-0.1,0.1-0.1,0.3-0.2,0.5
		c0.2,0.1,0.4,0.2,0.6,0.2c2.9,1,4.8,3.6,4.8,6.7c0,3.1,0,6.2,0,9.3c0,2.4-1.3,3.7-3.8,3.8c-0.2,0-0.5,0-0.9,0c0,0.4,0,0.7,0,1.1
		c0,4,0,7.9,0,11.9c0,2.4-1,3.4-3.4,3.4c-2.3,0-4.5,0-6.8,0c-2.4,0-3.4-1.1-3.4-3.4c0-3.9,0-7.9,0-11.8c0-0.3,0-0.7,0-1.2
		c-0.4,0-0.8,0-1.1,0c-2.1-0.1-3.5-1.4-3.5-3.5c0-2.9,0.1-5.8,0-8.7c-0.2-3.7,1.7-6.6,5.4-7.8c-0.2-0.5-0.4-1-0.5-1.6
		c-0.8-3.6,1.3-7,4.8-8c0.2-0.1,0.4-0.1,0.6-0.2C948.4,79.5,949.2,79.5,949.9,79.5z M955.6,106.5c0.8-0.2,1.8,0.4,1.8-0.9
		c0-3.3,0.1-6.5,0-9.8c-0.1-2.9-3.2-4.7-5.8-3.5c-1.9,0.9-3.8,0.8-5.7-0.1c-0.4-0.2-0.8-0.3-1.2-0.3c-2.6,0-4.5,1.8-4.5,4.4
		c0,2.9,0,5.7,0,8.6c0,1.5,0.2,1.7,1.8,1.4c0-2.4,0-4.8,0-7.3c0-1.5,0.5-2.2,1.4-2.2c1,0,1.4,0.7,1.4,2.1c0,7.5,0,15,0,22.5
		c0,0.4,0,0.8,0.1,1.2c0.9,0,1.7,0,2.5,0c0-0.4,0-0.8,0-1.1c0-3.5,0-7,0-10.5c0-0.3,0-0.7,0.1-1c0.1-0.7,0.6-1.1,1.4-1.1
		c0.7,0,1.2,0.4,1.3,1.1c0.1,0.3,0.1,0.7,0.1,1c0,3.5,0,7,0,10.6c0,0.3,0,0.7,0,1c0.9,0,1.7,0,2.6,0c0-0.4,0-0.8,0-1.2
		c0-7.5,0-14.9,0-22.4c0-0.4,0-0.8,0.1-1.1c0.1-0.7,0.6-1.1,1.4-1.1c0.7,0,1.2,0.5,1.3,1.2c0.1,0.4,0,0.8,0,1.2
		C955.6,101.7,955.6,104,955.6,106.5z M944.9,86.2c0,2.1,1.7,3.9,3.8,3.9c2.1,0,4-1.8,4-3.9c0-2.1-1.7-3.9-3.9-3.9
		C946.7,82.3,944.9,84.1,944.9,86.2z"/>
	<path class="st2" d="M955.6,106.5c0-2.5,0-4.8,0-7.1c0-0.4,0-0.8,0-1.2c-0.1-0.8-0.6-1.2-1.3-1.2c-0.7,0-1.2,0.4-1.4,1.1
		c-0.1,0.4-0.1,0.7-0.1,1.1c0,7.5,0,14.9,0,22.4c0,0.4,0,0.7,0,1.2c-0.9,0-1.7,0-2.6,0c0-0.4,0-0.7,0-1c0-3.5,0-7,0-10.6
		c0-0.3,0-0.7-0.1-1c-0.1-0.7-0.6-1.1-1.3-1.1c-0.8,0-1.2,0.4-1.4,1.1c-0.1,0.3-0.1,0.7-0.1,1c0,3.5,0,7,0,10.5c0,0.3,0,0.7,0,1.1
		c-0.9,0-1.6,0-2.5,0c0-0.4-0.1-0.8-0.1-1.2c0-7.5,0-15,0-22.5c0-1.5-0.4-2.1-1.4-2.1c-1,0-1.4,0.7-1.4,2.2c0,2.4,0,4.8,0,7.3
		c-1.7,0.3-1.8,0.2-1.8-1.4c0-2.9,0-5.7,0-8.6c0-2.7,1.8-4.5,4.5-4.4c0.4,0,0.8,0.2,1.2,0.3c1.9,0.9,3.8,0.9,5.7,0.1
		c2.6-1.2,5.7,0.6,5.8,3.5c0.1,3.3,0.1,6.5,0,9.8C957.4,106.9,956.4,106.3,955.6,106.5z"/>
	<path class="st2" d="M944.9,86.2c0-2.1,1.8-3.9,4-3.9c2.1,0,3.9,1.8,3.9,3.9c0,2.1-1.8,3.9-4,3.9C946.6,90.1,944.9,88.3,944.9,86.2
		z"/>
</g>
<g>
	<path class="st1" d="M921.2,79.8c0.1,0.1,0.3,0.1,0.4,0.2c4.1,1.1,6.1,5.1,4.6,9.1c-0.1,0.1-0.1,0.3-0.2,0.5
		c0.2,0.1,0.4,0.2,0.6,0.2c2.9,1,4.8,3.6,4.8,6.7c0,3.1,0,6.2,0,9.3c0,2.4-1.3,3.7-3.8,3.8c-0.2,0-0.5,0-0.9,0c0,0.4,0,0.7,0,1.1
		c0,4,0,7.9,0,11.9c0,2.4-1,3.4-3.4,3.4c-2.3,0-4.5,0-6.8,0c-2.4,0-3.4-1.1-3.4-3.4c0-3.9,0-7.9,0-11.8c0-0.3,0-0.7,0-1.2
		c-0.4,0-0.8,0-1.1,0c-2.1-0.1-3.5-1.4-3.5-3.5c0-2.9,0.1-5.8,0-8.7c-0.2-3.7,1.7-6.6,5.4-7.8c-0.2-0.5-0.4-1-0.5-1.6
		c-0.8-3.6,1.3-7,4.8-8c0.2-0.1,0.4-0.1,0.6-0.2C919.7,79.8,920.5,79.8,921.2,79.8z M926.9,106.8c0.8-0.2,1.8,0.4,1.8-0.9
		c0-3.3,0.1-6.5,0-9.8c-0.1-2.9-3.2-4.7-5.8-3.5c-1.9,0.9-3.8,0.8-5.7-0.1c-0.4-0.2-0.8-0.3-1.2-0.3c-2.6,0-4.5,1.8-4.5,4.4
		c0,2.9,0,5.7,0,8.6c0,1.5,0.2,1.7,1.8,1.4c0-2.4,0-4.8,0-7.3c0-1.5,0.5-2.2,1.4-2.2c1,0,1.4,0.7,1.4,2.1c0,7.5,0,15,0,22.5
		c0,0.4,0,0.8,0.1,1.2c0.9,0,1.7,0,2.5,0c0-0.4,0-0.8,0-1.1c0-3.5,0-7,0-10.5c0-0.3,0-0.7,0.1-1c0.1-0.7,0.6-1.1,1.4-1.1
		c0.7,0,1.2,0.4,1.3,1.1c0.1,0.3,0.1,0.7,0.1,1c0,3.5,0,7,0,10.6c0,0.3,0,0.7,0,1c0.9,0,1.7,0,2.6,0c0-0.4,0-0.8,0-1.2
		c0-7.5,0-14.9,0-22.4c0-0.4,0-0.8,0.1-1.1c0.1-0.7,0.6-1.1,1.4-1.1c0.7,0,1.2,0.5,1.3,1.2c0.1,0.4,0,0.8,0,1.2
		C926.9,102,926.9,104.3,926.9,106.8z M916.2,86.5c0,2.1,1.7,3.9,3.8,3.9c2.1,0,4-1.8,4-3.9c0-2.1-1.7-3.9-3.9-3.9
		C918,82.6,916.2,84.4,916.2,86.5z"/>
	<path class="st2" d="M926.9,106.8c0-2.5,0-4.8,0-7.1c0-0.4,0-0.8,0-1.2c-0.1-0.8-0.6-1.2-1.3-1.2c-0.7,0-1.2,0.4-1.4,1.1
		c-0.1,0.4-0.1,0.7-0.1,1.1c0,7.5,0,14.9,0,22.4c0,0.4,0,0.7,0,1.2c-0.9,0-1.7,0-2.6,0c0-0.4,0-0.7,0-1c0-3.5,0-7,0-10.6
		c0-0.3,0-0.7-0.1-1c-0.1-0.7-0.6-1.1-1.3-1.1c-0.8,0-1.2,0.4-1.4,1.1c-0.1,0.3-0.1,0.7-0.1,1c0,3.5,0,7,0,10.5c0,0.3,0,0.7,0,1.1
		c-0.9,0-1.6,0-2.5,0c0-0.4-0.1-0.8-0.1-1.2c0-7.5,0-15,0-22.5c0-1.5-0.4-2.1-1.4-2.1c-1,0-1.4,0.7-1.4,2.2c0,2.4,0,4.8,0,7.3
		c-1.7,0.3-1.8,0.2-1.8-1.4c0-2.9,0-5.7,0-8.6c0-2.7,1.8-4.5,4.5-4.4c0.4,0,0.8,0.2,1.2,0.3c1.9,0.9,3.8,0.9,5.7,0.1
		c2.6-1.2,5.7,0.6,5.8,3.5c0.1,3.3,0.1,6.5,0,9.8C928.7,107.2,927.7,106.6,926.9,106.8z"/>
	<path class="st2" d="M916.2,86.5c0-2.1,1.8-3.9,4-3.9c2.1,0,3.9,1.8,3.9,3.9c0,2.1-1.8,3.9-4,3.9C917.9,90.4,916.2,88.6,916.2,86.5
		z"/>
</g>
<g>
	<path class="st1" d="M894.6,79.3c0.1,0.1,0.3,0.1,0.4,0.2c4.1,1.1,6.1,5.1,4.6,9.1c-0.1,0.1-0.1,0.3-0.2,0.5
		c0.2,0.1,0.4,0.2,0.6,0.2c2.9,1,4.8,3.6,4.8,6.7c0,3.1,0,6.2,0,9.3c0,2.4-1.3,3.7-3.8,3.8c-0.2,0-0.5,0-0.9,0c0,0.4,0,0.7,0,1.1
		c0,4,0,7.9,0,11.9c0,2.4-1,3.4-3.4,3.4c-2.3,0-4.5,0-6.8,0c-2.4,0-3.4-1.1-3.4-3.4c0-3.9,0-7.9,0-11.8c0-0.3,0-0.7,0-1.2
		c-0.4,0-0.8,0-1.1,0c-2.1-0.1-3.5-1.4-3.5-3.5c0-2.9,0.1-5.8,0-8.7c-0.2-3.7,1.7-6.6,5.4-7.8c-0.2-0.5-0.4-1-0.5-1.6
		c-0.8-3.6,1.3-7,4.8-8c0.2-0.1,0.4-0.1,0.6-0.2C893.1,79.3,893.9,79.3,894.6,79.3z M900.3,106.2c0.8-0.2,1.8,0.4,1.8-0.9
		c0-3.3,0.1-6.5,0-9.8c-0.1-2.9-3.2-4.7-5.8-3.5c-1.9,0.9-3.8,0.8-5.7-0.1c-0.4-0.2-0.8-0.3-1.2-0.3c-2.6,0-4.5,1.8-4.5,4.4
		c0,2.9,0,5.7,0,8.6c0,1.5,0.2,1.7,1.8,1.4c0-2.4,0-4.8,0-7.3c0-1.5,0.5-2.2,1.4-2.2c1,0,1.4,0.7,1.4,2.1c0,7.5,0,15,0,22.5
		c0,0.4,0,0.8,0.1,1.2c0.9,0,1.7,0,2.5,0c0-0.4,0-0.8,0-1.1c0-3.5,0-7,0-10.5c0-0.3,0-0.7,0.1-1c0.1-0.7,0.6-1.1,1.4-1.1
		c0.7,0,1.2,0.4,1.3,1.1c0.1,0.3,0.1,0.7,0.1,1c0,3.5,0,7,0,10.6c0,0.3,0,0.7,0,1c0.9,0,1.7,0,2.6,0c0-0.4,0-0.8,0-1.2
		c0-7.5,0-14.9,0-22.4c0-0.4,0-0.8,0.1-1.1c0.1-0.7,0.6-1.1,1.4-1.1c0.7,0,1.2,0.5,1.3,1.2c0.1,0.4,0,0.8,0,1.2
		C900.3,101.4,900.3,103.8,900.3,106.2z M889.6,86c0,2.1,1.7,3.9,3.8,3.9c2.1,0,4-1.8,4-3.9c0-2.1-1.7-3.9-3.9-3.9
		C891.4,82.1,889.6,83.8,889.6,86z"/>
	<path class="st2" d="M900.3,106.2c0-2.5,0-4.8,0-7.1c0-0.4,0-0.8,0-1.2c-0.1-0.8-0.6-1.2-1.3-1.2c-0.7,0-1.2,0.4-1.4,1.1
		c-0.1,0.4-0.1,0.7-0.1,1.1c0,7.5,0,14.9,0,22.4c0,0.4,0,0.7,0,1.2c-0.9,0-1.7,0-2.6,0c0-0.4,0-0.7,0-1c0-3.5,0-7,0-10.6
		c0-0.3,0-0.7-0.1-1c-0.1-0.7-0.6-1.1-1.3-1.1c-0.8,0-1.2,0.4-1.4,1.1c-0.1,0.3-0.1,0.7-0.1,1c0,3.5,0,7,0,10.5c0,0.3,0,0.7,0,1.1
		c-0.9,0-1.6,0-2.5,0c0-0.4-0.1-0.8-0.1-1.2c0-7.5,0-15,0-22.5c0-1.5-0.4-2.1-1.4-2.1c-1,0-1.4,0.7-1.4,2.2c0,2.4,0,4.8,0,7.3
		c-1.7,0.3-1.8,0.2-1.8-1.4c0-2.9,0-5.7,0-8.6c0-2.7,1.8-4.5,4.5-4.4c0.4,0,0.8,0.2,1.2,0.3c1.9,0.9,3.8,0.9,5.7,0.1
		c2.6-1.2,5.7,0.6,5.8,3.5c0.1,3.3,0.1,6.5,0,9.8C902.1,106.7,901.1,106.1,900.3,106.2z"/>
	<path class="st2" d="M889.6,86c0-2.1,1.8-3.9,4-3.9c2.1,0,3.9,1.8,3.9,3.9c0,2.1-1.8,3.9-4,3.9C891.3,89.8,889.6,88.1,889.6,86z"/>
</g>
<g>
	<path class="st1" d="M865.9,79.5c0.1,0.1,0.3,0.1,0.4,0.2c4.1,1.1,6.1,5.1,4.6,9.1c-0.1,0.1-0.1,0.3-0.2,0.5
		c0.2,0.1,0.4,0.2,0.6,0.2c2.9,1,4.8,3.6,4.8,6.7c0,3.1,0,6.2,0,9.3c0,2.4-1.3,3.7-3.8,3.8c-0.2,0-0.5,0-0.9,0c0,0.4,0,0.7,0,1.1
		c0,4,0,7.9,0,11.9c0,2.4-1,3.4-3.4,3.4c-2.3,0-4.5,0-6.8,0c-2.4,0-3.4-1.1-3.4-3.4c0-3.9,0-7.9,0-11.8c0-0.3,0-0.7,0-1.2
		c-0.4,0-0.8,0-1.1,0c-2.1-0.1-3.5-1.4-3.5-3.5c0-2.9,0.1-5.8,0-8.7c-0.2-3.7,1.7-6.6,5.4-7.8c-0.2-0.5-0.4-1-0.5-1.6
		c-0.8-3.6,1.3-7,4.8-8c0.2-0.1,0.4-0.1,0.6-0.2C864.4,79.5,865.2,79.5,865.9,79.5z M871.6,106.5c0.8-0.2,1.8,0.4,1.8-0.9
		c0-3.3,0.1-6.5,0-9.8c-0.1-2.9-3.2-4.7-5.8-3.5c-1.9,0.9-3.8,0.8-5.7-0.1c-0.4-0.2-0.8-0.3-1.2-0.3c-2.6,0-4.5,1.8-4.5,4.4
		c0,2.9,0,5.7,0,8.6c0,1.5,0.2,1.7,1.8,1.4c0-2.4,0-4.8,0-7.3c0-1.5,0.5-2.2,1.4-2.2c1,0,1.4,0.7,1.4,2.1c0,7.5,0,15,0,22.5
		c0,0.4,0,0.8,0.1,1.2c0.9,0,1.7,0,2.5,0c0-0.4,0-0.8,0-1.1c0-3.5,0-7,0-10.5c0-0.3,0-0.7,0.1-1c0.1-0.7,0.6-1.1,1.4-1.1
		c0.7,0,1.2,0.4,1.3,1.1c0.1,0.3,0.1,0.7,0.1,1c0,3.5,0,7,0,10.6c0,0.3,0,0.7,0,1c0.9,0,1.7,0,2.6,0c0-0.4,0-0.8,0-1.2
		c0-7.5,0-14.9,0-22.4c0-0.4,0-0.8,0.1-1.1c0.1-0.7,0.6-1.1,1.4-1.1c0.7,0,1.2,0.5,1.3,1.2c0.1,0.4,0,0.8,0,1.2
		C871.6,101.7,871.6,104,871.6,106.5z M860.9,86.2c0,2.1,1.7,3.9,3.8,3.9c2.1,0,4-1.8,4-3.9c0-2.1-1.7-3.9-3.9-3.9
		C862.7,82.3,860.9,84.1,860.9,86.2z"/>
	<path class="st2" d="M871.6,106.5c0-2.5,0-4.8,0-7.1c0-0.4,0-0.8,0-1.2c-0.1-0.8-0.6-1.2-1.3-1.2c-0.7,0-1.2,0.4-1.4,1.1
		c-0.1,0.4-0.1,0.7-0.1,1.1c0,7.5,0,14.9,0,22.4c0,0.4,0,0.7,0,1.2c-0.9,0-1.7,0-2.6,0c0-0.4,0-0.7,0-1c0-3.5,0-7,0-10.6
		c0-0.3,0-0.7-0.1-1c-0.1-0.7-0.6-1.1-1.3-1.1c-0.8,0-1.2,0.4-1.4,1.1c-0.1,0.3-0.1,0.7-0.1,1c0,3.5,0,7,0,10.5c0,0.3,0,0.7,0,1.1
		c-0.9,0-1.6,0-2.5,0c0-0.4-0.1-0.8-0.1-1.2c0-7.5,0-15,0-22.5c0-1.5-0.4-2.1-1.4-2.1c-1,0-1.4,0.7-1.4,2.2c0,2.4,0,4.8,0,7.3
		c-1.7,0.3-1.8,0.2-1.8-1.4c0-2.9,0-5.7,0-8.6c0-2.7,1.8-4.5,4.5-4.4c0.4,0,0.8,0.2,1.2,0.3c1.9,0.9,3.8,0.9,5.7,0.1
		c2.6-1.2,5.7,0.6,5.8,3.5c0.1,3.3,0.1,6.5,0,9.8C873.4,106.9,872.4,106.3,871.6,106.5z"/>
	<path class="st2" d="M860.9,86.2c0-2.1,1.8-3.9,4-3.9c2.1,0,3.9,1.8,3.9,3.9c0,2.1-1.8,3.9-4,3.9C862.6,90.1,860.9,88.3,860.9,86.2
		z"/>
</g>
<g>
	<path class="st1" d="M865.9,245.5c0.1,0.1,0.3,0.1,0.4,0.2c4.1,1.1,6.1,5.1,4.6,9.1c-0.1,0.1-0.1,0.3-0.2,0.5
		c0.2,0.1,0.4,0.2,0.6,0.2c2.9,1,4.8,3.6,4.8,6.7c0,3.1,0,6.2,0,9.3c0,2.4-1.3,3.7-3.8,3.8c-0.2,0-0.5,0-0.9,0c0,0.4,0,0.7,0,1.1
		c0,4,0,7.9,0,11.9c0,2.4-1,3.4-3.4,3.4c-2.3,0-4.5,0-6.8,0c-2.4,0-3.4-1.1-3.4-3.4c0-3.9,0-7.9,0-11.8c0-0.3,0-0.7,0-1.2
		c-0.4,0-0.8,0-1.1,0c-2.1-0.1-3.5-1.4-3.5-3.5c0-2.9,0.1-5.8,0-8.7c-0.2-3.7,1.7-6.6,5.4-7.8c-0.2-0.5-0.4-1-0.5-1.6
		c-0.8-3.6,1.3-7,4.8-8c0.2-0.1,0.4-0.1,0.6-0.2C864.4,245.5,865.2,245.5,865.9,245.5z M871.6,272.5c0.8-0.2,1.8,0.4,1.8-0.9
		c0-3.3,0.1-6.5,0-9.8c-0.1-2.9-3.2-4.7-5.8-3.5c-1.9,0.9-3.8,0.8-5.7-0.1c-0.4-0.2-0.8-0.3-1.2-0.3c-2.6,0-4.5,1.8-4.5,4.4
		c0,2.9,0,5.7,0,8.6c0,1.5,0.2,1.7,1.8,1.4c0-2.4,0-4.8,0-7.3c0-1.5,0.5-2.2,1.4-2.2c1,0,1.4,0.7,1.4,2.1c0,7.5,0,15,0,22.5
		c0,0.4,0,0.8,0.1,1.2c0.9,0,1.7,0,2.5,0c0-0.4,0-0.8,0-1.1c0-3.5,0-7,0-10.5c0-0.3,0-0.7,0.1-1c0.1-0.7,0.6-1.1,1.4-1.1
		c0.7,0,1.2,0.4,1.3,1.1c0.1,0.3,0.1,0.7,0.1,1c0,3.5,0,7,0,10.6c0,0.3,0,0.7,0,1c0.9,0,1.7,0,2.6,0c0-0.4,0-0.8,0-1.2
		c0-7.5,0-14.9,0-22.4c0-0.4,0-0.8,0.1-1.1c0.1-0.7,0.6-1.1,1.4-1.1c0.7,0,1.2,0.5,1.3,1.2c0.1,0.4,0,0.8,0,1.2
		C871.6,267.7,871.6,270,871.6,272.5z M860.9,252.2c0,2.1,1.7,3.9,3.8,3.9c2.1,0,4-1.8,4-3.9c0-2.1-1.7-3.9-3.9-3.9
		C862.7,248.3,860.9,250.1,860.9,252.2z"/>
	<path class="st2" d="M871.6,272.5c0-2.5,0-4.8,0-7.1c0-0.4,0-0.8,0-1.2c-0.1-0.8-0.6-1.2-1.3-1.2c-0.7,0-1.2,0.4-1.4,1.1
		c-0.1,0.4-0.1,0.7-0.1,1.1c0,7.5,0,14.9,0,22.4c0,0.4,0,0.7,0,1.2c-0.9,0-1.7,0-2.6,0c0-0.4,0-0.7,0-1c0-3.5,0-7,0-10.6
		c0-0.3,0-0.7-0.1-1c-0.1-0.7-0.6-1.1-1.3-1.1c-0.8,0-1.2,0.4-1.4,1.1c-0.1,0.3-0.1,0.7-0.1,1c0,3.5,0,7,0,10.5c0,0.3,0,0.7,0,1.1
		c-0.9,0-1.6,0-2.5,0c0-0.4-0.1-0.8-0.1-1.2c0-7.5,0-15,0-22.5c0-1.5-0.4-2.1-1.4-2.1c-1,0-1.4,0.7-1.4,2.2c0,2.4,0,4.8,0,7.3
		c-1.7,0.3-1.8,0.2-1.8-1.4c0-2.9,0-5.7,0-8.6c0-2.7,1.8-4.5,4.5-4.4c0.4,0,0.8,0.2,1.2,0.3c1.9,0.9,3.8,0.9,5.7,0.1
		c2.6-1.2,5.7,0.6,5.8,3.5c0.1,3.3,0.1,6.5,0,9.8C873.4,272.9,872.4,272.3,871.6,272.5z"/>
	<path class="st2" d="M860.9,252.2c0-2.1,1.8-3.9,4-3.9c2.1,0,3.9,1.8,3.9,3.9c0,2.1-1.8,3.9-4,3.9
		C862.6,256.1,860.9,254.3,860.9,252.2z"/>
</g>
<g>
	<path class="st1" d="M977.2,135.9c0.1,0.1,0.3,0.1,0.4,0.2c4.1,1.1,6.1,5.1,4.6,9.1c-0.1,0.1-0.1,0.3-0.2,0.5
		c0.2,0.1,0.4,0.2,0.6,0.2c2.9,1,4.8,3.6,4.8,6.7c0,3.1,0,6.2,0,9.3c0,2.4-1.3,3.7-3.8,3.8c-0.2,0-0.5,0-0.9,0c0,0.4,0,0.7,0,1.1
		c0,4,0,7.9,0,11.9c0,2.4-1,3.4-3.4,3.4c-2.3,0-4.5,0-6.8,0c-2.4,0-3.4-1.1-3.4-3.4c0-3.9,0-7.9,0-11.8c0-0.3,0-0.7,0-1.2
		c-0.4,0-0.8,0-1.1,0c-2.1-0.1-3.5-1.4-3.5-3.5c0-2.9,0.1-5.8,0-8.7c-0.2-3.7,1.7-6.6,5.4-7.8c-0.2-0.5-0.4-1-0.5-1.6
		c-0.8-3.6,1.3-7,4.8-8c0.2-0.1,0.4-0.1,0.6-0.2C975.7,135.9,976.5,135.9,977.2,135.9z M982.9,162.9c0.8-0.2,1.8,0.4,1.8-0.9
		c0-3.3,0.1-6.5,0-9.8c-0.1-2.9-3.2-4.7-5.8-3.5c-1.9,0.9-3.8,0.8-5.7-0.1c-0.4-0.2-0.8-0.3-1.2-0.3c-2.6,0-4.5,1.8-4.5,4.4
		c0,2.9,0,5.7,0,8.6c0,1.5,0.2,1.7,1.8,1.4c0-2.4,0-4.8,0-7.3c0-1.5,0.5-2.2,1.4-2.2c1,0,1.4,0.7,1.4,2.1c0,7.5,0,15,0,22.5
		c0,0.4,0,0.8,0.1,1.2c0.9,0,1.7,0,2.5,0c0-0.4,0-0.8,0-1.1c0-3.5,0-7,0-10.5c0-0.3,0-0.7,0.1-1c0.1-0.7,0.6-1.1,1.4-1.1
		c0.7,0,1.2,0.4,1.3,1.1c0.1,0.3,0.1,0.7,0.1,1c0,3.5,0,7,0,10.6c0,0.3,0,0.7,0,1c0.9,0,1.7,0,2.6,0c0-0.4,0-0.8,0-1.2
		c0-7.5,0-14.9,0-22.4c0-0.4,0-0.8,0.1-1.1c0.1-0.7,0.6-1.1,1.4-1.1c0.7,0,1.2,0.5,1.3,1.2c0.1,0.4,0,0.8,0,1.2
		C982.9,158.1,982.9,160.4,982.9,162.9z M972.2,142.6c0,2.1,1.7,3.9,3.8,3.9c2.1,0,4-1.8,4-3.9c0-2.1-1.7-3.9-3.9-3.9
		C974,138.7,972.2,140.5,972.2,142.6z"/>
	<path class="st2" d="M982.9,162.9c0-2.5,0-4.8,0-7.1c0-0.4,0-0.8,0-1.2c-0.1-0.8-0.6-1.2-1.3-1.2c-0.7,0-1.2,0.4-1.4,1.1
		c-0.1,0.4-0.1,0.7-0.1,1.1c0,7.5,0,14.9,0,22.4c0,0.4,0,0.7,0,1.2c-0.9,0-1.7,0-2.6,0c0-0.4,0-0.7,0-1c0-3.5,0-7,0-10.6
		c0-0.3,0-0.7-0.1-1c-0.1-0.7-0.6-1.1-1.3-1.1c-0.8,0-1.2,0.4-1.4,1.1c-0.1,0.3-0.1,0.7-0.1,1c0,3.5,0,7,0,10.5c0,0.3,0,0.7,0,1.1
		c-0.9,0-1.6,0-2.5,0c0-0.4-0.1-0.8-0.1-1.2c0-7.5,0-15,0-22.5c0-1.5-0.4-2.1-1.4-2.1c-1,0-1.4,0.7-1.4,2.2c0,2.4,0,4.8,0,7.3
		c-1.7,0.3-1.8,0.2-1.8-1.4c0-2.9,0-5.7,0-8.6c0-2.7,1.8-4.5,4.5-4.4c0.4,0,0.8,0.2,1.2,0.3c1.9,0.9,3.8,0.9,5.7,0.1
		c2.6-1.2,5.7,0.6,5.8,3.5c0.1,3.3,0.1,6.5,0,9.8C984.7,163.3,983.7,162.7,982.9,162.9z"/>
	<path class="st2" d="M972.2,142.6c0-2.1,1.8-3.9,4-3.9c2.1,0,3.9,1.8,3.9,3.9c0,2.1-1.8,3.9-4,3.9
		C973.9,146.5,972.2,144.7,972.2,142.6z"/>
</g>
<g>
	<path class="st1" d="M950.6,135.4c0.1,0.1,0.3,0.1,0.4,0.2c4.1,1.1,6.1,5.1,4.6,9.1c-0.1,0.1-0.1,0.3-0.2,0.5
		c0.2,0.1,0.4,0.2,0.6,0.2c2.9,1,4.8,3.6,4.8,6.7c0,3.1,0,6.2,0,9.3c0,2.4-1.3,3.7-3.8,3.8c-0.2,0-0.5,0-0.9,0c0,0.4,0,0.7,0,1.1
		c0,4,0,7.9,0,11.9c0,2.4-1,3.4-3.4,3.4c-2.3,0-4.5,0-6.8,0c-2.4,0-3.4-1.1-3.4-3.4c0-3.9,0-7.9,0-11.8c0-0.3,0-0.7,0-1.2
		c-0.4,0-0.8,0-1.1,0c-2.1-0.1-3.5-1.4-3.5-3.5c0-2.9,0.1-5.8,0-8.7c-0.2-3.7,1.7-6.6,5.4-7.8c-0.2-0.5-0.4-1-0.5-1.6
		c-0.8-3.6,1.3-7,4.8-8c0.2-0.1,0.4-0.1,0.6-0.2C949.1,135.4,949.9,135.4,950.6,135.4z M956.3,162.4c0.8-0.2,1.8,0.4,1.8-0.9
		c0-3.3,0.1-6.5,0-9.8c-0.1-2.9-3.2-4.7-5.8-3.5c-1.9,0.9-3.8,0.8-5.7-0.1c-0.4-0.2-0.8-0.3-1.2-0.3c-2.6,0-4.5,1.8-4.5,4.4
		c0,2.9,0,5.7,0,8.6c0,1.5,0.2,1.7,1.8,1.4c0-2.4,0-4.8,0-7.3c0-1.5,0.5-2.2,1.4-2.2c1,0,1.4,0.7,1.4,2.1c0,7.5,0,15,0,22.5
		c0,0.4,0,0.8,0.1,1.2c0.9,0,1.7,0,2.5,0c0-0.4,0-0.8,0-1.1c0-3.5,0-7,0-10.5c0-0.3,0-0.7,0.1-1c0.1-0.7,0.6-1.1,1.4-1.1
		c0.7,0,1.2,0.4,1.3,1.1c0.1,0.3,0.1,0.7,0.1,1c0,3.5,0,7,0,10.6c0,0.3,0,0.7,0,1c0.9,0,1.7,0,2.6,0c0-0.4,0-0.8,0-1.2
		c0-7.5,0-14.9,0-22.4c0-0.4,0-0.8,0.1-1.1c0.1-0.7,0.6-1.1,1.4-1.1c0.7,0,1.2,0.5,1.3,1.2c0.1,0.4,0,0.8,0,1.2
		C956.3,157.6,956.3,159.9,956.3,162.4z M945.6,142.1c0,2.1,1.7,3.9,3.8,3.9c2.1,0,4-1.8,4-3.9c0-2.1-1.7-3.9-3.9-3.9
		C947.4,138.2,945.6,140,945.6,142.1z"/>
	<path class="st2" d="M956.3,162.4c0-2.5,0-4.8,0-7.1c0-0.4,0-0.8,0-1.2c-0.1-0.8-0.6-1.2-1.3-1.2c-0.7,0-1.2,0.4-1.4,1.1
		c-0.1,0.4-0.1,0.7-0.1,1.1c0,7.5,0,14.9,0,22.4c0,0.4,0,0.7,0,1.2c-0.9,0-1.7,0-2.6,0c0-0.4,0-0.7,0-1c0-3.5,0-7,0-10.6
		c0-0.3,0-0.7-0.1-1c-0.1-0.7-0.6-1.1-1.3-1.1c-0.8,0-1.2,0.4-1.4,1.1c-0.1,0.3-0.1,0.7-0.1,1c0,3.5,0,7,0,10.5c0,0.3,0,0.7,0,1.1
		c-0.9,0-1.6,0-2.5,0c0-0.4-0.1-0.8-0.1-1.2c0-7.5,0-15,0-22.5c0-1.5-0.4-2.1-1.4-2.1c-1,0-1.4,0.7-1.4,2.2c0,2.4,0,4.8,0,7.3
		c-1.7,0.3-1.8,0.2-1.8-1.4c0-2.9,0-5.7,0-8.6c0-2.7,1.8-4.5,4.5-4.4c0.4,0,0.8,0.2,1.2,0.3c1.9,0.9,3.8,0.9,5.7,0.1
		c2.6-1.2,5.7,0.6,5.8,3.5c0.1,3.3,0.1,6.5,0,9.8C958.1,162.8,957.1,162.2,956.3,162.4z"/>
	<path class="st2" d="M945.6,142.1c0-2.1,1.8-3.9,4-3.9c2.1,0,3.9,1.8,3.9,3.9c0,2.1-1.8,3.9-4,3.9
		C947.3,146,945.6,144.2,945.6,142.1z"/>
</g>
<g>
	<path class="st1" d="M921.9,135.7c0.1,0.1,0.3,0.1,0.4,0.2c4.1,1.1,6.1,5.1,4.6,9.1c-0.1,0.1-0.1,0.3-0.2,0.5
		c0.2,0.1,0.4,0.2,0.6,0.2c2.9,1,4.8,3.6,4.8,6.7c0,3.1,0,6.2,0,9.3c0,2.4-1.3,3.7-3.8,3.8c-0.2,0-0.5,0-0.9,0c0,0.4,0,0.7,0,1.1
		c0,4,0,7.9,0,11.9c0,2.4-1,3.4-3.4,3.4c-2.3,0-4.5,0-6.8,0c-2.4,0-3.4-1.1-3.4-3.4c0-3.9,0-7.9,0-11.8c0-0.3,0-0.7,0-1.2
		c-0.4,0-0.8,0-1.1,0c-2.1-0.1-3.5-1.4-3.5-3.5c0-2.9,0.1-5.8,0-8.7c-0.2-3.7,1.7-6.6,5.4-7.8c-0.2-0.5-0.4-1-0.5-1.6
		c-0.8-3.6,1.3-7,4.8-8c0.2-0.1,0.4-0.1,0.6-0.2C920.4,135.7,921.2,135.7,921.9,135.7z M927.6,162.6c0.8-0.2,1.8,0.4,1.8-0.9
		c0-3.3,0.1-6.5,0-9.8c-0.1-2.9-3.2-4.7-5.8-3.5c-1.9,0.9-3.8,0.8-5.7-0.1c-0.4-0.2-0.8-0.3-1.2-0.3c-2.6,0-4.5,1.8-4.5,4.4
		c0,2.9,0,5.7,0,8.6c0,1.5,0.2,1.7,1.8,1.4c0-2.4,0-4.8,0-7.3c0-1.5,0.5-2.2,1.4-2.2c1,0,1.4,0.7,1.4,2.1c0,7.5,0,15,0,22.5
		c0,0.4,0,0.8,0.1,1.2c0.9,0,1.7,0,2.5,0c0-0.4,0-0.8,0-1.1c0-3.5,0-7,0-10.5c0-0.3,0-0.7,0.1-1c0.1-0.7,0.6-1.1,1.4-1.1
		c0.7,0,1.2,0.4,1.3,1.1c0.1,0.3,0.1,0.7,0.1,1c0,3.5,0,7,0,10.6c0,0.3,0,0.7,0,1c0.9,0,1.7,0,2.6,0c0-0.4,0-0.8,0-1.2
		c0-7.5,0-14.9,0-22.4c0-0.4,0-0.8,0.1-1.1c0.1-0.7,0.6-1.1,1.4-1.1c0.7,0,1.2,0.5,1.3,1.2c0.1,0.4,0,0.8,0,1.2
		C927.6,157.8,927.6,160.2,927.6,162.6z M916.9,142.4c0,2.1,1.7,3.9,3.8,3.9c2.1,0,4-1.8,4-3.9c0-2.1-1.7-3.9-3.9-3.9
		C918.7,138.5,916.9,140.2,916.9,142.4z"/>
	<path class="st2" d="M927.6,162.6c0-2.5,0-4.8,0-7.1c0-0.4,0-0.8,0-1.2c-0.1-0.8-0.6-1.2-1.3-1.2c-0.7,0-1.2,0.4-1.4,1.1
		c-0.1,0.4-0.1,0.7-0.1,1.1c0,7.5,0,14.9,0,22.4c0,0.4,0,0.7,0,1.2c-0.9,0-1.7,0-2.6,0c0-0.4,0-0.7,0-1c0-3.5,0-7,0-10.6
		c0-0.3,0-0.7-0.1-1c-0.1-0.7-0.6-1.1-1.3-1.1c-0.8,0-1.2,0.4-1.4,1.1c-0.1,0.3-0.1,0.7-0.1,1c0,3.5,0,7,0,10.5c0,0.3,0,0.7,0,1.1
		c-0.9,0-1.6,0-2.5,0c0-0.4-0.1-0.8-0.1-1.2c0-7.5,0-15,0-22.5c0-1.5-0.4-2.1-1.4-2.1c-1,0-1.4,0.7-1.4,2.2c0,2.4,0,4.8,0,7.3
		c-1.7,0.3-1.8,0.2-1.8-1.4c0-2.9,0-5.7,0-8.6c0-2.7,1.8-4.5,4.5-4.4c0.4,0,0.8,0.2,1.2,0.3c1.9,0.9,3.8,0.9,5.7,0.1
		c2.6-1.2,5.7,0.6,5.8,3.5c0.1,3.3,0.1,6.5,0,9.8C929.4,163,928.4,162.5,927.6,162.6z"/>
	<path class="st2" d="M916.9,142.4c0-2.1,1.8-3.9,4-3.9c2.1,0,3.9,1.8,3.9,3.9c0,2.1-1.8,3.9-4,3.9
		C918.6,146.2,916.9,144.5,916.9,142.4z"/>
</g>
<g>
	<path class="st1" d="M895.3,135.2c0.1,0.1,0.3,0.1,0.4,0.2c4.1,1.1,6.1,5.1,4.6,9.1c-0.1,0.1-0.1,0.3-0.2,0.5
		c0.2,0.1,0.4,0.2,0.6,0.2c2.9,1,4.8,3.6,4.8,6.7c0,3.1,0,6.2,0,9.3c0,2.4-1.3,3.7-3.8,3.8c-0.2,0-0.5,0-0.9,0c0,0.4,0,0.7,0,1.1
		c0,4,0,7.9,0,11.9c0,2.4-1,3.4-3.4,3.4c-2.3,0-4.5,0-6.8,0c-2.4,0-3.4-1.1-3.4-3.4c0-3.9,0-7.9,0-11.8c0-0.3,0-0.7,0-1.2
		c-0.4,0-0.8,0-1.1,0c-2.1-0.1-3.5-1.4-3.5-3.5c0-2.9,0.1-5.8,0-8.7c-0.2-3.7,1.7-6.6,5.4-7.8c-0.2-0.5-0.4-1-0.5-1.6
		c-0.8-3.6,1.3-7,4.8-8c0.2-0.1,0.4-0.1,0.6-0.2C893.8,135.2,894.6,135.2,895.3,135.2z M901,162.1c0.8-0.2,1.8,0.4,1.8-0.9
		c0-3.3,0.1-6.5,0-9.8c-0.1-2.9-3.2-4.7-5.8-3.5c-1.9,0.9-3.8,0.8-5.7-0.1c-0.4-0.2-0.8-0.3-1.2-0.3c-2.6,0-4.5,1.8-4.5,4.4
		c0,2.9,0,5.7,0,8.6c0,1.5,0.2,1.7,1.8,1.4c0-2.4,0-4.8,0-7.3c0-1.5,0.5-2.2,1.4-2.2c1,0,1.4,0.7,1.4,2.1c0,7.5,0,15,0,22.5
		c0,0.4,0,0.8,0.1,1.2c0.9,0,1.7,0,2.5,0c0-0.4,0-0.8,0-1.1c0-3.5,0-7,0-10.5c0-0.3,0-0.7,0.1-1c0.1-0.7,0.6-1.1,1.4-1.1
		c0.7,0,1.2,0.4,1.3,1.1c0.1,0.3,0.1,0.7,0.1,1c0,3.5,0,7,0,10.6c0,0.3,0,0.7,0,1c0.9,0,1.7,0,2.6,0c0-0.4,0-0.8,0-1.2
		c0-7.5,0-14.9,0-22.4c0-0.4,0-0.8,0.1-1.1c0.1-0.7,0.6-1.1,1.4-1.1c0.7,0,1.2,0.5,1.3,1.2c0.1,0.4,0,0.8,0,1.2
		C901,157.3,901,159.6,901,162.1z M890.3,141.8c0,2.1,1.7,3.9,3.8,3.9c2.1,0,4-1.8,4-3.9c0-2.1-1.7-3.9-3.9-3.9
		C892.1,137.9,890.3,139.7,890.3,141.8z"/>
	<path class="st2" d="M901,162.1c0-2.5,0-4.8,0-7.1c0-0.4,0-0.8,0-1.2c-0.1-0.8-0.6-1.2-1.3-1.2c-0.7,0-1.2,0.4-1.4,1.1
		c-0.1,0.4-0.1,0.7-0.1,1.1c0,7.5,0,14.9,0,22.4c0,0.4,0,0.7,0,1.2c-0.9,0-1.7,0-2.6,0c0-0.4,0-0.7,0-1c0-3.5,0-7,0-10.6
		c0-0.3,0-0.7-0.1-1c-0.1-0.7-0.6-1.1-1.3-1.1c-0.8,0-1.2,0.4-1.4,1.1c-0.1,0.3-0.1,0.7-0.1,1c0,3.5,0,7,0,10.5c0,0.3,0,0.7,0,1.1
		c-0.9,0-1.6,0-2.5,0c0-0.4-0.1-0.8-0.1-1.2c0-7.5,0-15,0-22.5c0-1.5-0.4-2.1-1.4-2.1c-1,0-1.4,0.7-1.4,2.2c0,2.4,0,4.8,0,7.3
		c-1.7,0.3-1.8,0.2-1.8-1.4c0-2.9,0-5.7,0-8.6c0-2.7,1.8-4.5,4.5-4.4c0.4,0,0.8,0.2,1.2,0.3c1.9,0.9,3.8,0.9,5.7,0.1
		c2.6-1.2,5.7,0.6,5.8,3.5c0.1,3.3,0.1,6.5,0,9.8C902.8,162.5,901.8,161.9,901,162.1z"/>
	<path class="st2" d="M890.3,141.8c0-2.1,1.8-3.9,4-3.9c2.1,0,3.9,1.8,3.9,3.9c0,2.1-1.8,3.9-4,3.9
		C892,145.7,890.3,143.9,890.3,141.8z"/>
</g>
<g>
	<path class="st1" d="M866.6,135.4c0.1,0.1,0.3,0.1,0.4,0.2c4.1,1.1,6.1,5.1,4.6,9.1c-0.1,0.1-0.1,0.3-0.2,0.5
		c0.2,0.1,0.4,0.2,0.6,0.2c2.9,1,4.8,3.6,4.8,6.7c0,3.1,0,6.2,0,9.3c0,2.4-1.3,3.7-3.8,3.8c-0.2,0-0.5,0-0.9,0c0,0.4,0,0.7,0,1.1
		c0,4,0,7.9,0,11.9c0,2.4-1,3.4-3.4,3.4c-2.3,0-4.5,0-6.8,0c-2.4,0-3.4-1.1-3.4-3.4c0-3.9,0-7.9,0-11.8c0-0.3,0-0.7,0-1.2
		c-0.4,0-0.8,0-1.1,0c-2.1-0.1-3.5-1.4-3.5-3.5c0-2.9,0.1-5.8,0-8.7c-0.2-3.7,1.7-6.6,5.4-7.8c-0.2-0.5-0.4-1-0.5-1.6
		c-0.8-3.6,1.3-7,4.8-8c0.2-0.1,0.4-0.1,0.6-0.2C865.1,135.4,865.9,135.4,866.6,135.4z M872.3,162.4c0.8-0.2,1.8,0.4,1.8-0.9
		c0-3.3,0.1-6.5,0-9.8c-0.1-2.9-3.2-4.7-5.8-3.5c-1.9,0.9-3.8,0.8-5.7-0.1c-0.4-0.2-0.8-0.3-1.2-0.3c-2.6,0-4.5,1.8-4.5,4.4
		c0,2.9,0,5.7,0,8.6c0,1.5,0.2,1.7,1.8,1.4c0-2.4,0-4.8,0-7.3c0-1.5,0.5-2.2,1.4-2.2c1,0,1.4,0.7,1.4,2.1c0,7.5,0,15,0,22.5
		c0,0.4,0,0.8,0.1,1.2c0.9,0,1.7,0,2.5,0c0-0.4,0-0.8,0-1.1c0-3.5,0-7,0-10.5c0-0.3,0-0.7,0.1-1c0.1-0.7,0.6-1.1,1.4-1.1
		c0.7,0,1.2,0.4,1.3,1.1c0.1,0.3,0.1,0.7,0.1,1c0,3.5,0,7,0,10.6c0,0.3,0,0.7,0,1c0.9,0,1.7,0,2.6,0c0-0.4,0-0.8,0-1.2
		c0-7.5,0-14.9,0-22.4c0-0.4,0-0.8,0.1-1.1c0.1-0.7,0.6-1.1,1.4-1.1c0.7,0,1.2,0.5,1.3,1.2c0.1,0.4,0,0.8,0,1.2
		C872.3,157.6,872.3,159.9,872.3,162.4z M861.6,142.1c0,2.1,1.7,3.9,3.8,3.9c2.1,0,4-1.8,4-3.9c0-2.1-1.7-3.9-3.9-3.9
		C863.4,138.2,861.6,140,861.6,142.1z"/>
	<path class="st2" d="M872.3,162.4c0-2.5,0-4.8,0-7.1c0-0.4,0-0.8,0-1.2c-0.1-0.8-0.6-1.2-1.3-1.2c-0.7,0-1.2,0.4-1.4,1.1
		c-0.1,0.4-0.1,0.7-0.1,1.1c0,7.5,0,14.9,0,22.4c0,0.4,0,0.7,0,1.2c-0.9,0-1.7,0-2.6,0c0-0.4,0-0.7,0-1c0-3.5,0-7,0-10.6
		c0-0.3,0-0.7-0.1-1c-0.1-0.7-0.6-1.1-1.3-1.1c-0.8,0-1.2,0.4-1.4,1.1c-0.1,0.3-0.1,0.7-0.1,1c0,3.5,0,7,0,10.5c0,0.3,0,0.7,0,1.1
		c-0.9,0-1.6,0-2.5,0c0-0.4-0.1-0.8-0.1-1.2c0-7.5,0-15,0-22.5c0-1.5-0.4-2.1-1.4-2.1c-1,0-1.4,0.7-1.4,2.2c0,2.4,0,4.8,0,7.3
		c-1.7,0.3-1.8,0.2-1.8-1.4c0-2.9,0-5.7,0-8.6c0-2.7,1.8-4.5,4.5-4.4c0.4,0,0.8,0.2,1.2,0.3c1.9,0.9,3.8,0.9,5.7,0.1
		c2.6-1.2,5.7,0.6,5.8,3.5c0.1,3.3,0.1,6.5,0,9.8C874.1,162.8,873.1,162.2,872.3,162.4z"/>
	<path class="st2" d="M861.6,142.1c0-2.1,1.8-3.9,4-3.9c2.1,0,3.9,1.8,3.9,3.9c0,2.1-1.8,3.9-4,3.9
		C863.3,146,861.6,144.2,861.6,142.1z"/>
</g>
<g>
	<path class="st1" d="M976.2,190.9c0.1,0.1,0.3,0.1,0.4,0.2c4.1,1.1,6.1,5.1,4.6,9.1c-0.1,0.1-0.1,0.3-0.2,0.5
		c0.2,0.1,0.4,0.2,0.6,0.2c2.9,1,4.8,3.6,4.8,6.7c0,3.1,0,6.2,0,9.3c0,2.4-1.3,3.7-3.8,3.8c-0.2,0-0.5,0-0.9,0c0,0.4,0,0.7,0,1.1
		c0,4,0,7.9,0,11.9c0,2.4-1,3.4-3.4,3.4c-2.3,0-4.5,0-6.8,0c-2.4,0-3.4-1.1-3.4-3.4c0-3.9,0-7.9,0-11.8c0-0.3,0-0.7,0-1.2
		c-0.4,0-0.8,0-1.1,0c-2.1-0.1-3.5-1.4-3.5-3.5c0-2.9,0.1-5.8,0-8.7c-0.2-3.7,1.7-6.6,5.4-7.8c-0.2-0.5-0.4-1-0.5-1.6
		c-0.8-3.6,1.3-7,4.8-8c0.2-0.1,0.4-0.1,0.6-0.2C974.7,190.9,975.5,190.9,976.2,190.9z M981.9,217.9c0.8-0.2,1.8,0.4,1.8-0.9
		c0-3.3,0.1-6.5,0-9.8c-0.1-2.9-3.2-4.7-5.8-3.5c-1.9,0.9-3.8,0.8-5.7-0.1c-0.4-0.2-0.8-0.3-1.2-0.3c-2.6,0-4.5,1.8-4.5,4.4
		c0,2.9,0,5.7,0,8.6c0,1.5,0.2,1.7,1.8,1.4c0-2.4,0-4.8,0-7.3c0-1.5,0.5-2.2,1.4-2.2c1,0,1.4,0.7,1.4,2.1c0,7.5,0,15,0,22.5
		c0,0.4,0,0.8,0.1,1.2c0.9,0,1.7,0,2.5,0c0-0.4,0-0.8,0-1.1c0-3.5,0-7,0-10.5c0-0.3,0-0.7,0.1-1c0.1-0.7,0.6-1.1,1.4-1.1
		c0.7,0,1.2,0.4,1.3,1.1c0.1,0.3,0.1,0.7,0.1,1c0,3.5,0,7,0,10.6c0,0.3,0,0.7,0,1c0.9,0,1.7,0,2.6,0c0-0.4,0-0.8,0-1.2
		c0-7.5,0-14.9,0-22.4c0-0.4,0-0.8,0.1-1.1c0.1-0.7,0.6-1.1,1.4-1.1c0.7,0,1.2,0.5,1.3,1.2c0.1,0.4,0,0.8,0,1.2
		C981.9,213.1,981.9,215.4,981.9,217.9z M971.2,197.6c0,2.1,1.7,3.9,3.8,3.9c2.1,0,4-1.8,4-3.9c0-2.1-1.7-3.9-3.9-3.9
		C973,193.7,971.2,195.5,971.2,197.6z"/>
	<path class="st2" d="M981.9,217.9c0-2.5,0-4.8,0-7.1c0-0.4,0-0.8,0-1.2c-0.1-0.8-0.6-1.2-1.3-1.2c-0.7,0-1.2,0.4-1.4,1.1
		c-0.1,0.4-0.1,0.7-0.1,1.1c0,7.5,0,14.9,0,22.4c0,0.4,0,0.7,0,1.2c-0.9,0-1.7,0-2.6,0c0-0.4,0-0.7,0-1c0-3.5,0-7,0-10.6
		c0-0.3,0-0.7-0.1-1c-0.1-0.7-0.6-1.1-1.3-1.1c-0.8,0-1.2,0.4-1.4,1.1c-0.1,0.3-0.1,0.7-0.1,1c0,3.5,0,7,0,10.5c0,0.3,0,0.7,0,1.1
		c-0.9,0-1.6,0-2.5,0c0-0.4-0.1-0.8-0.1-1.2c0-7.5,0-15,0-22.5c0-1.5-0.4-2.1-1.4-2.1c-1,0-1.4,0.7-1.4,2.2c0,2.4,0,4.8,0,7.3
		c-1.7,0.3-1.8,0.2-1.8-1.4c0-2.9,0-5.7,0-8.6c0-2.7,1.8-4.5,4.5-4.4c0.4,0,0.8,0.2,1.2,0.3c1.9,0.9,3.8,0.9,5.7,0.1
		c2.6-1.2,5.7,0.6,5.8,3.5c0.1,3.3,0.1,6.5,0,9.8C983.7,218.3,982.7,217.7,981.9,217.9z"/>
	<path class="st2" d="M971.2,197.6c0-2.1,1.8-3.9,4-3.9c2.1,0,3.9,1.8,3.9,3.9c0,2.1-1.8,3.9-4,3.9
		C972.9,201.5,971.2,199.7,971.2,197.6z"/>
</g>
<g>
	<path class="st1" d="M949.6,190.4c0.1,0.1,0.3,0.1,0.4,0.2c4.1,1.1,6.1,5.1,4.6,9.1c-0.1,0.1-0.1,0.3-0.2,0.5
		c0.2,0.1,0.4,0.2,0.6,0.2c2.9,1,4.8,3.6,4.8,6.7c0,3.1,0,6.2,0,9.3c0,2.4-1.3,3.7-3.8,3.8c-0.2,0-0.5,0-0.9,0c0,0.4,0,0.7,0,1.1
		c0,4,0,7.9,0,11.9c0,2.4-1,3.4-3.4,3.4c-2.3,0-4.5,0-6.8,0c-2.4,0-3.4-1.1-3.4-3.4c0-3.9,0-7.9,0-11.8c0-0.3,0-0.7,0-1.2
		c-0.4,0-0.8,0-1.1,0c-2.1-0.1-3.5-1.4-3.5-3.5c0-2.9,0.1-5.8,0-8.7c-0.2-3.7,1.7-6.6,5.4-7.8c-0.2-0.5-0.4-1-0.5-1.6
		c-0.8-3.6,1.3-7,4.8-8c0.2-0.1,0.4-0.1,0.6-0.2C948.1,190.4,948.9,190.4,949.6,190.4z M955.3,217.4c0.8-0.2,1.8,0.4,1.8-0.9
		c0-3.3,0.1-6.5,0-9.8c-0.1-2.9-3.2-4.7-5.8-3.5c-1.9,0.9-3.8,0.8-5.7-0.1c-0.4-0.2-0.8-0.3-1.2-0.3c-2.6,0-4.5,1.8-4.5,4.4
		c0,2.9,0,5.7,0,8.6c0,1.5,0.2,1.7,1.8,1.4c0-2.4,0-4.8,0-7.3c0-1.5,0.5-2.2,1.4-2.2c1,0,1.4,0.7,1.4,2.1c0,7.5,0,15,0,22.5
		c0,0.4,0,0.8,0.1,1.2c0.9,0,1.7,0,2.5,0c0-0.4,0-0.8,0-1.1c0-3.5,0-7,0-10.5c0-0.3,0-0.7,0.1-1c0.1-0.7,0.6-1.1,1.4-1.1
		c0.7,0,1.2,0.4,1.3,1.1c0.1,0.3,0.1,0.7,0.1,1c0,3.5,0,7,0,10.6c0,0.3,0,0.7,0,1c0.9,0,1.7,0,2.6,0c0-0.4,0-0.8,0-1.2
		c0-7.5,0-14.9,0-22.4c0-0.4,0-0.8,0.1-1.1c0.1-0.7,0.6-1.1,1.4-1.1c0.7,0,1.2,0.5,1.3,1.2c0.1,0.4,0,0.8,0,1.2
		C955.3,212.6,955.3,214.9,955.3,217.4z M944.6,197.1c0,2.1,1.7,3.9,3.8,3.9c2.1,0,4-1.8,4-3.9c0-2.1-1.7-3.9-3.9-3.9
		C946.4,193.2,944.6,195,944.6,197.1z"/>
	<path class="st2" d="M955.3,217.4c0-2.5,0-4.8,0-7.1c0-0.4,0-0.8,0-1.2c-0.1-0.8-0.6-1.2-1.3-1.2c-0.7,0-1.2,0.4-1.4,1.1
		c-0.1,0.4-0.1,0.7-0.1,1.1c0,7.5,0,14.9,0,22.4c0,0.4,0,0.7,0,1.2c-0.9,0-1.7,0-2.6,0c0-0.4,0-0.7,0-1c0-3.5,0-7,0-10.6
		c0-0.3,0-0.7-0.1-1c-0.1-0.7-0.6-1.1-1.3-1.1c-0.8,0-1.2,0.4-1.4,1.1c-0.1,0.3-0.1,0.7-0.1,1c0,3.5,0,7,0,10.5c0,0.3,0,0.7,0,1.1
		c-0.9,0-1.6,0-2.5,0c0-0.4-0.1-0.8-0.1-1.2c0-7.5,0-15,0-22.5c0-1.5-0.4-2.1-1.4-2.1c-1,0-1.4,0.7-1.4,2.2c0,2.4,0,4.8,0,7.3
		c-1.7,0.3-1.8,0.2-1.8-1.4c0-2.9,0-5.7,0-8.6c0-2.7,1.8-4.5,4.5-4.4c0.4,0,0.8,0.2,1.2,0.3c1.9,0.9,3.8,0.9,5.7,0.1
		c2.6-1.2,5.7,0.6,5.8,3.5c0.1,3.3,0.1,6.5,0,9.8C957.1,217.8,956.1,217.2,955.3,217.4z"/>
	<path class="st2" d="M944.6,197.1c0-2.1,1.8-3.9,4-3.9c2.1,0,3.9,1.8,3.9,3.9c0,2.1-1.8,3.9-4,3.9
		C946.3,201,944.6,199.2,944.6,197.1z"/>
</g>
<g>
	<path class="st1" d="M920.9,190.7c0.1,0.1,0.3,0.1,0.4,0.2c4.1,1.1,6.1,5.1,4.6,9.1c-0.1,0.1-0.1,0.3-0.2,0.5
		c0.2,0.1,0.4,0.2,0.6,0.2c2.9,1,4.8,3.6,4.8,6.7c0,3.1,0,6.2,0,9.3c0,2.4-1.3,3.7-3.8,3.8c-0.2,0-0.5,0-0.9,0c0,0.4,0,0.7,0,1.1
		c0,4,0,7.9,0,11.9c0,2.4-1,3.4-3.4,3.4c-2.3,0-4.5,0-6.8,0c-2.4,0-3.4-1.1-3.4-3.4c0-3.9,0-7.9,0-11.8c0-0.3,0-0.7,0-1.2
		c-0.4,0-0.8,0-1.1,0c-2.1-0.1-3.5-1.4-3.5-3.5c0-2.9,0.1-5.8,0-8.7c-0.2-3.7,1.7-6.6,5.4-7.8c-0.2-0.5-0.4-1-0.5-1.6
		c-0.8-3.6,1.3-7,4.8-8c0.2-0.1,0.4-0.1,0.6-0.2C919.4,190.7,920.2,190.7,920.9,190.7z M926.6,217.6c0.8-0.2,1.8,0.4,1.8-0.9
		c0-3.3,0.1-6.5,0-9.8c-0.1-2.9-3.2-4.7-5.8-3.5c-1.9,0.9-3.8,0.8-5.7-0.1c-0.4-0.2-0.8-0.3-1.2-0.3c-2.6,0-4.5,1.8-4.5,4.4
		c0,2.9,0,5.7,0,8.6c0,1.5,0.2,1.7,1.8,1.4c0-2.4,0-4.8,0-7.3c0-1.5,0.5-2.2,1.4-2.2c1,0,1.4,0.7,1.4,2.1c0,7.5,0,15,0,22.5
		c0,0.4,0,0.8,0.1,1.2c0.9,0,1.7,0,2.5,0c0-0.4,0-0.8,0-1.1c0-3.5,0-7,0-10.5c0-0.3,0-0.7,0.1-1c0.1-0.7,0.6-1.1,1.4-1.1
		c0.7,0,1.2,0.4,1.3,1.1c0.1,0.3,0.1,0.7,0.1,1c0,3.5,0,7,0,10.6c0,0.3,0,0.7,0,1c0.9,0,1.7,0,2.6,0c0-0.4,0-0.8,0-1.2
		c0-7.5,0-14.9,0-22.4c0-0.4,0-0.8,0.1-1.1c0.1-0.7,0.6-1.1,1.4-1.1c0.7,0,1.2,0.5,1.3,1.2c0.1,0.4,0,0.8,0,1.2
		C926.6,212.8,926.6,215.2,926.6,217.6z M915.9,197.4c0,2.1,1.7,3.9,3.8,3.9c2.1,0,4-1.8,4-3.9c0-2.1-1.7-3.9-3.9-3.9
		C917.7,193.5,915.9,195.2,915.9,197.4z"/>
	<path class="st2" d="M926.6,217.6c0-2.5,0-4.8,0-7.1c0-0.4,0-0.8,0-1.2c-0.1-0.8-0.6-1.2-1.3-1.2c-0.7,0-1.2,0.4-1.4,1.1
		c-0.1,0.4-0.1,0.7-0.1,1.1c0,7.5,0,14.9,0,22.4c0,0.4,0,0.7,0,1.2c-0.9,0-1.7,0-2.6,0c0-0.4,0-0.7,0-1c0-3.5,0-7,0-10.6
		c0-0.3,0-0.7-0.1-1c-0.1-0.7-0.6-1.1-1.3-1.1c-0.8,0-1.2,0.4-1.4,1.1c-0.1,0.3-0.1,0.7-0.1,1c0,3.5,0,7,0,10.5c0,0.3,0,0.7,0,1.1
		c-0.9,0-1.6,0-2.5,0c0-0.4-0.1-0.8-0.1-1.2c0-7.5,0-15,0-22.5c0-1.5-0.4-2.1-1.4-2.1c-1,0-1.4,0.7-1.4,2.2c0,2.4,0,4.8,0,7.3
		c-1.7,0.3-1.8,0.2-1.8-1.4c0-2.9,0-5.7,0-8.6c0-2.7,1.8-4.5,4.5-4.4c0.4,0,0.8,0.2,1.2,0.3c1.9,0.9,3.8,0.9,5.7,0.1
		c2.6-1.2,5.7,0.6,5.8,3.5c0.1,3.3,0.1,6.5,0,9.8C928.4,218,927.4,217.5,926.6,217.6z"/>
	<path class="st2" d="M915.9,197.4c0-2.1,1.8-3.9,4-3.9c2.1,0,3.9,1.8,3.9,3.9c0,2.1-1.8,3.9-4,3.9
		C917.6,201.2,915.9,199.5,915.9,197.4z"/>
</g>
<g>
	<path class="st1" d="M894.3,190.2c0.1,0.1,0.3,0.1,0.4,0.2c4.1,1.1,6.1,5.1,4.6,9.1c-0.1,0.1-0.1,0.3-0.2,0.5
		c0.2,0.1,0.4,0.2,0.6,0.2c2.9,1,4.8,3.6,4.8,6.7c0,3.1,0,6.2,0,9.3c0,2.4-1.3,3.7-3.8,3.8c-0.2,0-0.5,0-0.9,0c0,0.4,0,0.7,0,1.1
		c0,4,0,7.9,0,11.9c0,2.4-1,3.4-3.4,3.4c-2.3,0-4.5,0-6.8,0c-2.4,0-3.4-1.1-3.4-3.4c0-3.9,0-7.9,0-11.8c0-0.3,0-0.7,0-1.2
		c-0.4,0-0.8,0-1.1,0c-2.1-0.1-3.5-1.4-3.5-3.5c0-2.9,0.1-5.8,0-8.7c-0.2-3.7,1.7-6.6,5.4-7.8c-0.2-0.5-0.4-1-0.5-1.6
		c-0.8-3.6,1.3-7,4.8-8c0.2-0.1,0.4-0.1,0.6-0.2C892.8,190.2,893.6,190.2,894.3,190.2z M900,217.1c0.8-0.2,1.8,0.4,1.8-0.9
		c0-3.3,0.1-6.5,0-9.8c-0.1-2.9-3.2-4.7-5.8-3.5c-1.9,0.9-3.8,0.8-5.7-0.1c-0.4-0.2-0.8-0.3-1.2-0.3c-2.6,0-4.5,1.8-4.5,4.4
		c0,2.9,0,5.7,0,8.6c0,1.5,0.2,1.7,1.8,1.4c0-2.4,0-4.8,0-7.3c0-1.5,0.5-2.2,1.4-2.2c1,0,1.4,0.7,1.4,2.1c0,7.5,0,15,0,22.5
		c0,0.4,0,0.8,0.1,1.2c0.9,0,1.7,0,2.5,0c0-0.4,0-0.8,0-1.1c0-3.5,0-7,0-10.5c0-0.3,0-0.7,0.1-1c0.1-0.7,0.6-1.1,1.4-1.1
		c0.7,0,1.2,0.4,1.3,1.1c0.1,0.3,0.1,0.7,0.1,1c0,3.5,0,7,0,10.6c0,0.3,0,0.7,0,1c0.9,0,1.7,0,2.6,0c0-0.4,0-0.8,0-1.2
		c0-7.5,0-14.9,0-22.4c0-0.4,0-0.8,0.1-1.1c0.1-0.7,0.6-1.1,1.4-1.1c0.7,0,1.2,0.5,1.3,1.2c0.1,0.4,0,0.8,0,1.2
		C900,212.3,900,214.6,900,217.1z M889.3,196.8c0,2.1,1.7,3.9,3.8,3.9c2.1,0,4-1.8,4-3.9c0-2.1-1.7-3.9-3.9-3.9
		C891.1,192.9,889.3,194.7,889.3,196.8z"/>
	<path class="st2" d="M900,217.1c0-2.5,0-4.8,0-7.1c0-0.4,0-0.8,0-1.2c-0.1-0.8-0.6-1.2-1.3-1.2c-0.7,0-1.2,0.4-1.4,1.1
		c-0.1,0.4-0.1,0.7-0.1,1.1c0,7.5,0,14.9,0,22.4c0,0.4,0,0.7,0,1.2c-0.9,0-1.7,0-2.6,0c0-0.4,0-0.7,0-1c0-3.5,0-7,0-10.6
		c0-0.3,0-0.7-0.1-1c-0.1-0.7-0.6-1.1-1.3-1.1c-0.8,0-1.2,0.4-1.4,1.1c-0.1,0.3-0.1,0.7-0.1,1c0,3.5,0,7,0,10.5c0,0.3,0,0.7,0,1.1
		c-0.9,0-1.6,0-2.5,0c0-0.4-0.1-0.8-0.1-1.2c0-7.5,0-15,0-22.5c0-1.5-0.4-2.1-1.4-2.1c-1,0-1.4,0.7-1.4,2.2c0,2.4,0,4.8,0,7.3
		c-1.7,0.3-1.8,0.2-1.8-1.4c0-2.9,0-5.7,0-8.6c0-2.7,1.8-4.5,4.5-4.4c0.4,0,0.8,0.2,1.2,0.3c1.9,0.9,3.8,0.9,5.7,0.1
		c2.6-1.2,5.7,0.6,5.8,3.5c0.1,3.3,0.1,6.5,0,9.8C901.8,217.5,900.8,216.9,900,217.1z"/>
	<path class="st2" d="M889.3,196.8c0-2.1,1.8-3.9,4-3.9c2.1,0,3.9,1.8,3.9,3.9c0,2.1-1.8,3.9-4,3.9
		C891,200.7,889.3,198.9,889.3,196.8z"/>
</g>
<g>
	<path class="st1" d="M865.6,190.4c0.1,0.1,0.3,0.1,0.4,0.2c4.1,1.1,6.1,5.1,4.6,9.1c-0.1,0.1-0.1,0.3-0.2,0.5
		c0.2,0.1,0.4,0.2,0.6,0.2c2.9,1,4.8,3.6,4.8,6.7c0,3.1,0,6.2,0,9.3c0,2.4-1.3,3.7-3.8,3.8c-0.2,0-0.5,0-0.9,0c0,0.4,0,0.7,0,1.1
		c0,4,0,7.9,0,11.9c0,2.4-1,3.4-3.4,3.4c-2.3,0-4.5,0-6.8,0c-2.4,0-3.4-1.1-3.4-3.4c0-3.9,0-7.9,0-11.8c0-0.3,0-0.7,0-1.2
		c-0.4,0-0.8,0-1.1,0c-2.1-0.1-3.5-1.4-3.5-3.5c0-2.9,0.1-5.8,0-8.7c-0.2-3.7,1.7-6.6,5.4-7.8c-0.2-0.5-0.4-1-0.5-1.6
		c-0.8-3.6,1.3-7,4.8-8c0.2-0.1,0.4-0.1,0.6-0.2C864.1,190.4,864.9,190.4,865.6,190.4z M871.3,217.4c0.8-0.2,1.8,0.4,1.8-0.9
		c0-3.3,0.1-6.5,0-9.8c-0.1-2.9-3.2-4.7-5.8-3.5c-1.9,0.9-3.8,0.8-5.7-0.1c-0.4-0.2-0.8-0.3-1.2-0.3c-2.6,0-4.5,1.8-4.5,4.4
		c0,2.9,0,5.7,0,8.6c0,1.5,0.2,1.7,1.8,1.4c0-2.4,0-4.8,0-7.3c0-1.5,0.5-2.2,1.4-2.2c1,0,1.4,0.7,1.4,2.1c0,7.5,0,15,0,22.5
		c0,0.4,0,0.8,0.1,1.2c0.9,0,1.7,0,2.5,0c0-0.4,0-0.8,0-1.1c0-3.5,0-7,0-10.5c0-0.3,0-0.7,0.1-1c0.1-0.7,0.6-1.1,1.4-1.1
		c0.7,0,1.2,0.4,1.3,1.1c0.1,0.3,0.1,0.7,0.1,1c0,3.5,0,7,0,10.6c0,0.3,0,0.7,0,1c0.9,0,1.7,0,2.6,0c0-0.4,0-0.8,0-1.2
		c0-7.5,0-14.9,0-22.4c0-0.4,0-0.8,0.1-1.1c0.1-0.7,0.6-1.1,1.4-1.1c0.7,0,1.2,0.5,1.3,1.2c0.1,0.4,0,0.8,0,1.2
		C871.3,212.6,871.3,214.9,871.3,217.4z M860.6,197.1c0,2.1,1.7,3.9,3.8,3.9c2.1,0,4-1.8,4-3.9c0-2.1-1.7-3.9-3.9-3.9
		C862.4,193.2,860.6,195,860.6,197.1z"/>
	<path class="st2" d="M871.3,217.4c0-2.5,0-4.8,0-7.1c0-0.4,0-0.8,0-1.2c-0.1-0.8-0.6-1.2-1.3-1.2c-0.7,0-1.2,0.4-1.4,1.1
		c-0.1,0.4-0.1,0.7-0.1,1.1c0,7.5,0,14.9,0,22.4c0,0.4,0,0.7,0,1.2c-0.9,0-1.7,0-2.6,0c0-0.4,0-0.7,0-1c0-3.5,0-7,0-10.6
		c0-0.3,0-0.7-0.1-1c-0.1-0.7-0.6-1.1-1.3-1.1c-0.8,0-1.2,0.4-1.4,1.1c-0.1,0.3-0.1,0.7-0.1,1c0,3.5,0,7,0,10.5c0,0.3,0,0.7,0,1.1
		c-0.9,0-1.6,0-2.5,0c0-0.4-0.1-0.8-0.1-1.2c0-7.5,0-15,0-22.5c0-1.5-0.4-2.1-1.4-2.1c-1,0-1.4,0.7-1.4,2.2c0,2.4,0,4.8,0,7.3
		c-1.7,0.3-1.8,0.2-1.8-1.4c0-2.9,0-5.7,0-8.6c0-2.7,1.8-4.5,4.5-4.4c0.4,0,0.8,0.2,1.2,0.3c1.9,0.9,3.8,0.9,5.7,0.1
		c2.6-1.2,5.7,0.6,5.8,3.5c0.1,3.3,0.1,6.5,0,9.8C873.1,217.8,872.1,217.2,871.3,217.4z"/>
	<path class="st2" d="M860.6,197.1c0-2.1,1.8-3.9,4-3.9c2.1,0,3.9,1.8,3.9,3.9c0,2.1-1.8,3.9-4,3.9
		C862.3,201,860.6,199.2,860.6,197.1z"/>
</g>
</svg>
