<?xml version="1.0" encoding="utf-8"?>
<!-- Generator: Adobe Illustrator 24.3.0, SVG Export Plug-In . SVG Version: 6.00 Build 0)  -->
<svg version="1.1" xmlns="http://www.w3.org/2000/svg" xmlns:xlink="http://www.w3.org/1999/xlink" x="0px" y="0px" width="1024px"
	 height="600px" viewBox="0 0 1024 600" style="enable-background:new 0 0 1024 600;" xml:space="preserve">
<style type="text/css">
	.st0{fill:#F7F7F7;}
	.st1{fill:none;}
	.st2{font-family:'HelveticaNeueLTStd-BdCn';}
	.st3{font-size:21px;}
	.st4{font-size:14px;}
	.st5{fill:none;stroke:#000000;stroke-miterlimit:10;}
	.st6{fill:none;stroke:#000000;stroke-miterlimit:10;stroke-dasharray:11.7247,11.7247;}
	.st7{fill:none;stroke:#000000;stroke-miterlimit:10;stroke-dasharray:11.595,11.595;}
	.st8{fill:none;stroke:#000000;stroke-miterlimit:10;stroke-dasharray:11.8303,11.8303;}
	.st9{fill:#BF0000;}
	.st10{fill:#7F7F7F;}
	.st11{fill:none;stroke:#930000;stroke-width:2;stroke-miterlimit:10;}
	.st12{fill:#FFFFFF;}
	.st13{fill:#930000;}
	.st14{fill:none;stroke:#000000;stroke-width:3;stroke-miterlimit:10;}
	.st15{fill:none;stroke:#000000;stroke-miterlimit:10;stroke-dasharray:12;}
</style>
<g id="Capa_2">
	<rect class="st0" width="1024" height="600"/>
</g>
<g id="Capa_1">
	<rect x="244.2" y="49.2" class="st1" width="64.8" height="21.8"/>
	<text transform="matrix(1 0 0 1 244.207 64.2349)" class="st2 st3">CHILE</text>
	<rect x="579.5" y="45.6" class="st1" width="138.5" height="21.8"/>
	<text transform="matrix(1 0 0 1 579.4689 60.5579)" class="st2 st3">ARGENTINA</text>
	<g>
		<path d="M417.7,123.3c-6-6-11.9-11.9-17.9-17.9c-3.3,3.3-6.5,6.5-9.7,9.7c-0.6-0.6-1.1-1.1-1.6-1.7c1.1-1,2.1-2.1,3.1-3
			c-2.5-2.5-4.8-4.8-7.2-7.2c-4.7,4.7-9.4,9.4-14.2,14.2c-0.6-0.6-1.1-1.2-1.8-1.9c0.1-0.1,0.4-0.1,0.6-0.3
			c4.8-4.7,9.5-9.5,14.2-14.2c1.1-1.1,1.5-1.1,2.6,0c2.3,2.3,4.6,4.6,6.9,6.9c0.2,0.2,0.3,0.4,0.6,0.7c1.1-1.1,2.1-2.1,3.1-3.1
			c0.8-0.8,1.6-1.6,2.4-2.4c0.7-0.7,1.3-0.7,2,0c6.1,6.1,12.2,12.2,18.4,18.4c0.1,0.1,0.1,0.2,0.2,0.2
			C418.8,122.2,418.2,122.7,417.7,123.3z"/>
		<path d="M380.7,144.4c-0.6-0.6-1.1-1.1-1.7-1.7c0.2-0.2,0.4-0.4,0.6-0.6c5.5-5.5,11-11,16.5-16.5c1.1-1.1,1.5-1.1,2.6,0
			c1.9,1.9,3.8,3.8,5.8,5.8c0.7-0.7,1.3-1.5,2-2.1c0.9-1,1.9-1.9,2.8-2.8c0.7-0.7,1.3-0.7,2,0c3,3,6.1,6,9.1,9.1c0,0,0,0.1,0.1,0.1
			c-0.5,0.5-1.1,1-1.6,1.5c-2.7-2.7-5.6-5.6-8.3-8.3c-1.4,1.5-2.8,2.8-4.3,4.3c0.8,0.7,1.7,1.5,2.7,2.4c-0.7,0.7-1.2,1.2-1.8,1.8
			c-3.2-3.2-6.4-6.4-9.7-9.7C391.8,133.3,386.3,138.9,380.7,144.4z"/>
		<path d="M350.3,138.7c-0.6-0.7-1.2-1.2-1.7-1.7c0.2-0.2,0.3-0.4,0.5-0.6c5.5-5.5,11-11,16.6-16.6c1-1,1.5-1,2.6,0
			c1.9,1.9,3.8,3.8,5.8,5.8c1.6-1.6,3.1-3.1,4.6-4.6c1-1,1.5-1,2.4,0c2.4,2.4,4.8,4.8,7.3,7.3c0.2,0.2,0.3,0.4,0.5,0.5
			c-0.6,0.6-1.1,1.1-1.6,1.7c-2.4-2.4-4.9-4.9-7.2-7.3c-1.4,1.4-2.8,2.8-4.2,4.3c0.8,0.8,1.7,1.6,2.5,2.4c-0.6,0.6-1.1,1.1-1.6,1.6
			c-3.1-3.1-6.4-6.4-9.6-9.6C361.4,127.5,355.8,133.1,350.3,138.7z"/>
	</g>
	<g>
		<path d="M485.7,84.9c-7-7-13.9-13.9-20.9-20.9c-3.8,3.8-7.6,7.6-11.3,11.3c-0.7-0.7-1.3-1.3-1.9-1.9c1.2-1.2,2.5-2.4,3.7-3.5
			c-2.9-2.9-5.6-5.6-8.4-8.4c-5.4,5.4-11,11-16.6,16.6c-0.7-0.7-1.2-1.3-2.1-2.3c0.1-0.1,0.5-0.1,0.7-0.4
			c5.5-5.5,11.1-11.1,16.6-16.6c1.2-1.2,1.8-1.2,3,0c2.7,2.7,5.4,5.4,8,8.1c0.2,0.2,0.4,0.5,0.7,0.8c1.3-1.3,2.5-2.5,3.6-3.6
			c0.9-0.9,1.8-1.9,2.8-2.8c0.8-0.8,1.5-0.8,2.4,0c7.1,7.1,14.3,14.3,21.4,21.4c0.1,0.1,0.1,0.2,0.2,0.3
			C487,83.6,486.3,84.2,485.7,84.9z"/>
		<path d="M442.5,109.5c-0.7-0.7-1.3-1.3-1.9-1.9c0.2-0.2,0.4-0.5,0.7-0.7c6.4-6.4,12.8-12.8,19.3-19.3c1.3-1.3,1.8-1.3,3,0
			c2.2,2.2,4.4,4.4,6.8,6.8c0.8-0.9,1.5-1.7,2.3-2.5c1.1-1.1,2.2-2.2,3.3-3.3c0.8-0.8,1.5-0.8,2.3,0c3.5,3.5,7.1,7.1,10.6,10.6
			c0,0,0.1,0.1,0.1,0.1c-0.6,0.6-1.2,1.2-1.9,1.8c-3.2-3.2-6.5-6.5-9.7-9.7c-1.7,1.7-3.3,3.3-5,5c0.9,0.8,2,1.8,3.1,2.8
			c-0.8,0.8-1.4,1.4-2.1,2.1c-3.7-3.7-7.5-7.5-11.3-11.3C455.5,96.5,449,103,442.5,109.5z"/>
		<path d="M407,102.8c-0.8-0.8-1.3-1.4-2-2c0.2-0.2,0.4-0.4,0.6-0.7c6.4-6.4,12.9-12.9,19.3-19.3c1.2-1.2,1.8-1.2,3,0
			c2.2,2.2,4.5,4.5,6.7,6.7c1.8-1.8,3.6-3.6,5.4-5.4c1.1-1.1,1.7-1.1,2.9,0c2.8,2.8,5.7,5.7,8.5,8.5c0.2,0.2,0.4,0.4,0.6,0.6
			c-0.6,0.7-1.3,1.3-1.9,1.9c-2.8-2.9-5.7-5.7-8.4-8.5c-1.7,1.7-3.3,3.3-5,5c0.9,0.9,2,1.9,2.9,2.8c-0.7,0.7-1.3,1.3-1.9,1.9
			c-3.7-3.7-7.4-7.4-11.2-11.2C420,89.8,413.5,96.3,407,102.8z"/>
	</g>
	<g>
		<path d="M470.2,154.4c-6-6-11.9-11.9-17.9-17.9c-3.3,3.3-6.5,6.5-9.7,9.7c-0.6-0.6-1.1-1.1-1.6-1.7c1.1-1,2.1-2.1,3.1-3
			c-2.5-2.5-4.8-4.8-7.2-7.2c-4.7,4.7-9.4,9.4-14.2,14.2c-0.6-0.6-1.1-1.2-1.8-1.9c0.1-0.1,0.4-0.1,0.6-0.3
			c4.8-4.7,9.5-9.5,14.2-14.2c1.1-1.1,1.5-1.1,2.6,0c2.3,2.3,4.6,4.6,6.9,6.9c0.2,0.2,0.3,0.4,0.6,0.7c1.1-1.1,2.1-2.1,3.1-3.1
			c0.8-0.8,1.6-1.6,2.4-2.4c0.7-0.7,1.3-0.7,2,0c6.1,6.1,12.2,12.2,18.4,18.4c0.1,0.1,0.1,0.2,0.2,0.2
			C471.2,153.3,470.7,153.8,470.2,154.4z"/>
		<path d="M433.2,175.5c-0.6-0.6-1.1-1.1-1.7-1.7c0.2-0.2,0.4-0.4,0.6-0.6c5.5-5.5,11-11,16.5-16.5c1.1-1.1,1.5-1.1,2.6,0
			c1.9,1.9,3.8,3.8,5.8,5.8c0.7-0.7,1.3-1.5,2-2.1c0.9-1,1.9-1.9,2.8-2.8c0.7-0.7,1.3-0.7,2,0c3,3,6.1,6,9.1,9.1c0,0,0,0.1,0.1,0.1
			c-0.5,0.5-1.1,1-1.6,1.5c-2.7-2.7-5.6-5.6-8.3-8.3c-1.4,1.5-2.8,2.8-4.3,4.3c0.8,0.7,1.7,1.5,2.7,2.4c-0.7,0.7-1.2,1.2-1.8,1.8
			c-3.2-3.2-6.4-6.4-9.7-9.7C444.3,164.4,438.7,170,433.2,175.5z"/>
		<path d="M402.7,169.8c-0.6-0.7-1.2-1.2-1.7-1.7c0.2-0.2,0.3-0.4,0.5-0.6c5.5-5.5,11-11,16.6-16.6c1-1,1.5-1,2.6,0
			c1.9,1.9,3.8,3.8,5.8,5.8c1.6-1.6,3.1-3.1,4.6-4.6c1-1,1.5-1,2.4,0c2.4,2.4,4.8,4.8,7.3,7.3c0.2,0.2,0.3,0.4,0.5,0.5
			c-0.6,0.6-1.1,1.1-1.6,1.7c-2.4-2.4-4.9-4.9-7.2-7.3c-1.4,1.4-2.8,2.8-4.2,4.3c0.8,0.8,1.7,1.6,2.5,2.4c-0.6,0.6-1.1,1.1-1.6,1.6
			c-3.1-3.1-6.4-6.4-9.6-9.6C413.9,158.6,408.3,164.2,402.7,169.8z"/>
	</g>
	<g>
		<path d="M405.2,206.4c-6-6-11.9-11.9-17.9-17.9c-3.3,3.3-6.5,6.5-9.7,9.7c-0.6-0.6-1.1-1.1-1.6-1.7c1.1-1,2.1-2.1,3.1-3
			c-2.5-2.5-4.8-4.8-7.2-7.2c-4.7,4.7-9.4,9.4-14.2,14.2c-0.6-0.6-1.1-1.2-1.8-1.9c0.1-0.1,0.4-0.1,0.6-0.3
			c4.8-4.7,9.5-9.5,14.2-14.2c1.1-1.1,1.5-1.1,2.6,0c2.3,2.3,4.6,4.6,6.9,6.9c0.2,0.2,0.3,0.4,0.6,0.7c1.1-1.1,2.1-2.1,3.1-3.1
			c0.8-0.8,1.6-1.6,2.4-2.4c0.7-0.7,1.3-0.7,2,0c6.1,6.1,12.2,12.2,18.4,18.4c0.1,0.1,0.1,0.2,0.2,0.2
			C406.2,205.3,405.7,205.8,405.2,206.4z"/>
		<path d="M368.2,227.5c-0.6-0.6-1.1-1.1-1.7-1.7c0.2-0.2,0.4-0.4,0.6-0.6c5.5-5.5,11-11,16.5-16.5c1.1-1.1,1.5-1.1,2.6,0
			c1.9,1.9,3.8,3.8,5.8,5.8c0.7-0.7,1.3-1.5,2-2.1c0.9-1,1.9-1.9,2.8-2.8c0.7-0.7,1.3-0.7,2,0c3,3,6.1,6,9.1,9.1c0,0,0,0.1,0.1,0.1
			c-0.5,0.5-1.1,1-1.6,1.5c-2.7-2.7-5.6-5.6-8.3-8.3c-1.4,1.5-2.8,2.8-4.3,4.3c0.8,0.7,1.7,1.5,2.7,2.4c-0.7,0.7-1.2,1.2-1.8,1.8
			c-3.2-3.2-6.4-6.4-9.7-9.7C379.3,216.4,373.7,222,368.2,227.5z"/>
		<path d="M337.7,221.8c-0.6-0.7-1.2-1.2-1.7-1.7c0.2-0.2,0.3-0.4,0.5-0.6c5.5-5.5,11-11,16.6-16.6c1-1,1.5-1,2.6,0
			c1.9,1.9,3.8,3.8,5.8,5.8c1.6-1.6,3.1-3.1,4.6-4.6c1-1,1.5-1,2.4,0c2.4,2.4,4.8,4.8,7.3,7.3c0.2,0.2,0.3,0.4,0.5,0.5
			c-0.6,0.6-1.1,1.1-1.6,1.7c-2.4-2.4-4.9-4.9-7.2-7.3c-1.4,1.4-2.8,2.8-4.2,4.3c0.8,0.8,1.7,1.6,2.5,2.4c-0.6,0.6-1.1,1.1-1.6,1.6
			c-3.1-3.1-6.4-6.4-9.6-9.6C348.9,210.6,343.3,216.2,337.7,221.8z"/>
	</g>
	<g>
		<path d="M508.5,206.8c-7.5-7.5-15.1-15.1-22.6-22.6c-4.1,4.1-8.2,8.2-12.3,12.3c-0.7-0.7-1.4-1.4-2-2.1c1.3-1.3,2.7-2.6,4-3.8
			c-3.1-3.1-6.1-6.1-9.1-9.1c-5.9,5.9-11.9,11.9-18,18c-0.7-0.8-1.3-1.5-2.3-2.5c0.1-0.1,0.5-0.1,0.8-0.4c6-6,12-12,18-18
			c1.3-1.3,1.9-1.3,3.2,0c2.9,2.9,5.8,5.8,8.7,8.7c0.2,0.2,0.4,0.5,0.7,0.9c1.4-1.4,2.7-2.7,3.9-3.9c1-1,2-2,3-3
			c0.9-0.9,1.7-0.9,2.5,0c7.8,7.7,15.5,15.5,23.2,23.2c0.1,0.1,0.2,0.2,0.2,0.3C509.9,205.4,509.2,206.1,508.5,206.8z"/>
		<path d="M461.7,233.5c-0.7-0.7-1.4-1.4-2.1-2.1c0.2-0.3,0.5-0.5,0.7-0.7c7-7,13.9-13.9,20.9-20.9c1.4-1.4,1.9-1.4,3.3,0
			c2.4,2.4,4.8,4.8,7.4,7.4c0.8-0.9,1.7-1.8,2.5-2.7c1.2-1.2,2.4-2.4,3.6-3.6c0.9-0.8,1.7-0.9,2.5,0c3.8,3.8,7.7,7.7,11.5,11.5
			c0,0,0.1,0.1,0.1,0.2c-0.7,0.6-1.3,1.3-2,2c-3.5-3.5-7-7.1-10.5-10.5c-1.8,1.8-3.6,3.6-5.4,5.5c1,0.9,2.2,2,3.4,3
			c-0.9,0.8-1.5,1.5-2.3,2.2c-4.1-4.1-8.1-8.1-12.2-12.3C475.8,219.5,468.7,226.5,461.7,233.5z"/>
		<path d="M423.2,226.2c-0.8-0.8-1.5-1.5-2.2-2.2c0.2-0.2,0.4-0.5,0.7-0.7c7-7,14-14,20.9-21c1.3-1.3,1.9-1.3,3.2,0
			c2.4,2.4,4.8,4.8,7.3,7.3c2-2,3.9-3.9,5.9-5.9c1.2-1.2,1.9-1.2,3.1,0c3.1,3.1,6.1,6.1,9.2,9.2c0.2,0.2,0.4,0.5,0.6,0.7
			c-0.7,0.7-1.4,1.4-2,2.1c-3.1-3.1-6.1-6.2-9.2-9.2c-1.8,1.8-3.5,3.6-5.4,5.4c1,1,2.1,2,3.2,3.1c-0.7,0.7-1.4,1.4-2.1,2.1
			c-4-4-8.1-8.1-12.1-12.1C437.3,212.1,430.2,219.1,423.2,226.2z"/>
	</g>
	<g>
		<path d="M382.2,254.4c-6-6-11.9-11.9-17.9-17.9c-3.3,3.3-6.5,6.5-9.7,9.7c-0.6-0.6-1.1-1.1-1.6-1.7c1.1-1,2.1-2.1,3.1-3
			c-2.5-2.5-4.8-4.8-7.2-7.2c-4.7,4.7-9.4,9.4-14.2,14.2c-0.6-0.6-1.1-1.2-1.8-1.9c0.1-0.1,0.4-0.1,0.6-0.3
			c4.8-4.7,9.5-9.5,14.2-14.2c1.1-1.1,1.5-1.1,2.6,0c2.3,2.3,4.6,4.6,6.9,6.9c0.2,0.2,0.3,0.4,0.6,0.7c1.1-1.1,2.1-2.1,3.1-3.1
			c0.8-0.8,1.6-1.6,2.4-2.4c0.7-0.7,1.3-0.7,2,0c6.1,6.1,12.2,12.2,18.4,18.4c0.1,0.1,0.1,0.2,0.2,0.2
			C383.2,253.3,382.7,253.8,382.2,254.4z"/>
		<path d="M345.2,275.5c-0.6-0.6-1.1-1.1-1.7-1.7c0.2-0.2,0.4-0.4,0.6-0.6c5.5-5.5,11-11,16.5-16.5c1.1-1.1,1.5-1.1,2.6,0
			c1.9,1.9,3.8,3.8,5.8,5.8c0.7-0.7,1.3-1.5,2-2.1c0.9-1,1.9-1.9,2.8-2.8c0.7-0.7,1.3-0.7,2,0c3,3,6.1,6,9.1,9.1c0,0,0,0.1,0.1,0.1
			c-0.5,0.5-1.1,1-1.6,1.5c-2.7-2.7-5.6-5.6-8.3-8.3c-1.4,1.5-2.8,2.8-4.3,4.3c0.8,0.7,1.7,1.5,2.7,2.4c-0.7,0.7-1.2,1.2-1.8,1.8
			c-3.2-3.2-6.4-6.4-9.7-9.7C356.3,264.4,350.7,270,345.2,275.5z"/>
		<path d="M314.7,269.8c-0.6-0.7-1.2-1.2-1.7-1.7c0.2-0.2,0.3-0.4,0.5-0.6c5.5-5.5,11-11,16.6-16.6c1-1,1.5-1,2.6,0
			c1.9,1.9,3.8,3.8,5.8,5.8c1.6-1.6,3.1-3.1,4.6-4.6c1-1,1.5-1,2.4,0c2.4,2.4,4.8,4.8,7.3,7.3c0.2,0.2,0.3,0.4,0.5,0.5
			c-0.6,0.6-1.1,1.1-1.6,1.7c-2.4-2.4-4.9-4.9-7.2-7.3c-1.4,1.4-2.8,2.8-4.2,4.3c0.8,0.8,1.7,1.6,2.5,2.4c-0.6,0.6-1.1,1.1-1.6,1.6
			c-3.1-3.1-6.4-6.4-9.6-9.6C325.9,258.6,320.3,264.2,314.7,269.8z"/>
	</g>
	<g>
		<path d="M465.2,260.4c-6-6-11.9-11.9-17.9-17.9c-3.3,3.3-6.5,6.5-9.7,9.7c-0.6-0.6-1.1-1.1-1.6-1.7c1.1-1,2.1-2.1,3.1-3
			c-2.5-2.5-4.8-4.8-7.2-7.2c-4.7,4.7-9.4,9.4-14.2,14.2c-0.6-0.6-1.1-1.2-1.8-1.9c0.1-0.1,0.4-0.1,0.6-0.3
			c4.8-4.7,9.5-9.5,14.2-14.2c1.1-1.1,1.5-1.1,2.6,0c2.3,2.3,4.6,4.6,6.9,6.9c0.2,0.2,0.3,0.4,0.6,0.7c1.1-1.1,2.1-2.1,3.1-3.1
			c0.8-0.8,1.6-1.6,2.4-2.4c0.7-0.7,1.3-0.7,2,0c6.1,6.1,12.2,12.2,18.4,18.4c0.1,0.1,0.1,0.2,0.2,0.2
			C466.2,259.3,465.7,259.8,465.2,260.4z"/>
		<path d="M428.2,281.5c-0.6-0.6-1.1-1.1-1.7-1.7c0.2-0.2,0.4-0.4,0.6-0.6c5.5-5.5,11-11,16.5-16.5c1.1-1.1,1.5-1.1,2.6,0
			c1.9,1.9,3.8,3.8,5.8,5.8c0.7-0.7,1.3-1.5,2-2.1c0.9-1,1.9-1.9,2.8-2.8c0.7-0.7,1.3-0.7,2,0c3,3,6.1,6,9.1,9.1c0,0,0,0.1,0.1,0.1
			c-0.5,0.5-1.1,1-1.6,1.5c-2.7-2.7-5.6-5.6-8.3-8.3c-1.4,1.5-2.8,2.8-4.3,4.3c0.8,0.7,1.7,1.5,2.7,2.4c-0.7,0.7-1.2,1.2-1.8,1.8
			c-3.2-3.2-6.4-6.4-9.7-9.7C439.3,270.4,433.7,276,428.2,281.5z"/>
		<path d="M397.7,275.8c-0.6-0.7-1.2-1.2-1.7-1.7c0.2-0.2,0.3-0.4,0.5-0.6c5.5-5.5,11-11,16.6-16.6c1-1,1.5-1,2.6,0
			c1.9,1.9,3.8,3.8,5.8,5.8c1.6-1.6,3.1-3.1,4.6-4.6c1-1,1.5-1,2.4,0c2.4,2.4,4.8,4.8,7.3,7.3c0.2,0.2,0.3,0.4,0.5,0.5
			c-0.6,0.6-1.1,1.1-1.6,1.7c-2.4-2.4-4.9-4.9-7.2-7.3c-1.4,1.4-2.8,2.8-4.2,4.3c0.8,0.8,1.7,1.6,2.5,2.4c-0.6,0.6-1.1,1.1-1.6,1.6
			c-3.1-3.1-6.4-6.4-9.6-9.6C408.9,264.6,403.3,270.2,397.7,275.8z"/>
	</g>
	<g>
		<path d="M423.2,355.4c-6-6-11.9-11.9-17.9-17.9c-3.3,3.3-6.5,6.5-9.7,9.7c-0.6-0.6-1.1-1.1-1.6-1.7c1.1-1,2.1-2.1,3.1-3
			c-2.5-2.5-4.8-4.8-7.2-7.2c-4.7,4.7-9.4,9.4-14.2,14.2c-0.6-0.6-1.1-1.2-1.8-1.9c0.1-0.1,0.4-0.1,0.6-0.3
			c4.8-4.7,9.5-9.5,14.2-14.2c1.1-1.1,1.5-1.1,2.6,0c2.3,2.3,4.6,4.6,6.9,6.9c0.2,0.2,0.3,0.4,0.6,0.7c1.1-1.1,2.1-2.1,3.1-3.1
			c0.8-0.8,1.6-1.6,2.4-2.4c0.7-0.7,1.3-0.7,2,0c6.1,6.1,12.2,12.2,18.4,18.4c0.1,0.1,0.1,0.2,0.2,0.2
			C424.2,354.3,423.7,354.8,423.2,355.4z"/>
		<path d="M386.2,376.5c-0.6-0.6-1.1-1.1-1.7-1.7c0.2-0.2,0.4-0.4,0.6-0.6c5.5-5.5,11-11,16.5-16.5c1.1-1.1,1.5-1.1,2.6,0
			c1.9,1.9,3.8,3.8,5.8,5.8c0.7-0.7,1.3-1.5,2-2.1c0.9-1,1.9-1.9,2.8-2.8c0.7-0.7,1.3-0.7,2,0c3,3,6.1,6,9.1,9.1c0,0,0,0.1,0.1,0.1
			c-0.5,0.5-1.1,1-1.6,1.5c-2.7-2.7-5.6-5.6-8.3-8.3c-1.4,1.5-2.8,2.8-4.3,4.3c0.8,0.7,1.7,1.5,2.7,2.4c-0.7,0.7-1.2,1.2-1.8,1.8
			c-3.2-3.2-6.4-6.4-9.7-9.7C397.3,365.4,391.7,371,386.2,376.5z"/>
		<path d="M355.7,370.8c-0.6-0.7-1.2-1.2-1.7-1.7c0.2-0.2,0.3-0.4,0.5-0.6c5.5-5.5,11-11,16.6-16.6c1-1,1.5-1,2.6,0
			c1.9,1.9,3.8,3.8,5.8,5.8c1.6-1.6,3.1-3.1,4.6-4.6c1-1,1.5-1,2.4,0c2.4,2.4,4.8,4.8,7.3,7.3c0.2,0.2,0.3,0.4,0.5,0.5
			c-0.6,0.6-1.1,1.1-1.6,1.7c-2.4-2.4-4.9-4.9-7.2-7.3c-1.4,1.4-2.8,2.8-4.2,4.3c0.8,0.8,1.7,1.6,2.5,2.4c-0.6,0.6-1.1,1.1-1.6,1.6
			c-3.1-3.1-6.4-6.4-9.6-9.6C366.9,359.6,361.3,365.2,355.7,370.8z"/>
	</g>
	<g>
		<path d="M535.8,354.1c-6.9-6.9-13.7-13.7-20.6-20.6c-3.8,3.8-7.5,7.5-11.2,11.2c-0.7-0.7-1.2-1.3-1.9-1.9c1.2-1.2,2.5-2.4,3.6-3.5
			c-2.8-2.8-5.6-5.6-8.3-8.3c-5.4,5.4-10.9,10.9-16.4,16.4c-0.7-0.7-1.2-1.3-2.1-2.2c0.1-0.1,0.5-0.1,0.7-0.3
			c5.5-5.5,11-10.9,16.4-16.4c1.2-1.2,1.7-1.2,2.9,0c2.7,2.7,5.3,5.3,8,8c0.2,0.2,0.4,0.5,0.6,0.8c1.3-1.3,2.4-2.4,3.6-3.6
			c0.9-0.9,1.8-1.8,2.8-2.8c0.8-0.8,1.5-0.8,2.3,0c7.1,7.1,14.1,14.1,21.2,21.2c0.1,0.1,0.1,0.2,0.2,0.3
			C537.1,352.9,536.5,353.5,535.8,354.1z"/>
		<path d="M493.1,378.5c-0.7-0.7-1.3-1.3-1.9-1.9c0.2-0.2,0.4-0.5,0.6-0.7c6.3-6.3,12.7-12.7,19.1-19c1.3-1.3,1.8-1.3,3,0
			c2.2,2.2,4.4,4.4,6.7,6.7c0.8-0.8,1.5-1.7,2.3-2.5c1.1-1.1,2.1-2.2,3.2-3.2c0.8-0.8,1.5-0.8,2.3,0c3.5,3.5,7,7,10.5,10.5
			c0,0,0.1,0.1,0.1,0.1c-0.6,0.6-1.2,1.2-1.9,1.8c-3.2-3.2-6.4-6.4-9.6-9.6c-1.7,1.7-3.2,3.3-5,5c0.9,0.8,2,1.8,3.1,2.7
			c-0.8,0.8-1.4,1.4-2.1,2c-3.7-3.7-7.4-7.4-11.2-11.2C506,365.7,499.6,372.1,493.1,378.5z"/>
		<path d="M458,371.9c-0.7-0.8-1.3-1.4-2-2c0.2-0.2,0.4-0.4,0.6-0.7c6.4-6.4,12.7-12.7,19.1-19.1c1.2-1.2,1.7-1.2,3,0
			c2.2,2.2,4.4,4.4,6.6,6.7c1.8-1.8,3.6-3.6,5.4-5.4c1.1-1.1,1.7-1.1,2.8,0c2.8,2.8,5.6,5.6,8.4,8.4c0.2,0.2,0.4,0.4,0.6,0.6
			c-0.6,0.7-1.2,1.3-1.9,1.9c-2.8-2.8-5.6-5.6-8.4-8.4c-1.6,1.6-3.2,3.2-4.9,4.9c0.9,0.9,1.9,1.9,2.9,2.8c-0.7,0.7-1.3,1.3-1.9,1.9
			c-3.6-3.6-7.3-7.3-11.1-11.1C470.8,359,464.4,365.4,458,371.9z"/>
	</g>
	<g>
		<path d="M369.2,391.4c-6-6-11.9-11.9-17.9-17.9c-3.3,3.3-6.5,6.5-9.7,9.7c-0.6-0.6-1.1-1.1-1.6-1.7c1.1-1,2.1-2.1,3.1-3
			c-2.5-2.5-4.8-4.8-7.2-7.2c-4.7,4.7-9.4,9.4-14.2,14.2c-0.6-0.6-1.1-1.2-1.8-1.9c0.1-0.1,0.4-0.1,0.6-0.3
			c4.8-4.7,9.5-9.5,14.2-14.2c1.1-1.1,1.5-1.1,2.6,0c2.3,2.3,4.6,4.6,6.9,6.9c0.2,0.2,0.3,0.4,0.6,0.7c1.1-1.1,2.1-2.1,3.1-3.1
			c0.8-0.8,1.6-1.6,2.4-2.4c0.7-0.7,1.3-0.7,2,0c6.1,6.1,12.2,12.2,18.4,18.4c0.1,0.1,0.1,0.2,0.2,0.2
			C370.2,390.3,369.7,390.8,369.2,391.4z"/>
		<path d="M332.2,412.5c-0.6-0.6-1.1-1.1-1.7-1.7c0.2-0.2,0.4-0.4,0.6-0.6c5.5-5.5,11-11,16.5-16.5c1.1-1.1,1.5-1.1,2.6,0
			c1.9,1.9,3.8,3.8,5.8,5.8c0.7-0.7,1.3-1.5,2-2.1c0.9-1,1.9-1.9,2.8-2.8c0.7-0.7,1.3-0.7,2,0c3,3,6.1,6,9.1,9.1c0,0,0,0.1,0.1,0.1
			c-0.5,0.5-1.1,1-1.6,1.5c-2.7-2.7-5.6-5.6-8.3-8.3c-1.4,1.5-2.8,2.8-4.3,4.3c0.8,0.7,1.7,1.5,2.7,2.4c-0.7,0.7-1.2,1.2-1.8,1.8
			c-3.2-3.2-6.4-6.4-9.7-9.7C343.3,401.4,337.7,407,332.2,412.5z"/>
		<path d="M301.7,406.8c-0.6-0.7-1.2-1.2-1.7-1.7c0.2-0.2,0.3-0.4,0.5-0.6c5.5-5.5,11-11,16.6-16.6c1-1,1.5-1,2.6,0
			c1.9,1.9,3.8,3.8,5.8,5.8c1.6-1.6,3.1-3.1,4.6-4.6c1-1,1.5-1,2.4,0c2.4,2.4,4.8,4.8,7.3,7.3c0.2,0.2,0.3,0.4,0.5,0.5
			c-0.6,0.6-1.1,1.1-1.6,1.7c-2.4-2.4-4.9-4.9-7.2-7.3c-1.4,1.4-2.8,2.8-4.2,4.3c0.8,0.8,1.7,1.6,2.5,2.4c-0.6,0.6-1.1,1.1-1.6,1.6
			c-3.1-3.1-6.4-6.4-9.6-9.6C312.9,395.6,307.3,401.2,301.7,406.8z"/>
	</g>
	<g>
		<path d="M452.2,397.4c-6-6-11.9-11.9-17.9-17.9c-3.3,3.3-6.5,6.5-9.7,9.7c-0.6-0.6-1.1-1.1-1.6-1.7c1.1-1,2.1-2.1,3.1-3
			c-2.5-2.5-4.8-4.8-7.2-7.2c-4.7,4.7-9.4,9.4-14.2,14.2c-0.6-0.6-1.1-1.2-1.8-1.9c0.1-0.1,0.4-0.1,0.6-0.3
			c4.8-4.7,9.5-9.5,14.2-14.2c1.1-1.1,1.5-1.1,2.6,0c2.3,2.3,4.6,4.6,6.9,6.9c0.2,0.2,0.3,0.4,0.6,0.7c1.1-1.1,2.1-2.1,3.1-3.1
			c0.8-0.8,1.6-1.6,2.4-2.4c0.7-0.7,1.3-0.7,2,0c6.1,6.1,12.2,12.2,18.4,18.4c0.1,0.1,0.1,0.2,0.2,0.2
			C453.2,396.3,452.7,396.8,452.2,397.4z"/>
		<path d="M415.2,418.5c-0.6-0.6-1.1-1.1-1.7-1.7c0.2-0.2,0.4-0.4,0.6-0.6c5.5-5.5,11-11,16.5-16.5c1.1-1.1,1.5-1.1,2.6,0
			c1.9,1.9,3.8,3.8,5.8,5.8c0.7-0.7,1.3-1.5,2-2.1c0.9-1,1.9-1.9,2.8-2.8c0.7-0.7,1.3-0.7,2,0c3,3,6.1,6,9.1,9.1c0,0,0,0.1,0.1,0.1
			c-0.5,0.5-1.1,1-1.6,1.5c-2.7-2.7-5.6-5.6-8.3-8.3c-1.4,1.5-2.8,2.8-4.3,4.3c0.8,0.7,1.7,1.5,2.7,2.4c-0.7,0.7-1.2,1.2-1.8,1.8
			c-3.2-3.2-6.4-6.4-9.7-9.7C426.3,407.4,420.7,413,415.2,418.5z"/>
		<path d="M384.7,412.8c-0.6-0.7-1.2-1.2-1.7-1.7c0.2-0.2,0.3-0.4,0.5-0.6c5.5-5.5,11-11,16.6-16.6c1-1,1.5-1,2.6,0
			c1.9,1.9,3.8,3.8,5.8,5.8c1.6-1.6,3.1-3.1,4.6-4.6c1-1,1.5-1,2.4,0c2.4,2.4,4.8,4.8,7.3,7.3c0.2,0.2,0.3,0.4,0.5,0.5
			c-0.6,0.6-1.1,1.1-1.6,1.7c-2.4-2.4-4.9-4.9-7.2-7.3c-1.4,1.4-2.8,2.8-4.2,4.3c0.8,0.8,1.7,1.6,2.5,2.4c-0.6,0.6-1.1,1.1-1.6,1.6
			c-3.1-3.1-6.4-6.4-9.6-9.6C395.9,401.6,390.3,407.2,384.7,412.8z"/>
	</g>
	<g>
		<path d="M411.4,309.4c-7.5-7.5-15-15-22.5-22.5c-4.1,4.1-8.2,8.2-12.2,12.2c-0.7-0.7-1.4-1.4-2-2.1c1.3-1.3,2.7-2.6,4-3.8
			c-3.1-3.1-6.1-6.1-9.1-9c-5.9,5.9-11.9,11.9-17.9,17.9c-0.7-0.8-1.3-1.5-2.3-2.4c0.1-0.1,0.5-0.1,0.8-0.4c6-6,11.9-11.9,17.9-17.9
			c1.3-1.3,1.9-1.3,3.2,0c2.9,2.9,5.8,5.8,8.7,8.7c0.2,0.2,0.4,0.5,0.7,0.9c1.4-1.4,2.7-2.7,3.9-3.9c1-1,2-2,3-3
			c0.9-0.9,1.7-0.9,2.5,0c7.7,7.7,15.4,15.4,23.1,23.1c0.1,0.1,0.2,0.2,0.2,0.3C412.8,308,412.1,308.7,411.4,309.4z"/>
		<path d="M364.9,336c-0.7-0.7-1.4-1.4-2.1-2.1c0.2-0.3,0.5-0.5,0.7-0.7c6.9-6.9,13.9-13.9,20.8-20.8c1.4-1.4,1.9-1.4,3.3,0
			c2.4,2.4,4.8,4.8,7.3,7.3c0.8-0.9,1.6-1.8,2.5-2.7c1.2-1.2,2.3-2.4,3.5-3.5c0.9-0.8,1.6-0.8,2.5,0c3.8,3.8,7.6,7.6,11.4,11.4
			c0,0,0.1,0.1,0.1,0.2c-0.7,0.6-1.3,1.3-2,2c-3.5-3.5-7-7-10.5-10.5c-1.8,1.8-3.5,3.6-5.4,5.4c1,0.9,2.2,1.9,3.4,3
			c-0.9,0.8-1.5,1.5-2.3,2.2c-4-4-8.1-8.1-12.2-12.2C378.9,322,371.9,329,364.9,336z"/>
		<path d="M326.5,328.7c-0.8-0.8-1.5-1.5-2.1-2.2c0.2-0.2,0.4-0.5,0.7-0.7c6.9-7,13.9-13.9,20.8-20.8c1.3-1.3,1.9-1.3,3.2,0
			c2.4,2.4,4.8,4.8,7.3,7.3c2-2,3.9-3.9,5.8-5.8c1.2-1.2,1.9-1.2,3.1,0c3.1,3,6.1,6.1,9.2,9.2c0.2,0.2,0.4,0.5,0.6,0.7
			c-0.7,0.7-1.4,1.4-2,2.1c-3.1-3.1-6.1-6.1-9.1-9.1c-1.8,1.8-3.5,3.5-5.3,5.4c1,1,2.1,2,3.2,3.1c-0.7,0.7-1.4,1.4-2.1,2.1
			c-4-4-8-8-12.1-12.1C340.6,314.7,333.6,321.7,326.5,328.7z"/>
	</g>
	<g>
		<path d="M501.2,432.4c-6-6-11.9-11.9-17.9-17.9c-3.3,3.3-6.5,6.5-9.7,9.7c-0.6-0.6-1.1-1.1-1.6-1.7c1.1-1,2.1-2.1,3.1-3
			c-2.5-2.5-4.8-4.8-7.2-7.2c-4.7,4.7-9.4,9.4-14.2,14.2c-0.6-0.6-1.1-1.2-1.8-1.9c0.1-0.1,0.4-0.1,0.6-0.3
			c4.8-4.7,9.5-9.5,14.2-14.2c1.1-1.1,1.5-1.1,2.6,0c2.3,2.3,4.6,4.6,6.9,6.9c0.2,0.2,0.3,0.4,0.6,0.7c1.1-1.1,2.1-2.1,3.1-3.1
			c0.8-0.8,1.6-1.6,2.4-2.4c0.7-0.7,1.3-0.7,2,0c6.1,6.1,12.2,12.2,18.4,18.4c0.1,0.1,0.1,0.2,0.2,0.2
			C502.2,431.3,501.7,431.8,501.2,432.4z"/>
		<path d="M464.2,453.5c-0.6-0.6-1.1-1.1-1.7-1.7c0.2-0.2,0.4-0.4,0.6-0.6c5.5-5.5,11-11,16.5-16.5c1.1-1.1,1.5-1.1,2.6,0
			c1.9,1.9,3.8,3.8,5.8,5.8c0.7-0.7,1.3-1.5,2-2.1c0.9-1,1.9-1.9,2.8-2.8c0.7-0.7,1.3-0.7,2,0c3,3,6.1,6,9.1,9.1c0,0,0,0.1,0.1,0.1
			c-0.5,0.5-1.1,1-1.6,1.5c-2.7-2.7-5.6-5.6-8.3-8.3c-1.4,1.5-2.8,2.8-4.3,4.3c0.8,0.7,1.7,1.5,2.7,2.4c-0.7,0.7-1.2,1.2-1.8,1.8
			c-3.2-3.2-6.4-6.4-9.7-9.7C475.3,442.4,469.7,448,464.2,453.5z"/>
		<path d="M433.7,447.8c-0.6-0.7-1.2-1.2-1.7-1.7c0.2-0.2,0.3-0.4,0.5-0.6c5.5-5.5,11-11,16.6-16.6c1-1,1.5-1,2.6,0
			c1.9,1.9,3.8,3.8,5.8,5.8c1.6-1.6,3.1-3.1,4.6-4.6c1-1,1.5-1,2.4,0c2.4,2.4,4.8,4.8,7.3,7.3c0.2,0.2,0.3,0.4,0.5,0.5
			c-0.6,0.6-1.1,1.1-1.6,1.7c-2.4-2.4-4.9-4.9-7.2-7.3c-1.4,1.4-2.8,2.8-4.2,4.3c0.8,0.8,1.7,1.6,2.5,2.4c-0.6,0.6-1.1,1.1-1.6,1.6
			c-3.1-3.1-6.4-6.4-9.6-9.6C444.9,436.6,439.3,442.2,433.7,447.8z"/>
	</g>
	<g>
		<path d="M346.2,483.4c-6-6-11.9-11.9-17.9-17.9c-3.3,3.3-6.5,6.5-9.7,9.7c-0.6-0.6-1.1-1.1-1.6-1.7c1.1-1,2.1-2.1,3.1-3
			c-2.5-2.5-4.8-4.8-7.2-7.2c-4.7,4.7-9.4,9.4-14.2,14.2c-0.6-0.6-1.1-1.2-1.8-1.9c0.1-0.1,0.4-0.1,0.6-0.3
			c4.8-4.7,9.5-9.5,14.2-14.2c1.1-1.1,1.5-1.1,2.6,0c2.3,2.3,4.6,4.6,6.9,6.9c0.2,0.2,0.3,0.4,0.6,0.7c1.1-1.1,2.1-2.1,3.1-3.1
			c0.8-0.8,1.6-1.6,2.4-2.4c0.7-0.7,1.3-0.7,2,0c6.1,6.1,12.2,12.2,18.4,18.4c0.1,0.1,0.1,0.2,0.2,0.2
			C347.2,482.3,346.7,482.8,346.2,483.4z"/>
		<path d="M309.2,504.5c-0.6-0.6-1.1-1.1-1.7-1.7c0.2-0.2,0.4-0.4,0.6-0.6c5.5-5.5,11-11,16.5-16.5c1.1-1.1,1.5-1.1,2.6,0
			c1.9,1.9,3.8,3.8,5.8,5.8c0.7-0.7,1.3-1.5,2-2.1c0.9-1,1.9-1.9,2.8-2.8c0.7-0.7,1.3-0.7,2,0c3,3,6.1,6,9.1,9.1c0,0,0,0.1,0.1,0.1
			c-0.5,0.5-1.1,1-1.6,1.5c-2.7-2.7-5.6-5.6-8.3-8.3c-1.4,1.5-2.8,2.8-4.3,4.3c0.8,0.7,1.7,1.5,2.7,2.4c-0.7,0.7-1.2,1.2-1.8,1.8
			c-3.2-3.2-6.4-6.4-9.7-9.7C320.3,493.4,314.7,499,309.2,504.5z"/>
		<path d="M278.7,498.8c-0.6-0.7-1.2-1.2-1.7-1.7c0.2-0.2,0.3-0.4,0.5-0.6c5.5-5.5,11-11,16.6-16.6c1-1,1.5-1,2.6,0
			c1.9,1.9,3.8,3.8,5.8,5.8c1.6-1.6,3.1-3.1,4.6-4.6c1-1,1.5-1,2.4,0c2.4,2.4,4.8,4.8,7.3,7.3c0.2,0.2,0.3,0.4,0.5,0.5
			c-0.6,0.6-1.1,1.1-1.6,1.7c-2.4-2.4-4.9-4.9-7.2-7.3c-1.4,1.4-2.8,2.8-4.2,4.3c0.8,0.8,1.7,1.6,2.5,2.4c-0.6,0.6-1.1,1.1-1.6,1.6
			c-3.1-3.1-6.4-6.4-9.6-9.6C289.9,487.6,284.3,493.2,278.7,498.8z"/>
	</g>
	<g>
		<path d="M429.2,470.4c-6-6-11.9-11.9-17.9-17.9c-3.3,3.3-6.5,6.5-9.7,9.7c-0.6-0.6-1.1-1.1-1.6-1.7c1.1-1,2.1-2.1,3.1-3
			c-2.5-2.5-4.8-4.8-7.2-7.2c-4.7,4.7-9.4,9.4-14.2,14.2c-0.6-0.6-1.1-1.2-1.8-1.9c0.1-0.1,0.4-0.1,0.6-0.3
			c4.8-4.7,9.5-9.5,14.2-14.2c1.1-1.1,1.5-1.1,2.6,0c2.3,2.3,4.6,4.6,6.9,6.9c0.2,0.2,0.3,0.4,0.6,0.7c1.1-1.1,2.1-2.1,3.1-3.1
			c0.8-0.8,1.6-1.6,2.4-2.4c0.7-0.7,1.3-0.7,2,0c6.1,6.1,12.2,12.2,18.4,18.4c0.1,0.1,0.1,0.2,0.2,0.2
			C430.2,469.3,429.7,469.8,429.2,470.4z"/>
		<path d="M392.2,491.5c-0.6-0.6-1.1-1.1-1.7-1.7c0.2-0.2,0.4-0.4,0.6-0.6c5.5-5.5,11-11,16.5-16.5c1.1-1.1,1.5-1.1,2.6,0
			c1.9,1.9,3.8,3.8,5.8,5.8c0.7-0.7,1.3-1.5,2-2.1c0.9-1,1.9-1.9,2.8-2.8c0.7-0.7,1.3-0.7,2,0c3,3,6.1,6,9.1,9.1c0,0,0,0.1,0.1,0.1
			c-0.5,0.5-1.1,1-1.6,1.5c-2.7-2.7-5.6-5.6-8.3-8.3c-1.4,1.5-2.8,2.8-4.3,4.3c0.8,0.7,1.7,1.5,2.7,2.4c-0.7,0.7-1.2,1.2-1.8,1.8
			c-3.2-3.2-6.4-6.4-9.7-9.7C403.3,480.4,397.7,486,392.2,491.5z"/>
		<path d="M361.7,485.8c-0.6-0.7-1.2-1.2-1.7-1.7c0.2-0.2,0.3-0.4,0.5-0.6c5.5-5.5,11-11,16.6-16.6c1-1,1.5-1,2.6,0
			c1.9,1.9,3.8,3.8,5.8,5.8c1.6-1.6,3.1-3.1,4.6-4.6c1-1,1.5-1,2.4,0c2.4,2.4,4.8,4.8,7.3,7.3c0.2,0.2,0.3,0.4,0.5,0.5
			c-0.6,0.6-1.1,1.1-1.6,1.7c-2.4-2.4-4.9-4.9-7.2-7.3c-1.4,1.4-2.8,2.8-4.2,4.3c0.8,0.8,1.7,1.6,2.5,2.4c-0.6,0.6-1.1,1.1-1.6,1.6
			c-3.1-3.1-6.4-6.4-9.6-9.6C372.9,474.6,367.3,480.2,361.7,485.8z"/>
	</g>
	<g>
		<path d="M396.2,517.4c-6-6-11.9-11.9-17.9-17.9c-3.3,3.3-6.5,6.5-9.7,9.7c-0.6-0.6-1.1-1.1-1.6-1.7c1.1-1,2.1-2.1,3.1-3
			c-2.5-2.5-4.8-4.8-7.2-7.2c-4.7,4.7-9.4,9.4-14.2,14.2c-0.6-0.6-1.1-1.2-1.8-1.9c0.1-0.1,0.4-0.1,0.6-0.3
			c4.8-4.7,9.5-9.5,14.2-14.2c1.1-1.1,1.5-1.1,2.6,0c2.3,2.3,4.6,4.6,6.9,6.9c0.2,0.2,0.3,0.4,0.6,0.7c1.1-1.1,2.1-2.1,3.1-3.1
			c0.8-0.8,1.6-1.6,2.4-2.4c0.7-0.7,1.3-0.7,2,0c6.1,6.1,12.2,12.2,18.4,18.4c0.1,0.1,0.1,0.2,0.2,0.2
			C397.2,516.3,396.7,516.8,396.2,517.4z"/>
		<path d="M359.2,538.5c-0.6-0.6-1.1-1.1-1.7-1.7c0.2-0.2,0.4-0.4,0.6-0.6c5.5-5.5,11-11,16.5-16.5c1.1-1.1,1.5-1.1,2.6,0
			c1.9,1.9,3.8,3.8,5.8,5.8c0.7-0.7,1.3-1.5,2-2.1c0.9-1,1.9-1.9,2.8-2.8c0.7-0.7,1.3-0.7,2,0c3,3,6.1,6,9.1,9.1c0,0,0,0.1,0.1,0.1
			c-0.5,0.5-1.1,1-1.6,1.5c-2.7-2.7-5.6-5.6-8.3-8.3c-1.4,1.5-2.8,2.8-4.3,4.3c0.8,0.7,1.7,1.5,2.7,2.4c-0.7,0.7-1.2,1.2-1.8,1.8
			c-3.2-3.2-6.4-6.4-9.7-9.7C370.3,527.4,364.7,533,359.2,538.5z"/>
		<path d="M328.7,532.8c-0.6-0.7-1.2-1.2-1.7-1.7c0.2-0.2,0.3-0.4,0.5-0.6c5.5-5.5,11-11,16.6-16.6c1-1,1.5-1,2.6,0
			c1.9,1.9,3.8,3.8,5.8,5.8c1.6-1.6,3.1-3.1,4.6-4.6c1-1,1.5-1,2.4,0c2.4,2.4,4.8,4.8,7.3,7.3c0.2,0.2,0.3,0.4,0.5,0.5
			c-0.6,0.6-1.1,1.1-1.6,1.7c-2.4-2.4-4.9-4.9-7.2-7.3c-1.4,1.4-2.8,2.8-4.2,4.3c0.8,0.8,1.7,1.6,2.5,2.4c-0.6,0.6-1.1,1.1-1.6,1.6
			c-3.1-3.1-6.4-6.4-9.6-9.6C339.9,521.6,334.3,527.2,328.7,532.8z"/>
	</g>
	<g>
		<path d="M452.2,549.4c-6-6-11.9-11.9-17.9-17.9c-3.3,3.3-6.5,6.5-9.7,9.7c-0.6-0.6-1.1-1.1-1.6-1.7c1.1-1,2.1-2.1,3.1-3
			c-2.5-2.5-4.8-4.8-7.2-7.2c-4.7,4.7-9.4,9.4-14.2,14.2c-0.6-0.6-1.1-1.2-1.8-1.9c0.1-0.1,0.4-0.1,0.6-0.3
			c4.8-4.7,9.5-9.5,14.2-14.2c1.1-1.1,1.5-1.1,2.6,0c2.3,2.3,4.6,4.6,6.9,6.9c0.2,0.2,0.3,0.4,0.6,0.7c1.1-1.1,2.1-2.1,3.1-3.1
			c0.8-0.8,1.6-1.6,2.4-2.4c0.7-0.7,1.3-0.7,2,0c6.1,6.1,12.2,12.2,18.4,18.4c0.1,0.1,0.1,0.2,0.2,0.2
			C453.2,548.3,452.7,548.8,452.2,549.4z"/>
		<path d="M415.2,570.5c-0.6-0.6-1.1-1.1-1.7-1.7c0.2-0.2,0.4-0.4,0.6-0.6c5.5-5.5,11-11,16.5-16.5c1.1-1.1,1.5-1.1,2.6,0
			c1.9,1.9,3.8,3.8,5.8,5.8c0.7-0.7,1.3-1.5,2-2.1c0.9-1,1.9-1.9,2.8-2.8c0.7-0.7,1.3-0.7,2,0c3,3,6.1,6,9.1,9.1c0,0,0,0.1,0.1,0.1
			c-0.5,0.5-1.1,1-1.6,1.5c-2.7-2.7-5.6-5.6-8.3-8.3c-1.4,1.5-2.8,2.8-4.3,4.3c0.8,0.7,1.7,1.5,2.7,2.4c-0.7,0.7-1.2,1.2-1.8,1.8
			c-3.2-3.2-6.4-6.4-9.7-9.7C426.3,559.4,420.7,565,415.2,570.5z"/>
		<path d="M384.7,564.8c-0.6-0.7-1.2-1.2-1.7-1.7c0.2-0.2,0.3-0.4,0.5-0.6c5.5-5.5,11-11,16.6-16.6c1-1,1.5-1,2.6,0
			c1.9,1.9,3.8,3.8,5.8,5.8c1.6-1.6,3.1-3.1,4.6-4.6c1-1,1.5-1,2.4,0c2.4,2.4,4.8,4.8,7.3,7.3c0.2,0.2,0.3,0.4,0.5,0.5
			c-0.6,0.6-1.1,1.1-1.6,1.7c-2.4-2.4-4.9-4.9-7.2-7.3c-1.4,1.4-2.8,2.8-4.2,4.3c0.8,0.8,1.7,1.6,2.5,2.4c-0.6,0.6-1.1,1.1-1.6,1.6
			c-3.1-3.1-6.4-6.4-9.6-9.6C395.9,553.6,390.3,559.2,384.7,564.8z"/>
	</g>
	<g>
		<path d="M366.2,564.4c-6-6-11.9-11.9-17.9-17.9c-3.3,3.3-6.5,6.5-9.7,9.7c-0.6-0.6-1.1-1.1-1.6-1.7c1.1-1,2.1-2.1,3.1-3
			c-2.5-2.5-4.8-4.8-7.2-7.2c-4.7,4.7-9.4,9.4-14.2,14.2c-0.6-0.6-1.1-1.2-1.8-1.9c0.1-0.1,0.4-0.1,0.6-0.3
			c4.8-4.7,9.5-9.5,14.2-14.2c1.1-1.1,1.5-1.1,2.6,0c2.3,2.3,4.6,4.6,6.9,6.9c0.2,0.2,0.3,0.4,0.6,0.7c1.1-1.1,2.1-2.1,3.1-3.1
			c0.8-0.8,1.6-1.6,2.4-2.4c0.7-0.7,1.3-0.7,2,0c6.1,6.1,12.2,12.2,18.4,18.4c0.1,0.1,0.1,0.2,0.2,0.2
			C367.2,563.3,366.7,563.8,366.2,564.4z"/>
		<path d="M329.2,585.5c-0.6-0.6-1.1-1.1-1.7-1.7c0.2-0.2,0.4-0.4,0.6-0.6c5.5-5.5,11-11,16.5-16.5c1.1-1.1,1.5-1.1,2.6,0
			c1.9,1.9,3.8,3.8,5.8,5.8c0.7-0.7,1.3-1.5,2-2.1c0.9-1,1.9-1.9,2.8-2.8c0.7-0.7,1.3-0.7,2,0c3,3,6.1,6,9.1,9.1c0,0,0,0.1,0.1,0.1
			c-0.5,0.5-1.1,1-1.6,1.5c-2.7-2.7-5.6-5.6-8.3-8.3c-1.4,1.5-2.8,2.8-4.3,4.3c0.8,0.7,1.7,1.5,2.7,2.4c-0.7,0.7-1.2,1.2-1.8,1.8
			c-3.2-3.2-6.4-6.4-9.7-9.7C340.3,574.4,334.7,580,329.2,585.5z"/>
		<path d="M298.7,579.8c-0.6-0.7-1.2-1.2-1.7-1.7c0.2-0.2,0.3-0.4,0.5-0.6c5.5-5.5,11-11,16.6-16.6c1-1,1.5-1,2.6,0
			c1.9,1.9,3.8,3.8,5.8,5.8c1.6-1.6,3.1-3.1,4.6-4.6c1-1,1.5-1,2.4,0c2.4,2.4,4.8,4.8,7.3,7.3c0.2,0.2,0.3,0.4,0.5,0.5
			c-0.6,0.6-1.1,1.1-1.6,1.7c-2.4-2.4-4.9-4.9-7.2-7.3c-1.4,1.4-2.8,2.8-4.2,4.3c0.8,0.8,1.7,1.6,2.5,2.4c-0.6,0.6-1.1,1.1-1.6,1.6
			c-3.1-3.1-6.4-6.4-9.6-9.6C309.9,568.6,304.3,574.2,298.7,579.8z"/>
	</g>
	<rect x="573.2" y="91.6" class="st1" width="138.5" height="21.8"/>
	<text transform="matrix(1 0 0 1 573.2001 101.5602)" class="st2 st4">MENDOZA</text>
	<rect x="227.2" y="164.8" class="st1" width="138.5" height="21.8"/>
	<text transform="matrix(1 0 0 1 227.1999 174.8163)" class="st2 st4">SANTIAGO</text>
	<rect x="207.2" y="447.8" class="st1" width="50.8" height="21.8"/>
	<text transform="matrix(1 0 0 1 207.2001 457.8161)" class="st2 st4">CURICO</text>
	<rect x="579.2" y="470.8" class="st1" width="114.8" height="21.8"/>
	<text transform="matrix(1 0 0 1 579.2488 480.8161)" class="st2 st4">MALARGÜE</text>
	<g>
		<path d="M436.7,44.6c-7-7-13.9-13.9-20.9-20.9c-3.8,3.8-7.6,7.6-11.3,11.3c-0.7-0.7-1.3-1.3-1.9-1.9c1.2-1.2,2.5-2.4,3.7-3.5
			c-2.9-2.9-5.6-5.6-8.4-8.4c-5.4,5.4-11,11-16.6,16.6c-0.7-0.7-1.2-1.3-2.1-2.3c0.1-0.1,0.5-0.1,0.7-0.4
			c5.5-5.5,11.1-11.1,16.6-16.6c1.2-1.2,1.8-1.2,3,0c2.7,2.7,5.4,5.4,8,8.1c0.2,0.2,0.4,0.5,0.7,0.8c1.3-1.3,2.5-2.5,3.6-3.6
			c0.9-0.9,1.8-1.9,2.8-2.8c0.8-0.8,1.5-0.8,2.4,0c7.1,7.1,14.3,14.3,21.4,21.4c0.1,0.1,0.1,0.2,0.2,0.3
			C438,43.3,437.4,43.9,436.7,44.6z"/>
		<path d="M393.5,69.3c-0.7-0.7-1.3-1.3-1.9-1.9c0.2-0.2,0.4-0.5,0.7-0.7c6.4-6.4,12.8-12.8,19.3-19.3c1.3-1.3,1.8-1.3,3,0
			c2.2,2.2,4.4,4.4,6.8,6.8c0.8-0.9,1.5-1.7,2.3-2.5c1.1-1.1,2.2-2.2,3.3-3.3c0.8-0.8,1.5-0.8,2.3,0c3.5,3.5,7.1,7.1,10.6,10.6
			c0,0,0.1,0.1,0.1,0.1c-0.6,0.6-1.2,1.2-1.9,1.8c-3.2-3.2-6.5-6.5-9.7-9.7c-1.7,1.7-3.3,3.3-5,5c0.9,0.8,2,1.8,3.1,2.8
			c-0.8,0.8-1.4,1.4-2.1,2.1c-3.7-3.7-7.5-7.5-11.3-11.3C406.5,56.3,400,62.8,393.5,69.3z"/>
		<path d="M358,62.5c-0.8-0.8-1.3-1.4-2-2c0.2-0.2,0.4-0.4,0.6-0.7c6.4-6.4,12.9-12.9,19.3-19.3c1.2-1.2,1.8-1.2,3,0
			c2.2,2.2,4.5,4.5,6.7,6.7c1.8-1.8,3.6-3.6,5.4-5.4c1.1-1.1,1.7-1.1,2.9,0c2.8,2.8,5.7,5.7,8.5,8.5c0.2,0.2,0.4,0.4,0.6,0.6
			c-0.6,0.7-1.3,1.3-1.9,1.9c-2.8-2.9-5.7-5.7-8.4-8.5c-1.7,1.7-3.3,3.3-5,5c0.9,0.9,2,1.9,2.9,2.8c-0.7,0.7-1.3,1.3-1.9,1.9
			c-3.7-3.7-7.4-7.4-11.2-11.2C371,49.5,364.5,56,358,62.5z"/>
	</g>
	<g>
		<g>
			<line class="st5" x1="559.5" y1="96.5" x2="559.5" y2="102.5"/>
			<line class="st6" x1="559.5" y1="114.2" x2="559.5" y2="460.1"/>
			<polyline class="st5" points="559.5,466 559.5,472 553.5,471.3 			"/>
			<line class="st7" x1="542" y1="470" x2="225.2" y2="433.7"/>
			<polyline class="st5" points="219.5,433.1 213.5,432.4 213.5,426.4 			"/>
			<line class="st8" x1="213.5" y1="414.6" x2="213.5" y2="183.9"/>
			<line class="st5" x1="213.5" y1="178" x2="213.5" y2="172"/>
		</g>
	</g>
	<circle class="st9" cx="213.5" cy="169.5" r="6.5"/>
	<circle class="st9" cx="559.5" cy="96.5" r="6.5"/>
	<circle class="st10" cx="213.5" cy="431.5" r="6.5"/>
	<circle class="st10" cx="559.5" cy="472.5" r="6.5"/>
	<polyline class="st11" points="567.9,113.3 566,483.4 357.5,460.3 379,332.3 	"/>
	<g>
		<path class="st12" d="M562.5,160.9c-0.3-0.1-0.4-0.2-0.6-0.3c-7-3.8-14.1-7.6-21.1-11.4c-1.1-0.6-1.1-0.6-0.8-1.9
			c2.6,0.4,5.3,0.8,7.9,1.2c2.9,0.5,5.8,0.9,8.7,1.3c0.5,0.1,0.9-0.1,1-0.6c0.1-0.6-0.3-0.8-0.8-0.9c-1.3-0.2-2.7-0.4-4-0.6
			c-3-0.5-6-0.9-9-1.4c-1.5-0.2-3-0.5-4.5-0.7c-0.6-0.1-1,0.2-1,0.9c0,0.8,0,1.6,0,2.3c0,0.6,0.2,0.9,0.7,1.2c1.5,0.8,3,1.7,4.6,2.4
			c1.6,0.7,2.4,1.6,2.2,3.5c-0.2,1.2,1,2.2,2.2,2.3c1.4,0.1,2.1-0.7,2.6-1.9c1,0.5,1,0.5,1,1.4c0,0.5,0,0.9,0,1.4
			c0,1.2,0.8,2.2,2,2.4c1.1,0.2,2.2-0.4,2.7-1.5c0.1-0.2,0.1-0.3,0.2-0.5c1.8,1,3.6,2,5.4,2.9c0.4,0.2,0.6,0.5,0.6,1
			c0,2.6-0.1,5.3,0.4,7.9c0.3,1.7,0.8,3.3,1.8,4.7c1.4,1.9,3.9,1.9,5.2,0c0.6-0.9,1.1-1.9,1.4-2.9c0.9-2.9,1-6,0.9-9
			c0-1,0.3-1.5,1.1-1.9c1.6-0.8,3.2-1.7,4.8-2.6c0.1,0.2,0.1,0.2,0.2,0.3c0.5,1.3,1.6,1.9,2.8,1.7c1.2-0.2,1.9-1.2,2-2.5
			c0-0.4,0.1-0.8,0-1.2c-0.1-0.8,0.2-1.2,1-1.4c0.1,0.1,0.1,0.2,0.2,0.4c0.5,1.1,1.6,1.7,2.8,1.4c1.1-0.2,1.8-1.2,1.9-2.5
			c0-0.4,0-0.9,0-1.3c-0.1-0.5,0.1-0.8,0.6-1.1c2.1-1.1,4.1-2.2,6.1-3.3c0.3-0.2,0.6-0.5,0.7-0.8c0.1-0.9,0-1.9,0-2.8
			c0-0.5-0.3-0.7-0.7-0.7c-0.3,0-0.6,0-0.9,0.1c-1.1,0.2-2.2,0.4-3.3,0.5c-3.3,0.5-6.6,1-9.9,1.5c-3.3,0.5-6.5,1-9.8,1.5
			c-0.3-3.6-0.5-7.2-0.8-10.7c-0.2-2.1-0.3-4.3-0.5-6.4c0-0.5,0-0.6,0.5-0.8c1.6-0.7,3.2-1.4,4.8-2.1c0.5-0.2,0.8-0.6,0.7-1.1
			c0-0.9,0-1.8,0-2.7c0-0.8-0.3-1.1-1.1-1.1c-5.3,0-10.7,0-16,0c-0.8,0-1.1,0.3-1.1,1.1c0,0.8,0,1.7,0,2.5c0,0.7,0.3,1.1,0.9,1.4
			c1.6,0.7,3.1,1.4,4.7,2.1c0.2,0.1,0.5,0.4,0.4,0.5c0,1.2-0.2,2.4-0.3,3.6c-0.2,3.1-0.5,6.3-0.7,9.4c-0.1,1.4-0.2,2.9-0.3,4.4
			c-0.8-0.1-1.5-0.2-2.2-0.3c-0.7-0.1-1.2,0.1-1.3,0.6c0,0.7,0.4,0.8,1,0.9c0.8,0.1,1.6,0.2,2.4,0.4
			C562.8,154.2,562.7,157.5,562.5,160.9z M596,137.7c0-1.5,0-3,0-4.4c0-0.6-0.1-1.1-0.8-1.1c-0.6,0-0.8,0.5-0.8,1c0,3,0,5.9,0,8.9
			c0,0.5,0.2,1,0.8,1c0.6,0,0.8-0.5,0.8-1C596,140.6,596,139.2,596,137.7z M538.5,138c0,1.5,0,2.9,0,4.4c0,0.6,0.1,1,0.8,1
			c0.7,0,0.8-0.5,0.8-1c0-3,0-5.9,0-8.9c0-0.5-0.1-1-0.7-1c-0.6,0-0.8,0.5-0.8,1C538.5,135.1,538.5,136.5,538.5,138z M591.4,139.4
			c0-0.9,0-1.7,0-2.6c0-0.6-0.1-1.1-0.8-1c-0.6,0-0.8,0.5-0.8,1c0,1.8,0,3.5,0,5.3c0,0.5,0.2,1,0.8,1c0.6,0,0.8-0.4,0.8-1
			C591.4,141.2,591.4,140.3,591.4,139.4z M543.1,139.6c0,0.9,0,1.8,0,2.8c0,0.6,0.2,1,0.8,1c0.6,0,0.8-0.5,0.8-1c0-1.8,0-3.6,0-5.4
			c0-0.5-0.2-0.9-0.8-0.9c-0.6,0-0.8,0.4-0.8,1C543.1,137.9,543.1,138.8,543.1,139.6z M585.1,141.5c0,0.7,0,1.4,0,2
			c0,0.5,0.3,0.8,0.7,0.7c0.3,0,0.8-0.4,0.8-0.6c0.1-1.4,0.1-2.8,0-4.3c0-0.2-0.5-0.6-0.8-0.6c-0.5-0.1-0.7,0.3-0.7,0.8
			C585.1,140.2,585.1,140.8,585.1,141.5z M549.4,141.8c0-0.7,0-1.3,0-2c0-0.5-0.2-0.8-0.7-0.8c-0.5,0-0.8,0.3-0.8,0.7
			c0,1.4,0,2.8,0,4.1c0,0.4,0.3,0.8,0.8,0.7c0.5,0,0.7-0.3,0.7-0.8C549.4,143.1,549.4,142.4,549.4,141.8z"/>
		<path d="M562.5,160.9c0.2-3.4,0.3-6.7,0.4-10c-0.8-0.1-1.6-0.3-2.4-0.4c-0.6-0.1-1-0.3-1-0.9c0-0.5,0.6-0.7,1.3-0.6
			c0.7,0.1,1.4,0.2,2.2,0.3c0.1-1.5,0.2-2.9,0.3-4.4c0.2-3.1,0.5-6.3,0.7-9.4c0.1-1.2,0.2-2.4,0.3-3.6c0-0.2-0.3-0.4-0.4-0.5
			c-1.6-0.7-3.1-1.4-4.7-2.1c-0.6-0.3-0.9-0.7-0.9-1.4c0-0.8,0-1.7,0-2.5c0-0.8,0.3-1.1,1.1-1.1c5.3,0,10.7,0,16,0
			c0.8,0,1.1,0.3,1.1,1.1c0,0.9,0,1.8,0,2.7c0,0.6-0.2,0.9-0.7,1.1c-1.6,0.7-3.2,1.4-4.8,2.1c-0.4,0.2-0.5,0.4-0.5,0.8
			c0.2,2.1,0.3,4.3,0.5,6.4c0.3,3.6,0.5,7.1,0.8,10.7c3.3-0.5,6.6-1,9.8-1.5c3.3-0.5,6.6-1,9.9-1.5c1.1-0.2,2.2-0.4,3.3-0.5
			c0.3,0,0.6-0.1,0.9-0.1c0.5,0,0.7,0.3,0.7,0.7c0,0.9,0.1,1.9,0,2.8c0,0.3-0.4,0.7-0.7,0.8c-2,1.1-4.1,2.2-6.1,3.3
			c-0.5,0.3-0.7,0.5-0.6,1.1c0,0.4,0,0.9,0,1.3c0,1.2-0.8,2.2-1.9,2.5c-1.2,0.2-2.3-0.3-2.8-1.4c-0.1-0.1-0.1-0.3-0.2-0.4
			c-0.8,0.2-1.1,0.6-1,1.4c0.1,0.4,0,0.8,0,1.2c0,1.3-0.8,2.3-2,2.5c-1.2,0.2-2.3-0.4-2.8-1.7c0-0.1-0.1-0.2-0.2-0.3
			c-1.6,0.9-3.2,1.8-4.8,2.6c-0.9,0.4-1.2,1-1.1,1.9c0.1,3,0.1,6.1-0.9,9c-0.3,1-0.8,2-1.4,2.9c-1.3,1.9-3.8,1.9-5.2,0
			c-1.1-1.4-1.5-3-1.8-4.7c-0.5-2.6-0.5-5.3-0.4-7.9c0-0.5-0.1-0.7-0.6-1c-1.8-0.9-3.5-1.9-5.4-2.9c-0.1,0.2-0.2,0.4-0.2,0.5
			c-0.5,1.1-1.6,1.7-2.7,1.5c-1.1-0.2-1.9-1.2-2-2.4c0-0.5,0-0.9,0-1.4c0-1,0-1-1-1.4c-0.5,1.2-1.2,1.9-2.6,1.9
			c-1.2-0.1-2.4-1.1-2.2-2.3c0.3-1.9-0.6-2.8-2.2-3.5c-1.6-0.7-3.1-1.6-4.6-2.4c-0.5-0.3-0.8-0.6-0.7-1.2c0-0.8,0-1.6,0-2.3
			c0-0.6,0.3-1,1-0.9c1.5,0.2,3,0.4,4.5,0.7c3,0.5,6,0.9,9,1.4c1.3,0.2,2.7,0.4,4,0.6c0.5,0.1,0.9,0.3,0.8,0.9
			c-0.1,0.6-0.5,0.7-1,0.6c-2.9-0.4-5.8-0.9-8.7-1.3c-2.6-0.4-5.3-0.8-7.9-1.2c-0.2,1.3-0.2,1.3,0.8,1.9c7,3.8,14.1,7.6,21.1,11.4
			C562.1,160.7,562.3,160.8,562.5,160.9z M566.4,125.9c-0.1,0.8-0.1,1.5-0.2,2.3c-0.2,2.6-0.5,5.3-0.7,7.9c-0.2,2.2-0.3,4.3-0.5,6.5
			c-0.2,2.8-0.4,5.5-0.5,8.3c-0.1,2.5-0.3,5-0.3,7.6c-0.1,4.1-0.5,8.1,0.2,12.2c0.3,1.6,0.6,3.1,1.6,4.4c0.8,1.1,2,1.1,2.8,0
			c0.3-0.4,0.5-0.9,0.7-1.3c0.8-1.8,1.1-3.7,1.1-5.7c0.1-2.6,0-5.3,0-7.9c0-1.7-0.1-3.4-0.2-5.2c-0.2-2.9-0.3-5.9-0.5-8.8
			c-0.1-2.3-0.3-4.6-0.5-6.9c-0.2-2.9-0.5-5.7-0.7-8.6c-0.1-1.6-0.3-3.2-0.4-4.8C567.7,125.9,567.1,125.9,566.4,125.9z M594.8,147.3
			c-7.6,1.2-15.3,2.4-23,3.6c0.1,3.3,0.3,6.6,0.4,10c0.2-0.1,0.4-0.2,0.5-0.2c7-3.8,14.1-7.6,21.1-11.4
			C595,148.6,595,148.6,594.8,147.3z M559.9,125.9c-0.2,2-0.2,2,1.5,2.7c1,0.4,2,0.9,3.1,1.4c0.1-1.4,0.2-2.7,0.4-4.1
			C563.2,125.9,561.6,125.9,559.9,125.9z M570.3,130c1.5-0.7,3-1.3,4.4-2c0.1,0,0.2-0.2,0.2-0.3c0-0.6,0-1.2,0-1.8c-1.7,0-3.3,0-5,0
			C570,127.3,570.1,128.6,570.3,130z M553.1,157.7c0.1,0.7,0.1,1.3,0.2,1.9c0.1,0.2,0.5,0.5,0.8,0.4c0.3,0,0.6-0.3,0.7-0.5
			c0.1-0.2,0-0.7-0.1-0.9C554.3,158.2,553.8,158,553.1,157.7z M581.6,157.7c-0.6,0.3-1,0.5-1.4,0.7c-0.5,0.2-0.5,0.6-0.4,0.9
			c0.1,0.3,0.5,0.6,0.7,0.6c0.3,0,0.7-0.3,0.8-0.6C581.6,158.9,581.6,158.4,581.6,157.7z M547.4,154.6c0,0.6,0,1.1,0.1,1.5
			c0.1,0.3,0.5,0.6,0.8,0.6c0.3-0.1,0.6-0.4,0.8-0.7c0.3-0.4-0.1-0.6-0.4-0.7C548.3,155,547.9,154.8,547.4,154.6z M587.3,154.6
			c-0.4,0.2-0.8,0.4-1.2,0.6c-0.3,0.2-0.7,0.3-0.5,0.7c0.2,0.3,0.5,0.7,0.8,0.7c0.2,0,0.7-0.4,0.8-0.6
			C587.4,155.6,587.3,155.1,587.3,154.6z"/>
		<path d="M596,137.7c0,1.5,0,2.9,0,4.4c0,0.6-0.1,1-0.8,1c-0.6,0-0.8-0.5-0.8-1c0-3,0-5.9,0-8.9c0-0.5,0.2-1,0.8-1
			c0.7,0,0.8,0.5,0.8,1.1C596,134.8,596,136.2,596,137.7z"/>
		<path d="M538.5,138c0-1.5,0-3,0-4.4c0-0.6,0.2-1,0.8-1c0.6,0,0.7,0.5,0.7,1c0,3,0,5.9,0,8.9c0,0.5-0.1,1-0.8,1
			c-0.6,0-0.8-0.4-0.8-1C538.5,140.9,538.5,139.5,538.5,138z"/>
		<path d="M591.4,139.4c0,0.9,0,1.8,0,2.7c0,0.6-0.2,1-0.8,1c-0.6,0-0.8-0.5-0.8-1c0-1.8,0-3.5,0-5.3c0-0.5,0.1-1,0.8-1
			c0.7,0,0.8,0.5,0.8,1C591.4,137.7,591.4,138.5,591.4,139.4z"/>
		<path d="M543.1,139.6c0-0.9,0-1.7,0-2.6c0-0.5,0.2-1,0.8-1c0.6,0,0.8,0.4,0.8,0.9c0,1.8,0,3.6,0,5.4c0,0.5-0.2,1-0.8,1
			c-0.6,0-0.8-0.4-0.8-1C543.1,141.5,543.1,140.6,543.1,139.6z"/>
		<path d="M585.1,141.5c0-0.7,0-1.3,0-2c0-0.5,0.2-0.9,0.7-0.8c0.3,0,0.8,0.4,0.8,0.6c0.1,1.4,0.1,2.8,0,4.3c0,0.2-0.5,0.6-0.8,0.6
			c-0.4,0.1-0.7-0.3-0.7-0.7C585.1,142.8,585.1,142.1,585.1,141.5z"/>
		<path d="M549.4,141.8c0,0.7,0,1.3,0,2c0,0.5-0.2,0.8-0.7,0.8c-0.5,0-0.8-0.3-0.8-0.7c0-1.4,0-2.8,0-4.1c0-0.4,0.3-0.8,0.8-0.7
			c0.5,0,0.7,0.4,0.7,0.8C549.4,140.5,549.4,141.1,549.4,141.8z"/>
		<path class="st12" d="M566.4,125.9c0.6,0,1.2,0,1.9,0c0.2,1.6,0.3,3.2,0.4,4.8c0.2,2.8,0.5,5.7,0.7,8.6c0.2,2.3,0.3,4.6,0.5,6.9
			c0.2,2.9,0.4,5.9,0.5,8.8c0.1,1.7,0.2,3.4,0.2,5.2c0,2.6,0.1,5.3,0,7.9c-0.1,1.9-0.4,3.9-1.1,5.7c-0.2,0.5-0.4,0.9-0.7,1.3
			c-0.8,1.1-2,1.1-2.8,0c-1-1.3-1.3-2.8-1.6-4.4c-0.7-4.1-0.3-8.1-0.2-12.2c0.1-2.5,0.2-5,0.3-7.6c0.2-2.8,0.4-5.5,0.5-8.3
			c0.1-2.2,0.3-4.3,0.5-6.5c0.2-2.6,0.5-5.3,0.7-7.9C566.3,127.4,566.4,126.7,566.4,125.9z"/>
		<path class="st12" d="M594.8,147.3c0.2,1.3,0.2,1.3-0.9,1.9c-7,3.8-14.1,7.6-21.1,11.4c-0.1,0.1-0.3,0.1-0.5,0.2
			c-0.2-3.4-0.3-6.7-0.4-10C579.5,149.7,587.1,148.5,594.8,147.3z"/>
		<path class="st12" d="M559.9,125.9c1.6,0,3.2,0,4.9,0c-0.1,1.3-0.2,2.7-0.4,4.1c-1.1-0.5-2.1-0.9-3.1-1.4
			C559.8,127.9,559.8,127.9,559.9,125.9z"/>
		<path class="st12" d="M570.3,130c-0.1-1.4-0.2-2.7-0.4-4.1c1.7,0,3.3,0,5,0c0,0.6,0,1.2,0,1.8c0,0.1-0.1,0.3-0.2,0.3
			C573.2,128.7,571.8,129.3,570.3,130z"/>
		<path class="st12" d="M553.1,157.7c0.7,0.4,1.2,0.5,1.6,0.9c0.2,0.2,0.2,0.6,0.1,0.9c-0.1,0.2-0.5,0.5-0.7,0.5
			c-0.3,0-0.7-0.2-0.8-0.4C553.2,159,553.2,158.4,553.1,157.7z"/>
		<path class="st12" d="M581.6,157.7c-0.1,0.7,0,1.3-0.2,1.7c-0.1,0.3-0.5,0.6-0.8,0.6c-0.2,0-0.6-0.3-0.7-0.6
			c-0.2-0.4-0.1-0.7,0.4-0.9C580.6,158.2,581,158,581.6,157.7z"/>
		<path class="st12" d="M547.4,154.6c0.5,0.3,0.9,0.5,1.3,0.7c0.3,0.2,0.7,0.3,0.4,0.7c-0.2,0.3-0.5,0.6-0.8,0.7
			c-0.2,0-0.7-0.3-0.8-0.6C547.4,155.7,547.4,155.2,547.4,154.6z"/>
		<path class="st12" d="M587.3,154.6c0,0.5,0.1,1,0,1.4c-0.1,0.3-0.5,0.7-0.8,0.6c-0.3,0-0.6-0.4-0.8-0.7c-0.3-0.4,0.2-0.6,0.5-0.7
			C586.5,155,586.9,154.8,587.3,154.6z"/>
	</g>
	<g>
		<path class="st12" d="M563.1,397c-0.3-0.1-0.4-0.2-0.6-0.3c-7-3.8-14.1-7.6-21.1-11.4c-1.1-0.6-1.1-0.6-0.8-1.9
			c2.6,0.4,5.3,0.8,7.9,1.2c2.9,0.5,5.8,0.9,8.7,1.3c0.5,0.1,0.9-0.1,1-0.6c0.1-0.6-0.3-0.8-0.8-0.9c-1.3-0.2-2.7-0.4-4-0.6
			c-3-0.5-6-0.9-9-1.4c-1.5-0.2-3-0.5-4.5-0.7c-0.6-0.1-1,0.2-1,0.9c0,0.8,0,1.6,0,2.3c0,0.6,0.2,0.9,0.7,1.2c1.5,0.8,3,1.7,4.6,2.4
			c1.6,0.7,2.4,1.6,2.2,3.5c-0.2,1.2,1,2.2,2.2,2.3c1.4,0.1,2.1-0.7,2.6-1.9c1,0.5,1,0.5,1,1.4c0,0.5,0,0.9,0,1.4
			c0,1.2,0.8,2.2,2,2.4c1.1,0.2,2.2-0.4,2.7-1.5c0.1-0.2,0.1-0.3,0.2-0.5c1.8,1,3.6,2,5.4,2.9c0.4,0.2,0.6,0.5,0.6,1
			c0,2.6-0.1,5.3,0.4,7.9c0.3,1.7,0.8,3.3,1.8,4.7c1.4,1.9,3.9,1.9,5.2,0c0.6-0.9,1.1-1.9,1.4-2.9c0.9-2.9,1-6,0.9-9
			c0-1,0.3-1.5,1.1-1.9c1.6-0.8,3.2-1.7,4.8-2.6c0.1,0.2,0.1,0.2,0.2,0.3c0.5,1.3,1.6,1.9,2.8,1.7c1.2-0.2,1.9-1.2,2-2.5
			c0-0.4,0.1-0.8,0-1.2c-0.1-0.8,0.2-1.2,1-1.4c0.1,0.1,0.1,0.2,0.2,0.4c0.5,1.1,1.6,1.7,2.8,1.4c1.1-0.2,1.8-1.2,1.9-2.5
			c0-0.4,0-0.9,0-1.3c-0.1-0.5,0.1-0.8,0.6-1.1c2.1-1.1,4.1-2.2,6.1-3.3c0.3-0.2,0.6-0.5,0.7-0.8c0.1-0.9,0-1.9,0-2.8
			c0-0.5-0.3-0.7-0.7-0.7c-0.3,0-0.6,0-0.9,0.1c-1.1,0.2-2.2,0.4-3.3,0.5c-3.3,0.5-6.6,1-9.9,1.5c-3.3,0.5-6.5,1-9.8,1.5
			c-0.3-3.6-0.5-7.2-0.8-10.7c-0.2-2.1-0.3-4.3-0.5-6.4c0-0.5,0-0.6,0.5-0.8c1.6-0.7,3.2-1.4,4.8-2.1c0.5-0.2,0.8-0.6,0.7-1.1
			c0-0.9,0-1.8,0-2.7c0-0.8-0.3-1.1-1.1-1.1c-5.3,0-10.7,0-16,0c-0.8,0-1.1,0.3-1.1,1.1c0,0.8,0,1.7,0,2.5c0,0.7,0.3,1.1,0.9,1.4
			c1.6,0.7,3.1,1.4,4.7,2.1c0.2,0.1,0.5,0.4,0.4,0.5c0,1.2-0.2,2.4-0.3,3.6c-0.2,3.1-0.5,6.3-0.7,9.4c-0.1,1.4-0.2,2.9-0.3,4.4
			c-0.8-0.1-1.5-0.2-2.2-0.3c-0.7-0.1-1.2,0.1-1.3,0.6c0,0.7,0.4,0.8,1,0.9c0.8,0.1,1.6,0.2,2.4,0.4
			C563.4,390.4,563.2,393.7,563.1,397z M596.6,373.9c0-1.5,0-3,0-4.4c0-0.6-0.1-1.1-0.8-1.1c-0.6,0-0.8,0.5-0.8,1c0,3,0,5.9,0,8.9
			c0,0.5,0.2,1,0.8,1c0.6,0,0.8-0.5,0.8-1C596.6,376.8,596.6,375.3,596.6,373.9z M539,374.2c0,1.5,0,2.9,0,4.4c0,0.6,0.1,1,0.8,1
			c0.7,0,0.8-0.5,0.8-1c0-3,0-5.9,0-8.9c0-0.5-0.1-1-0.7-1c-0.6,0-0.8,0.5-0.8,1C539,371.2,539,372.7,539,374.2z M591.9,375.6
			c0-0.9,0-1.7,0-2.6c0-0.6-0.1-1.1-0.8-1c-0.6,0-0.8,0.5-0.8,1c0,1.8,0,3.5,0,5.3c0,0.5,0.2,1,0.8,1c0.6,0,0.8-0.4,0.8-1
			C591.9,377.4,591.9,376.5,591.9,375.6z M543.7,375.8c0,0.9,0,1.8,0,2.8c0,0.6,0.2,1,0.8,1c0.6,0,0.8-0.5,0.8-1c0-1.8,0-3.6,0-5.4
			c0-0.5-0.2-0.9-0.8-0.9c-0.6,0-0.8,0.4-0.8,1C543.7,374.1,543.7,374.9,543.7,375.8z M585.7,377.6c0,0.7,0,1.4,0,2
			c0,0.5,0.3,0.8,0.7,0.7c0.3,0,0.8-0.4,0.8-0.6c0.1-1.4,0.1-2.8,0-4.3c0-0.2-0.5-0.6-0.8-0.6c-0.5-0.1-0.7,0.3-0.7,0.8
			C585.7,376.3,585.7,377,585.7,377.6z M550,377.9c0-0.7,0-1.3,0-2c0-0.5-0.2-0.8-0.7-0.8c-0.5,0-0.8,0.3-0.8,0.7c0,1.4,0,2.8,0,4.1
			c0,0.4,0.3,0.8,0.8,0.7c0.5,0,0.7-0.3,0.7-0.8C550,379.2,550,378.6,550,377.9z"/>
		<path d="M563.1,397c0.2-3.4,0.3-6.7,0.4-10c-0.8-0.1-1.6-0.3-2.4-0.4c-0.6-0.1-1-0.3-1-0.9c0-0.5,0.6-0.7,1.3-0.6
			c0.7,0.1,1.4,0.2,2.2,0.3c0.1-1.5,0.2-2.9,0.3-4.4c0.2-3.1,0.5-6.3,0.7-9.4c0.1-1.2,0.2-2.4,0.3-3.6c0-0.2-0.3-0.4-0.4-0.5
			c-1.6-0.7-3.1-1.4-4.7-2.1c-0.6-0.3-0.9-0.7-0.9-1.4c0-0.8,0-1.7,0-2.5c0-0.8,0.3-1.1,1.1-1.1c5.3,0,10.7,0,16,0
			c0.8,0,1.1,0.3,1.1,1.1c0,0.9,0,1.8,0,2.7c0,0.6-0.2,0.9-0.7,1.1c-1.6,0.7-3.2,1.4-4.8,2.1c-0.4,0.2-0.5,0.4-0.5,0.8
			c0.2,2.1,0.3,4.3,0.5,6.4c0.3,3.6,0.5,7.1,0.8,10.7c3.3-0.5,6.6-1,9.8-1.5c3.3-0.5,6.6-1,9.9-1.5c1.1-0.2,2.2-0.4,3.3-0.5
			c0.3,0,0.6-0.1,0.9-0.1c0.5,0,0.7,0.3,0.7,0.7c0,0.9,0.1,1.9,0,2.8c0,0.3-0.4,0.7-0.7,0.8c-2,1.1-4.1,2.2-6.1,3.3
			c-0.5,0.3-0.7,0.5-0.6,1.1c0,0.4,0,0.9,0,1.3c0,1.2-0.8,2.2-1.9,2.5c-1.2,0.2-2.3-0.3-2.8-1.4c-0.1-0.1-0.1-0.3-0.2-0.4
			c-0.8,0.2-1.1,0.6-1,1.4c0.1,0.4,0,0.8,0,1.2c0,1.3-0.8,2.3-2,2.5c-1.2,0.2-2.3-0.4-2.8-1.7c0-0.1-0.1-0.2-0.2-0.3
			c-1.6,0.9-3.2,1.8-4.8,2.6c-0.9,0.4-1.2,1-1.1,1.9c0.1,3,0.1,6.1-0.9,9c-0.3,1-0.8,2-1.4,2.9c-1.3,1.9-3.8,1.9-5.2,0
			c-1.1-1.4-1.5-3-1.8-4.7c-0.5-2.6-0.5-5.3-0.4-7.9c0-0.5-0.1-0.7-0.6-1c-1.8-0.9-3.5-1.9-5.4-2.9c-0.1,0.2-0.2,0.4-0.2,0.5
			c-0.5,1.1-1.6,1.7-2.7,1.5c-1.1-0.2-1.9-1.2-2-2.4c0-0.5,0-0.9,0-1.4c0-1,0-1-1-1.4c-0.5,1.2-1.2,1.9-2.6,1.9
			c-1.2-0.1-2.4-1.1-2.2-2.3c0.3-1.9-0.6-2.8-2.2-3.5c-1.6-0.7-3.1-1.6-4.6-2.4c-0.5-0.3-0.8-0.6-0.7-1.2c0-0.8,0-1.6,0-2.3
			c0-0.6,0.3-1,1-0.9c1.5,0.2,3,0.4,4.5,0.7c3,0.5,6,0.9,9,1.4c1.3,0.2,2.7,0.4,4,0.6c0.5,0.1,0.9,0.3,0.8,0.9
			c-0.1,0.6-0.5,0.7-1,0.6c-2.9-0.4-5.8-0.9-8.7-1.3c-2.6-0.4-5.3-0.8-7.9-1.2c-0.2,1.3-0.2,1.3,0.8,1.9c7,3.8,14.1,7.6,21.1,11.4
			C562.7,396.9,562.8,396.9,563.1,397z M567,362.1c-0.1,0.8-0.1,1.5-0.2,2.3c-0.2,2.6-0.5,5.3-0.7,7.9c-0.2,2.2-0.3,4.3-0.5,6.5
			c-0.2,2.8-0.4,5.5-0.5,8.3c-0.1,2.5-0.3,5-0.3,7.6c-0.1,4.1-0.5,8.1,0.2,12.2c0.3,1.6,0.6,3.1,1.6,4.4c0.8,1.1,2,1.1,2.8,0
			c0.3-0.4,0.5-0.9,0.7-1.3c0.8-1.8,1.1-3.7,1.1-5.7c0.1-2.6,0-5.3,0-7.9c0-1.7-0.1-3.4-0.2-5.2c-0.2-2.9-0.3-5.9-0.5-8.8
			c-0.1-2.3-0.3-4.6-0.5-6.9c-0.2-2.9-0.5-5.7-0.7-8.6c-0.1-1.6-0.3-3.2-0.4-4.8C568.2,362.1,567.7,362.1,567,362.1z M595.4,383.5
			c-7.6,1.2-15.3,2.4-23,3.6c0.1,3.3,0.3,6.6,0.4,10c0.2-0.1,0.4-0.2,0.5-0.2c7-3.8,14.1-7.6,21.1-11.4
			C595.6,384.8,595.6,384.8,595.4,383.5z M560.5,362.1c-0.2,2-0.2,2,1.5,2.7c1,0.4,2,0.9,3.1,1.4c0.1-1.4,0.2-2.7,0.4-4.1
			C563.7,362.1,562.1,362.1,560.5,362.1z M570.8,366.2c1.5-0.7,3-1.3,4.4-2c0.1,0,0.2-0.2,0.2-0.3c0-0.6,0-1.2,0-1.8
			c-1.7,0-3.3,0-5,0C570.6,363.4,570.7,364.8,570.8,366.2z M553.7,393.8c0.1,0.7,0.1,1.3,0.2,1.9c0.1,0.2,0.5,0.5,0.8,0.4
			c0.3,0,0.6-0.3,0.7-0.5c0.1-0.2,0-0.7-0.1-0.9C554.9,394.4,554.4,394.2,553.7,393.8z M582.2,393.8c-0.6,0.3-1,0.5-1.4,0.7
			c-0.5,0.2-0.5,0.6-0.4,0.9c0.1,0.3,0.5,0.6,0.7,0.6c0.3,0,0.7-0.3,0.8-0.6C582.2,395.1,582.1,394.5,582.2,393.8z M548,390.7
			c0,0.6,0,1.1,0.1,1.5c0.1,0.3,0.5,0.6,0.8,0.6c0.3-0.1,0.6-0.4,0.8-0.7c0.3-0.4-0.1-0.6-0.4-0.7C548.9,391.2,548.5,391,548,390.7z
			 M587.9,390.8c-0.4,0.2-0.8,0.4-1.2,0.6c-0.3,0.2-0.7,0.3-0.5,0.7c0.2,0.3,0.5,0.7,0.8,0.7c0.2,0,0.7-0.4,0.8-0.6
			C588,391.8,587.9,391.3,587.9,390.8z"/>
		<path d="M596.6,373.9c0,1.5,0,2.9,0,4.4c0,0.6-0.1,1-0.8,1c-0.6,0-0.8-0.5-0.8-1c0-3,0-5.9,0-8.9c0-0.5,0.2-1,0.8-1
			c0.7,0,0.8,0.5,0.8,1.1C596.6,370.9,596.6,372.4,596.6,373.9z"/>
		<path d="M539,374.2c0-1.5,0-3,0-4.4c0-0.6,0.2-1,0.8-1c0.6,0,0.7,0.5,0.7,1c0,3,0,5.9,0,8.9c0,0.5-0.1,1-0.8,1
			c-0.6,0-0.8-0.4-0.8-1C539,377.1,539,375.6,539,374.2z"/>
		<path d="M591.9,375.6c0,0.9,0,1.8,0,2.7c0,0.6-0.2,1-0.8,1c-0.6,0-0.8-0.5-0.8-1c0-1.8,0-3.5,0-5.3c0-0.5,0.1-1,0.8-1
			c0.7,0,0.8,0.5,0.8,1C591.9,373.8,591.9,374.7,591.9,375.6z"/>
		<path d="M543.7,375.8c0-0.9,0-1.7,0-2.6c0-0.5,0.2-1,0.8-1c0.6,0,0.8,0.4,0.8,0.9c0,1.8,0,3.6,0,5.4c0,0.5-0.2,1-0.8,1
			c-0.6,0-0.8-0.4-0.8-1C543.7,377.6,543.7,376.7,543.7,375.8z"/>
		<path d="M585.7,377.6c0-0.7,0-1.3,0-2c0-0.5,0.2-0.9,0.7-0.8c0.3,0,0.8,0.4,0.8,0.6c0.1,1.4,0.1,2.8,0,4.3c0,0.2-0.5,0.6-0.8,0.6
			c-0.4,0.1-0.7-0.3-0.7-0.7C585.7,379,585.7,378.3,585.7,377.6z"/>
		<path d="M550,377.9c0,0.7,0,1.3,0,2c0,0.5-0.2,0.8-0.7,0.8c-0.5,0-0.8-0.3-0.8-0.7c0-1.4,0-2.8,0-4.1c0-0.4,0.3-0.8,0.8-0.7
			c0.5,0,0.7,0.4,0.7,0.8C550,376.6,550,377.3,550,377.9z"/>
		<path class="st12" d="M567,362.1c0.6,0,1.2,0,1.9,0c0.2,1.6,0.3,3.2,0.4,4.8c0.2,2.8,0.5,5.7,0.7,8.6c0.2,2.3,0.3,4.6,0.5,6.9
			c0.2,2.9,0.4,5.9,0.5,8.8c0.1,1.7,0.2,3.4,0.2,5.2c0,2.6,0.1,5.3,0,7.9c-0.1,1.9-0.4,3.9-1.1,5.7c-0.2,0.5-0.4,0.9-0.7,1.3
			c-0.8,1.1-2,1.1-2.8,0c-1-1.3-1.3-2.8-1.6-4.4c-0.7-4.1-0.3-8.1-0.2-12.2c0.1-2.5,0.2-5,0.3-7.6c0.2-2.8,0.4-5.5,0.5-8.3
			c0.1-2.2,0.3-4.3,0.5-6.5c0.2-2.6,0.5-5.3,0.7-7.9C566.9,363.6,567,362.9,567,362.1z"/>
		<path class="st12" d="M595.4,383.5c0.2,1.3,0.2,1.3-0.9,1.9c-7,3.8-14.1,7.6-21.1,11.4c-0.1,0.1-0.3,0.1-0.5,0.2
			c-0.2-3.4-0.3-6.7-0.4-10C580.1,385.8,587.7,384.7,595.4,383.5z"/>
		<path class="st12" d="M560.5,362.1c1.6,0,3.2,0,4.9,0c-0.1,1.3-0.2,2.7-0.4,4.1c-1.1-0.5-2.1-0.9-3.1-1.4
			C560.3,364,560.3,364,560.5,362.1z"/>
		<path class="st12" d="M570.8,366.2c-0.1-1.4-0.2-2.7-0.4-4.1c1.7,0,3.3,0,5,0c0,0.6,0,1.2,0,1.8c0,0.1-0.1,0.3-0.2,0.3
			C573.8,364.9,572.4,365.5,570.8,366.2z"/>
		<path class="st12" d="M553.7,393.8c0.7,0.4,1.2,0.5,1.6,0.9c0.2,0.2,0.2,0.6,0.1,0.9c-0.1,0.2-0.5,0.5-0.7,0.5
			c-0.3,0-0.7-0.2-0.8-0.4C553.8,395.1,553.8,394.6,553.7,393.8z"/>
		<path class="st12" d="M582.2,393.8c-0.1,0.7,0,1.3-0.2,1.7c-0.1,0.3-0.5,0.6-0.8,0.6c-0.2,0-0.6-0.3-0.7-0.6
			c-0.2-0.4-0.1-0.7,0.4-0.9C581.2,394.4,581.6,394.1,582.2,393.8z"/>
		<path class="st12" d="M548,390.7c0.5,0.3,0.9,0.5,1.3,0.7c0.3,0.2,0.7,0.3,0.4,0.7c-0.2,0.3-0.5,0.6-0.8,0.7
			c-0.2,0-0.7-0.3-0.8-0.6C548,391.8,548,391.3,548,390.7z"/>
		<path class="st12" d="M587.9,390.8c0,0.5,0.1,1,0,1.4c-0.1,0.3-0.5,0.7-0.8,0.6c-0.3,0-0.6-0.4-0.8-0.7c-0.3-0.4,0.2-0.6,0.5-0.7
			C587,391.2,587.4,391,587.9,390.8z"/>
	</g>
	<g>
		<path class="st12" d="M459.6,466c0.1-0.2,0.2-0.4,0.3-0.6c4.6-6.5,9.2-13.1,13.8-19.6c0.7-1,0.7-1,2-0.6c-0.7,2.6-1.5,5.2-2.2,7.7
			c-0.8,2.8-1.6,5.6-2.4,8.4c-0.1,0.5,0,1,0.5,1.1c0.6,0.2,0.9-0.2,1-0.7c0.4-1.3,0.7-2.6,1.1-3.9c0.8-2.9,1.6-5.8,2.4-8.7
			c0.4-1.5,0.8-2.9,1.2-4.4c0.2-0.6-0.1-1-0.8-1.1c-0.8-0.1-1.5-0.2-2.3-0.3c-0.6-0.1-1,0.1-1.3,0.6c-1,1.4-2.1,2.8-3,4.3
			c-0.9,1.5-1.9,2.2-3.7,1.7c-1.1-0.3-2.3,0.7-2.5,1.9c-0.2,1.4,0.4,2.2,1.5,2.8c-0.6,0.9-0.6,0.9-1.5,0.8c-0.5-0.1-0.9-0.1-1.4-0.2
			c-1.2-0.1-2.3,0.6-2.6,1.7c-0.3,1.1,0.2,2.3,1.2,2.9c0.2,0.1,0.3,0.2,0.5,0.3c-1.2,1.7-2.4,3.3-3.5,5c-0.3,0.4-0.5,0.5-1,0.4
			c-2.6-0.4-5.2-0.7-7.9-0.5c-1.7,0.1-3.4,0.4-4.9,1.2c-2,1.2-2.4,3.6-0.6,5.2c0.8,0.7,1.8,1.3,2.7,1.7c2.8,1.3,5.8,1.7,8.8,1.9
			c1,0.1,1.5,0.4,1.8,1.4c0.6,1.7,1.3,3.4,2,5.1c-0.2,0.1-0.3,0.1-0.3,0.1c-1.3,0.3-2.1,1.3-2,2.5c0.1,1.2,1,2.1,2.3,2.2
			c0.4,0.1,0.8,0.2,1.2,0.1c0.8,0,1.2,0.4,1.3,1.2c-0.1,0-0.3,0.1-0.4,0.1c-1.2,0.4-1.9,1.4-1.8,2.6c0.1,1.1,1,2,2.2,2.1
			c0.4,0.1,0.9,0.1,1.3,0.1c0.5,0,0.8,0.2,1,0.7c0.8,2.2,1.7,4.3,2.6,6.5c0.1,0.3,0.4,0.7,0.7,0.8c0.9,0.2,1.9,0.3,2.8,0.4
			c0.5,0,0.7-0.2,0.8-0.6c0-0.3,0.1-0.6,0-0.9c0-1.1-0.1-2.2-0.1-3.3c-0.1-3.3-0.2-6.7-0.3-10c-0.1-3.3-0.2-6.6-0.4-9.9
			c3.6,0.2,7.2,0.3,10.7,0.5c2.1,0.1,4.3,0.2,6.4,0.3c0.5,0,0.6,0.1,0.8,0.5c0.5,1.7,1,3.4,1.5,5.1c0.2,0.5,0.5,0.8,1,0.9
			c0.9,0.1,1.8,0.2,2.7,0.3c0.8,0.1,1.1-0.1,1.2-1c0.6-5.3,1.3-10.6,1.9-15.9c0.1-0.8-0.1-1.1-1-1.2c-0.8-0.1-1.6-0.2-2.5-0.3
			c-0.7-0.1-1.1,0.1-1.5,0.7c-0.8,1.5-1.7,3-2.6,4.4c-0.1,0.2-0.4,0.4-0.6,0.4c-1.2-0.2-2.3-0.4-3.5-0.7c-3.1-0.6-6.2-1.2-9.3-1.8
			c-1.4-0.3-2.8-0.6-4.3-0.8c0.2-0.7,0.4-1.4,0.6-2.1c0.2-0.7,0.1-1.2-0.5-1.3c-0.7-0.1-0.9,0.3-1,0.9c-0.2,0.8-0.4,1.5-0.7,2.3
			C466.2,467.1,462.9,466.5,459.6,466z M478.6,502c1.5,0.2,2.9,0.3,4.4,0.5c0.6,0.1,1.1,0,1.1-0.7c0.1-0.6-0.4-0.8-0.9-0.9
			c-2.9-0.4-5.9-0.7-8.8-1.1c-0.5-0.1-1,0.1-1.1,0.7c-0.1,0.6,0.4,0.8,0.9,0.9C475.7,501.7,477.2,501.9,478.6,502z M485.2,444.8
			c-1.4-0.2-2.9-0.3-4.3-0.5c-0.6-0.1-1,0-1.1,0.6c-0.1,0.6,0.4,0.8,0.9,0.9c2.9,0.4,5.9,0.7,8.8,1.1c0.5,0.1,1,0,1.1-0.6
			c0.1-0.6-0.3-0.9-0.9-0.9C488.1,445.2,486.6,445,485.2,444.8z M477.5,497.2c0.9,0.1,1.7,0.2,2.6,0.3c0.6,0.1,1.1,0,1.1-0.7
			c0.1-0.6-0.4-0.8-0.9-0.9c-1.8-0.2-3.5-0.4-5.3-0.6c-0.5-0.1-1,0-1.1,0.7c-0.1,0.6,0.3,0.9,0.9,0.9
			C475.7,497,476.6,497.1,477.5,497.2z M483,449.3c-0.9-0.1-1.8-0.2-2.7-0.3c-0.5-0.1-1,0.1-1.1,0.7c-0.1,0.6,0.4,0.8,0.9,0.9
			c1.8,0.2,3.6,0.4,5.3,0.6c0.5,0.1,0.9-0.1,1-0.6c0.1-0.6-0.3-0.9-0.9-0.9C484.7,449.5,483.9,449.4,483,449.3z M476.2,490.7
			c-0.7-0.1-1.3-0.2-2-0.2c-0.5,0-0.8,0.2-0.8,0.6c0,0.3,0.3,0.8,0.5,0.9c1.4,0.2,2.8,0.4,4.2,0.5c0.2,0,0.6-0.4,0.7-0.7
			c0.1-0.5-0.2-0.7-0.7-0.8C477.5,490.9,476.8,490.8,476.2,490.7z M480.1,455.2c0.6,0.1,1.3,0.2,1.9,0.2c0.5,0,0.8-0.1,0.9-0.6
			c0.1-0.5-0.2-0.8-0.6-0.9c-1.4-0.2-2.7-0.4-4.1-0.5c-0.4,0-0.8,0.2-0.8,0.7c0,0.5,0.3,0.8,0.7,0.8
			C478.8,455.1,479.5,455.2,480.1,455.2z"/>
		<path d="M459.6,466c3.3,0.6,6.6,1.1,9.9,1.6c0.2-0.8,0.5-1.6,0.7-2.3c0.1-0.5,0.4-1,1-0.9c0.5,0.1,0.7,0.6,0.5,1.3
			c-0.2,0.7-0.4,1.4-0.6,2.1c1.4,0.3,2.9,0.6,4.3,0.8c3.1,0.6,6.2,1.2,9.3,1.8c1.2,0.2,2.3,0.5,3.5,0.7c0.2,0,0.5-0.2,0.6-0.4
			c0.9-1.5,1.8-2.9,2.6-4.4c0.3-0.6,0.8-0.9,1.5-0.7c0.8,0.1,1.6,0.2,2.5,0.3c0.8,0.1,1.1,0.4,1,1.2c-0.6,5.3-1.3,10.6-1.9,15.9
			c-0.1,0.8-0.4,1-1.2,1c-0.9-0.1-1.8-0.2-2.7-0.3c-0.6-0.1-0.9-0.3-1-0.9c-0.5-1.7-1-3.4-1.5-5.1c-0.1-0.4-0.3-0.5-0.8-0.5
			c-2.1,0-4.3-0.2-6.4-0.3c-3.6-0.2-7.1-0.3-10.7-0.5c0.1,3.3,0.2,6.6,0.4,9.9c0.1,3.3,0.2,6.7,0.3,10c0,1.1,0.1,2.2,0.1,3.3
			c0,0.3,0,0.6,0,0.9c-0.1,0.5-0.3,0.7-0.8,0.6c-0.9-0.1-1.9-0.2-2.8-0.4c-0.3-0.1-0.6-0.5-0.7-0.8c-0.9-2.1-1.7-4.3-2.6-6.5
			c-0.2-0.5-0.5-0.7-1-0.7c-0.4,0-0.9-0.1-1.3-0.1c-1.2-0.2-2.1-1-2.2-2.1c-0.1-1.2,0.6-2.2,1.8-2.6c0.1,0,0.3-0.1,0.4-0.1
			c-0.1-0.8-0.5-1.2-1.3-1.2c-0.4,0-0.8-0.1-1.2-0.1c-1.3-0.2-2.2-1.1-2.3-2.2c-0.1-1.2,0.7-2.2,2-2.5c0.1,0,0.2-0.1,0.3-0.1
			c-0.7-1.7-1.4-3.3-2-5.1c-0.3-0.9-0.8-1.3-1.8-1.4c-3-0.2-6-0.7-8.8-1.9c-1-0.4-1.9-1-2.7-1.7c-1.8-1.6-1.4-4,0.6-5.2
			c1.5-0.9,3.2-1.1,4.9-1.2c2.7-0.2,5.3,0.2,7.9,0.5c0.5,0.1,0.7,0,1-0.4c1.1-1.7,2.3-3.3,3.5-5c-0.2-0.1-0.3-0.2-0.5-0.3
			c-1-0.6-1.5-1.8-1.2-2.9c0.3-1.1,1.4-1.8,2.6-1.7c0.5,0,0.9,0.1,1.4,0.2c1,0.1,1,0.1,1.5-0.8c-1.1-0.6-1.8-1.5-1.5-2.8
			c0.2-1.2,1.3-2.2,2.5-1.9c1.8,0.5,2.8-0.2,3.7-1.7c0.9-1.5,2-2.9,3-4.3c0.3-0.5,0.7-0.7,1.3-0.6c0.8,0.1,1.5,0.2,2.3,0.3
			c0.6,0.1,0.9,0.4,0.8,1.1c-0.4,1.5-0.8,2.9-1.2,4.4c-0.8,2.9-1.6,5.8-2.4,8.7c-0.4,1.3-0.7,2.6-1.1,3.9c-0.1,0.5-0.4,0.9-1,0.7
			c-0.5-0.2-0.7-0.6-0.5-1.1c0.8-2.8,1.6-5.6,2.4-8.4c0.7-2.6,1.5-5.2,2.2-7.7c-1.3-0.4-1.3-0.4-2,0.6c-4.6,6.5-9.2,13.1-13.8,19.6
			C459.8,465.6,459.7,465.8,459.6,466z M493.8,474.1c-0.8-0.2-1.5-0.3-2.2-0.5c-2.6-0.5-5.2-1.1-7.8-1.6c-2.1-0.4-4.2-0.8-6.4-1.2
			c-2.7-0.5-5.4-1-8.2-1.5c-2.5-0.4-5-0.9-7.5-1.2c-4-0.6-8-1.4-12.1-1.2c-1.6,0.1-3.1,0.2-4.6,1c-1.2,0.7-1.3,1.8-0.4,2.8
			c0.4,0.3,0.8,0.6,1.2,0.9c1.7,1,3.6,1.5,5.5,1.8c2.6,0.4,5.2,0.7,7.9,1c1.7,0.2,3.4,0.3,5.2,0.4c2.9,0.2,5.9,0.4,8.8,0.5
			c2.3,0.1,4.6,0.3,6.9,0.4c2.9,0.1,5.7,0.2,8.6,0.3c1.6,0.1,3.2,0.1,4.8,0.1C493.7,475.3,493.8,474.7,493.8,474.1z M469.2,499.6
			c-0.3-7.7-0.5-15.4-0.8-23.2c-3.3-0.2-6.6-0.5-10-0.7c0.1,0.3,0.1,0.4,0.2,0.6c2.9,7.4,5.9,14.9,8.8,22.3
			C467.9,499.7,467.9,499.7,469.2,499.6z M494.6,467.6c-1.9-0.4-1.9-0.4-2.9,1.2c-0.6,0.9-1.1,1.9-1.7,2.9c1.4,0.3,2.7,0.6,4,0.8
			C494.2,470.8,494.4,469.2,494.6,467.6z M489.3,477.4c0.5,1.6,0.9,3.1,1.4,4.6c0,0.1,0.2,0.2,0.3,0.2c0.6,0.1,1.2,0.2,1.8,0.2
			c0.2-1.7,0.4-3.3,0.6-4.9C492.1,477.5,490.8,477.4,489.3,477.4z M463.9,457.1c-0.8,0-1.3-0.1-1.9,0c-0.2,0-0.5,0.5-0.5,0.7
			c0,0.3,0.2,0.7,0.4,0.8c0.2,0.1,0.7,0.1,0.9,0C463.2,458.2,463.5,457.7,463.9,457.1z M460.5,485.4c-0.2-0.6-0.4-1-0.6-1.5
			c-0.1-0.5-0.5-0.6-0.9-0.5c-0.3,0.1-0.7,0.4-0.7,0.7c0,0.3,0.2,0.8,0.5,0.9C459.3,485.2,459.8,485.2,460.5,485.4z M467.7,451.7
			c-0.6,0-1.1-0.2-1.5-0.1c-0.3,0.1-0.7,0.5-0.7,0.7c0,0.3,0.3,0.7,0.6,0.9c0.4,0.3,0.6-0.1,0.8-0.3
			C467.1,452.6,467.3,452.2,467.7,451.7z M462.9,491.4c-0.2-0.5-0.3-0.9-0.5-1.3c-0.1-0.3-0.2-0.8-0.7-0.5c-0.3,0.2-0.7,0.4-0.8,0.7
			c-0.1,0.2,0.3,0.7,0.5,0.9C461.9,491.3,462.4,491.3,462.9,491.4z"/>
		<path d="M478.6,502c-1.4-0.2-2.9-0.4-4.3-0.5c-0.5-0.1-1-0.2-0.9-0.9c0.1-0.6,0.6-0.8,1.1-0.7c2.9,0.3,5.9,0.7,8.8,1.1
			c0.5,0.1,1,0.3,0.9,0.9c-0.1,0.7-0.6,0.7-1.1,0.7C481.5,502.4,480.1,502.2,478.6,502z"/>
		<path d="M485.2,444.8c1.5,0.2,2.9,0.4,4.4,0.5c0.6,0.1,1,0.4,0.9,0.9c-0.1,0.6-0.6,0.7-1.1,0.6c-2.9-0.3-5.9-0.7-8.8-1.1
			c-0.5-0.1-1-0.3-0.9-0.9c0.1-0.6,0.5-0.7,1.1-0.6C482.3,444.5,483.7,444.7,485.2,444.8z"/>
		<path d="M477.5,497.2c-0.9-0.1-1.8-0.2-2.7-0.3c-0.5-0.1-1-0.3-0.9-0.9c0.1-0.6,0.6-0.7,1.1-0.7c1.8,0.2,3.5,0.4,5.3,0.6
			c0.5,0.1,1,0.3,0.9,0.9c-0.1,0.7-0.6,0.8-1.1,0.7C479.2,497.4,478.3,497.3,477.5,497.2z"/>
		<path d="M483,449.3c0.9,0.1,1.7,0.2,2.6,0.3c0.5,0.1,0.9,0.3,0.9,0.9c-0.1,0.6-0.5,0.7-1,0.6c-1.8-0.2-3.6-0.4-5.3-0.6
			c-0.5-0.1-1-0.3-0.9-0.9c0.1-0.6,0.5-0.7,1.1-0.7C481.2,449.1,482.1,449.2,483,449.3z"/>
		<path d="M476.2,490.7c0.6,0.1,1.3,0.1,1.9,0.2c0.5,0.1,0.8,0.3,0.7,0.8c-0.1,0.3-0.5,0.7-0.7,0.7c-1.4-0.1-2.8-0.3-4.2-0.5
			c-0.2,0-0.5-0.6-0.5-0.9c0-0.4,0.4-0.6,0.8-0.6C474.9,490.6,475.5,490.7,476.2,490.7z"/>
		<path d="M480.1,455.2c-0.6-0.1-1.3-0.2-1.9-0.2c-0.5-0.1-0.8-0.3-0.7-0.8c0-0.5,0.4-0.8,0.8-0.7c1.4,0.1,2.7,0.3,4.1,0.5
			c0.4,0.1,0.7,0.4,0.6,0.9c-0.1,0.5-0.4,0.7-0.9,0.6C481.4,455.4,480.8,455.3,480.1,455.2z"/>
		<path class="st12" d="M493.8,474.1c-0.1,0.6-0.1,1.2-0.2,1.9c-1.6,0-3.2-0.1-4.8-0.1c-2.9-0.1-5.7-0.2-8.6-0.3
			c-2.3-0.1-4.6-0.2-6.9-0.4c-2.9-0.2-5.9-0.3-8.8-0.5c-1.7-0.1-3.4-0.2-5.2-0.4c-2.6-0.3-5.3-0.6-7.9-1c-1.9-0.3-3.8-0.8-5.5-1.8
			c-0.4-0.2-0.9-0.5-1.2-0.9c-1-0.9-0.8-2.1,0.4-2.8c1.4-0.8,3-1,4.6-1c4.1-0.2,8.1,0.6,12.1,1.2c2.5,0.4,5,0.8,7.5,1.2
			c2.7,0.5,5.4,1,8.2,1.5c2.1,0.4,4.2,0.8,6.4,1.2c2.6,0.5,5.2,1.1,7.8,1.6C492.4,473.8,493.1,473.9,493.8,474.1z"/>
		<path class="st12" d="M469.2,499.6c-1.3,0-1.3,0-1.8-1.1c-2.9-7.4-5.9-14.9-8.8-22.3c-0.1-0.1-0.1-0.3-0.2-0.6
			c3.4,0.3,6.7,0.5,10,0.7C468.7,484.2,469,491.9,469.2,499.6z"/>
		<path class="st12" d="M494.6,467.6c-0.2,1.6-0.4,3.2-0.6,4.9c-1.3-0.3-2.6-0.5-4-0.8c0.6-1,1.1-1.9,1.7-2.9
			C492.7,467.2,492.7,467.2,494.6,467.6z"/>
		<path class="st12" d="M489.3,477.4c1.4,0,2.7,0.1,4.1,0.1c-0.2,1.7-0.4,3.3-0.6,4.9c-0.6-0.1-1.2-0.1-1.8-0.2
			c-0.1,0-0.3-0.1-0.3-0.2C490.3,480.5,489.8,479,489.3,477.4z"/>
		<path class="st12" d="M463.9,457.1c-0.4,0.6-0.7,1.1-1.1,1.5c-0.2,0.2-0.7,0.2-0.9,0c-0.2-0.1-0.5-0.5-0.4-0.8
			c0-0.3,0.3-0.7,0.5-0.7C462.6,457,463.2,457.1,463.9,457.1z"/>
		<path class="st12" d="M460.5,485.4c-0.7-0.1-1.2-0.2-1.7-0.4c-0.3-0.1-0.5-0.6-0.5-0.9c0-0.2,0.4-0.5,0.7-0.7
			c0.4-0.1,0.8,0,0.9,0.5C460.1,484.3,460.3,484.7,460.5,485.4z"/>
		<path class="st12" d="M467.7,451.7c-0.3,0.5-0.6,0.8-0.8,1.2c-0.2,0.3-0.4,0.7-0.8,0.3c-0.3-0.2-0.6-0.6-0.6-0.9
			c0-0.2,0.4-0.6,0.7-0.7C466.6,451.6,467,451.7,467.7,451.7z"/>
		<path class="st12" d="M462.9,491.4c-0.5-0.1-1,0-1.4-0.2c-0.3-0.1-0.6-0.6-0.5-0.9c0.1-0.3,0.5-0.6,0.8-0.7
			c0.5-0.2,0.5,0.2,0.7,0.5C462.6,490.5,462.7,490.9,462.9,491.4z"/>
	</g>
	<g>
		<path class="st12" d="M375.3,377.3c0.2,0.2,0.4,0.3,0.5,0.4c6.2,5,12.5,10,18.7,15c0.9,0.8,0.9,0.8,0.5,2
			c-2.5-0.9-5.1-1.8-7.6-2.6c-2.8-1-5.5-1.9-8.3-2.9c-0.5-0.2-1-0.1-1.1,0.4c-0.2,0.6,0.2,0.9,0.6,1c1.3,0.5,2.6,0.9,3.8,1.3
			c2.9,1,5.7,2,8.6,3c1.4,0.5,2.9,1,4.3,1.5c0.6,0.2,1-0.1,1.1-0.7c0.1-0.8,0.3-1.5,0.4-2.3c0.1-0.6,0-1-0.5-1.3
			c-1.4-1.1-2.7-2.3-4.1-3.2c-1.4-1-2.1-2-1.5-3.8c0.4-1.1-0.6-2.3-1.8-2.6c-1.3-0.3-2.2,0.3-2.9,1.4c-0.9-0.6-0.9-0.6-0.7-1.6
			c0.1-0.5,0.2-0.9,0.2-1.4c0.2-1.2-0.4-2.3-1.5-2.7c-1.1-0.4-2.3,0-2.9,1c-0.1,0.2-0.2,0.3-0.3,0.5c-1.6-1.3-3.2-2.6-4.8-3.8
			c-0.4-0.3-0.5-0.6-0.4-1c0.5-2.6,1-5.2,1-7.8c0-1.7-0.2-3.4-1-4.9c-1.1-2.1-3.5-2.6-5.1-0.9c-0.8,0.8-1.4,1.7-1.9,2.6
			c-1.4,2.7-2,5.7-2.5,8.7c-0.1,1-0.5,1.4-1.5,1.7c-1.7,0.5-3.4,1.1-5.2,1.7c0-0.2-0.1-0.3-0.1-0.4c-0.3-1.3-1.2-2.2-2.4-2.2
			c-1.2,0-2.1,0.8-2.4,2.1c-0.1,0.4-0.2,0.8-0.2,1.2c0,0.8-0.4,1.2-1.2,1.2c0-0.1-0.1-0.3-0.1-0.4c-0.3-1.2-1.3-1.9-2.5-1.9
			c-1.1,0-2,0.9-2.3,2.1c-0.1,0.4-0.2,0.9-0.2,1.3c0,0.5-0.3,0.8-0.8,0.9c-2.2,0.7-4.4,1.4-6.6,2.2c-0.3,0.1-0.7,0.4-0.8,0.7
			c-0.3,0.9-0.4,1.9-0.5,2.8c-0.1,0.5,0.1,0.8,0.6,0.8c0.3,0.1,0.6,0.1,0.9,0.1c1.1,0,2.2,0,3.3,0.1c3.3,0.1,6.7,0.2,10,0.3
			c3.3,0.1,6.6,0.2,9.9,0.2c-0.4,3.6-0.8,7.1-1.2,10.7c-0.2,2.1-0.5,4.2-0.6,6.4c0,0.5-0.2,0.6-0.6,0.7c-1.7,0.4-3.4,0.8-5.1,1.2
			c-0.5,0.1-0.8,0.4-0.9,1c-0.1,0.9-0.3,1.8-0.5,2.7c-0.1,0.8,0.1,1.1,0.9,1.3c5.3,1,10.5,1.9,15.8,2.9c0.8,0.1,1.1-0.1,1.3-0.9
			c0.2-0.8,0.3-1.6,0.5-2.4c0.2-0.7,0-1.1-0.6-1.5c-1.4-0.9-2.9-1.9-4.3-2.9c-0.2-0.1-0.4-0.4-0.3-0.6c0.3-1.2,0.6-2.3,0.9-3.5
			c0.8-3.1,1.6-6.1,2.4-9.2c0.4-1.4,0.7-2.8,1.1-4.2c0.7,0.2,1.4,0.5,2.1,0.7c0.7,0.2,1.2,0.1,1.3-0.4c0.2-0.6-0.3-0.9-0.8-1.1
			c-0.7-0.2-1.5-0.5-2.3-0.8C373.9,383.8,374.6,380.6,375.3,377.3z M338.2,394.1c-0.3,1.5-0.5,2.9-0.8,4.4c-0.1,0.6-0.1,1.1,0.6,1.2
			c0.6,0.1,0.9-0.3,1-0.9c0.5-2.9,1.1-5.8,1.6-8.7c0.1-0.5,0-1-0.6-1.1c-0.6-0.1-0.8,0.3-0.9,0.9
			C338.8,391.3,338.5,392.7,338.2,394.1z M394.9,404.1c0.3-1.4,0.5-2.9,0.8-4.3c0.1-0.5,0-1-0.6-1.1c-0.6-0.1-0.9,0.3-1,0.8
			c-0.5,2.9-1.1,5.8-1.6,8.7c-0.1,0.5,0,1,0.6,1.1c0.6,0.1,0.9-0.3,1-0.9C394.4,407,394.7,405.5,394.9,404.1z M343.1,393.3
			c-0.2,0.9-0.3,1.7-0.5,2.6c-0.1,0.6-0.1,1.1,0.6,1.2c0.6,0.1,0.8-0.3,0.9-0.9c0.3-1.7,0.6-3.5,0.9-5.2c0.1-0.5,0-1-0.6-1.1
			c-0.6-0.1-0.9,0.3-1,0.8C343.4,391.5,343.3,392.4,343.1,393.3z M390.6,401.7c0.2-0.9,0.3-1.8,0.5-2.7c0.1-0.5,0-1-0.6-1.1
			c-0.6-0.1-0.9,0.3-1,0.8c-0.3,1.8-0.6,3.5-1,5.3c-0.1,0.5,0,0.9,0.6,1.1c0.6,0.1,0.9-0.3,1-0.8
			C390.3,403.4,390.5,402.5,390.6,401.7z M349.7,392.4c0.1-0.7,0.2-1.3,0.4-2c0.1-0.4-0.1-0.8-0.5-0.9c-0.3,0-0.8,0.2-0.9,0.5
			c-0.3,1.4-0.6,2.8-0.8,4.2c0,0.2,0.4,0.7,0.6,0.8c0.5,0.2,0.8-0.2,0.9-0.6C349.4,393.7,349.5,393,349.7,392.4z M384.8,398.4
			c-0.1,0.6-0.2,1.3-0.3,1.9c-0.1,0.5,0.1,0.8,0.6,0.9c0.5,0.1,0.8-0.1,0.9-0.6c0.3-1.3,0.5-2.7,0.7-4.1c0.1-0.4-0.2-0.8-0.7-0.9
			c-0.5,0-0.8,0.2-0.9,0.7C385.1,397.2,385,397.8,384.8,398.4z"/>
		<path d="M375.3,377.3c-0.7,3.3-1.5,6.5-2.2,9.8c0.8,0.3,1.5,0.5,2.3,0.8c0.5,0.2,1,0.4,0.8,1.1c-0.1,0.5-0.7,0.6-1.3,0.4
			c-0.7-0.3-1.4-0.5-2.1-0.7c-0.4,1.4-0.7,2.8-1.1,4.2c-0.8,3.1-1.6,6.1-2.4,9.2c-0.3,1.1-0.6,2.3-0.9,3.5c0,0.2,0.2,0.5,0.3,0.6
			c1.4,1,2.8,2,4.3,2.9c0.6,0.4,0.8,0.8,0.6,1.5c-0.2,0.8-0.3,1.6-0.5,2.4c-0.2,0.8-0.5,1-1.3,0.9c-5.3-0.9-10.5-1.9-15.8-2.9
			c-0.8-0.1-1-0.4-0.9-1.3c0.1-0.9,0.3-1.8,0.5-2.7c0.1-0.6,0.4-0.8,0.9-1c1.7-0.4,3.4-0.8,5.1-1.2c0.4-0.1,0.6-0.3,0.6-0.7
			c0.2-2.1,0.4-4.2,0.6-6.4c0.4-3.5,0.8-7.1,1.2-10.7c-3.3-0.1-6.6-0.2-9.9-0.2c-3.3-0.1-6.7-0.2-10-0.3c-1.1,0-2.2,0-3.3-0.1
			c-0.3,0-0.6,0-0.9-0.1c-0.5-0.1-0.7-0.4-0.6-0.8c0.2-0.9,0.3-1.9,0.5-2.8c0.1-0.3,0.5-0.6,0.8-0.7c2.2-0.8,4.4-1.5,6.6-2.2
			c0.5-0.2,0.8-0.4,0.8-0.9c0-0.4,0.1-0.9,0.2-1.3c0.2-1.2,1.2-2.1,2.3-2.1c1.2,0,2.2,0.7,2.5,1.9c0,0.1,0.1,0.3,0.1,0.4
			c0.8,0,1.2-0.4,1.2-1.2c0-0.4,0.1-0.8,0.2-1.2c0.3-1.3,1.2-2.1,2.4-2.1c1.2,0,2.2,0.8,2.4,2.2c0,0.1,0.1,0.2,0.1,0.4
			c1.7-0.6,3.4-1.2,5.2-1.7c1-0.3,1.3-0.7,1.5-1.7c0.4-3,1-6,2.5-8.7c0.5-0.9,1.1-1.9,1.9-2.6c1.7-1.7,4.1-1.2,5.1,0.9
			c0.8,1.6,0.9,3.2,1,4.9c0.1,2.7-0.5,5.3-1,7.8c-0.1,0.5,0,0.7,0.4,1c1.6,1.2,3.1,2.5,4.8,3.8c0.1-0.2,0.2-0.3,0.3-0.5
			c0.6-1,1.9-1.4,2.9-1c1.1,0.4,1.7,1.5,1.5,2.7c-0.1,0.5-0.2,0.9-0.2,1.4c-0.2,1-0.2,1,0.7,1.6c0.7-1.1,1.6-1.7,2.9-1.4
			c1.2,0.3,2.1,1.5,1.8,2.6c-0.6,1.8,0.1,2.8,1.5,3.8c1.4,1,2.7,2.2,4.1,3.2c0.5,0.4,0.6,0.7,0.5,1.3c-0.2,0.8-0.3,1.5-0.4,2.3
			c-0.1,0.6-0.5,0.9-1.1,0.7c-1.4-0.5-2.9-1-4.3-1.5c-2.9-1-5.7-2-8.6-3c-1.3-0.4-2.6-0.9-3.8-1.3c-0.5-0.2-0.8-0.5-0.6-1
			c0.2-0.5,0.6-0.6,1.1-0.4c2.8,1,5.5,1.9,8.3,2.9c2.5,0.9,5.1,1.8,7.6,2.6c0.5-1.2,0.5-1.3-0.5-2c-6.2-5-12.5-10-18.7-15
			C375.7,377.6,375.6,377.5,375.3,377.3z M365.2,411c0.2-0.8,0.4-1.5,0.6-2.2c0.7-2.5,1.4-5.1,2.1-7.6c0.6-2.1,1.1-4.2,1.6-6.3
			c0.7-2.7,1.4-5.4,2-8c0.6-2.5,1.2-4.9,1.7-7.4c0.8-4,1.9-7.9,2-12c0-1.6,0-3.2-0.8-4.6c-0.6-1.2-1.8-1.4-2.7-0.5
			c-0.4,0.3-0.7,0.7-1,1.2c-1.1,1.6-1.7,3.5-2.1,5.4c-0.5,2.6-1,5.2-1.4,7.8c-0.3,1.7-0.5,3.4-0.7,5.1c-0.4,2.9-0.7,5.8-1.1,8.7
			c-0.3,2.3-0.5,4.6-0.8,6.9c-0.3,2.8-0.6,5.7-0.8,8.5c-0.2,1.6-0.3,3.2-0.4,4.8C364,410.8,364.6,410.9,365.2,411z M341.2,384.9
			c7.7,0.2,15.4,0.4,23.2,0.6c0.4-3.3,0.9-6.6,1.4-9.9c-0.3,0.1-0.4,0.1-0.6,0.1c-7.6,2.5-15.2,5-22.8,7.5
			C341.2,383.5,341.2,383.6,341.2,384.9z M371.6,412.2c0.5-1.9,0.5-1.9-1-3c-0.9-0.6-1.8-1.2-2.8-1.9c-0.4,1.4-0.7,2.6-1.1,4
			C368.5,411.6,370,411.9,371.6,412.2z M362.2,406.3c-1.6,0.4-3.1,0.8-4.7,1.1c-0.1,0-0.2,0.2-0.3,0.3c-0.1,0.6-0.2,1.2-0.3,1.8
			c1.7,0.3,3.2,0.6,4.9,0.9C361.9,409,362.1,407.7,362.2,406.3z M384,382.2c0.1-0.7,0.2-1.3,0.1-1.9c0-0.2-0.4-0.5-0.7-0.6
			c-0.3,0-0.7,0.2-0.8,0.4c-0.1,0.2-0.2,0.7,0,0.9C382.9,381.4,383.4,381.7,384,382.2z M356,377.1c0.6-0.2,1.1-0.4,1.5-0.5
			c0.5-0.1,0.6-0.5,0.5-0.9c-0.1-0.3-0.4-0.7-0.6-0.7c-0.3,0-0.8,0.2-0.9,0.4C356.2,375.8,356.2,376.4,356,377.1z M389.1,386.2
			c0.1-0.6,0.2-1.1,0.2-1.5c0-0.3-0.4-0.7-0.6-0.7c-0.3,0-0.7,0.3-1,0.6c-0.3,0.4,0,0.6,0.3,0.8
			C388.3,385.6,388.6,385.9,389.1,386.2z M349.8,379.1c0.5-0.1,0.9-0.3,1.3-0.4c0.3-0.1,0.8-0.2,0.6-0.6c-0.1-0.3-0.4-0.8-0.7-0.9
			c-0.2-0.1-0.7,0.2-0.9,0.5C349.9,378,349.9,378.5,349.8,379.1z"/>
		<path d="M338.2,394.1c0.3-1.4,0.5-2.9,0.8-4.3c0.1-0.5,0.3-1,0.9-0.9c0.6,0.1,0.7,0.6,0.6,1.1c-0.5,2.9-1,5.8-1.6,8.7
			c-0.1,0.5-0.3,1-1,0.9c-0.7-0.1-0.7-0.6-0.6-1.2C337.7,397,338,395.6,338.2,394.1z"/>
		<path d="M394.9,404.1c-0.3,1.5-0.5,2.9-0.8,4.4c-0.1,0.6-0.4,1-1,0.9c-0.6-0.1-0.6-0.6-0.6-1.1c0.5-2.9,1-5.8,1.6-8.7
			c0.1-0.5,0.3-1,1-0.8c0.6,0.1,0.7,0.6,0.6,1.1C395.4,401.2,395.2,402.7,394.9,404.1z"/>
		<path d="M343.1,393.3c0.2-0.9,0.3-1.8,0.5-2.6c0.1-0.5,0.4-0.9,1-0.8c0.6,0.1,0.7,0.6,0.6,1.1c-0.3,1.7-0.6,3.5-0.9,5.2
			c-0.1,0.5-0.3,1-0.9,0.9c-0.7-0.1-0.7-0.6-0.6-1.2C342.8,395,343,394.1,343.1,393.3z"/>
		<path d="M390.6,401.7c-0.2,0.9-0.3,1.7-0.5,2.6c-0.1,0.5-0.4,0.9-1,0.8c-0.6-0.1-0.7-0.6-0.6-1.1c0.3-1.8,0.6-3.5,1-5.3
			c0.1-0.5,0.3-1,1-0.8c0.6,0.1,0.7,0.6,0.6,1.1C391,399.9,390.8,400.8,390.6,401.7z"/>
		<path d="M349.7,392.4c-0.1,0.6-0.2,1.3-0.4,1.9c-0.1,0.5-0.4,0.8-0.9,0.6c-0.3-0.1-0.7-0.5-0.6-0.8c0.2-1.4,0.4-2.8,0.8-4.2
			c0.1-0.2,0.6-0.5,0.9-0.5c0.4,0,0.6,0.4,0.5,0.9C349.9,391,349.8,391.7,349.7,392.4z"/>
		<path d="M384.8,398.4c0.1-0.6,0.2-1.3,0.3-1.9c0.1-0.5,0.4-0.7,0.9-0.7c0.5,0,0.7,0.4,0.7,0.9c-0.2,1.4-0.5,2.7-0.7,4.1
			c-0.1,0.4-0.4,0.7-0.9,0.6c-0.5-0.1-0.6-0.5-0.6-0.9C384.6,399.7,384.7,399.1,384.8,398.4z"/>
		<path class="st12" d="M365.2,411c-0.6-0.1-1.2-0.2-1.8-0.3c0.1-1.6,0.3-3.2,0.4-4.8c0.3-2.8,0.5-5.7,0.8-8.5
			c0.2-2.3,0.5-4.6,0.8-6.9c0.3-2.9,0.7-5.8,1.1-8.7c0.2-1.7,0.4-3.4,0.7-5.1c0.4-2.6,0.9-5.2,1.4-7.8c0.4-1.9,1.1-3.7,2.1-5.4
			c0.3-0.4,0.6-0.8,1-1.2c1-0.9,2.1-0.7,2.7,0.5c0.7,1.5,0.8,3,0.8,4.6c-0.1,4.1-1.1,8.1-2,12c-0.5,2.5-1.1,4.9-1.7,7.4
			c-0.6,2.7-1.3,5.4-2,8c-0.5,2.1-1.1,4.2-1.6,6.3c-0.7,2.6-1.4,5.1-2.1,7.6C365.6,409.5,365.4,410.3,365.2,411z"/>
		<path class="st12" d="M341.2,384.9c0-1.3,0-1.3,1.2-1.7c7.6-2.5,15.2-5,22.8-7.5c0.2-0.1,0.3-0.1,0.6-0.1
			c-0.5,3.4-0.9,6.6-1.4,9.9C356.6,385.3,348.9,385.1,341.2,384.9z"/>
		<path class="st12" d="M371.6,412.2c-1.6-0.3-3.2-0.6-4.9-0.9c0.4-1.3,0.7-2.6,1.1-4c1,0.6,1.9,1.3,2.8,1.9
			C372.2,410.3,372.2,410.3,371.6,412.2z"/>
		<path class="st12" d="M362.2,406.3c-0.1,1.4-0.2,2.7-0.4,4.1c-1.7-0.3-3.2-0.6-4.9-0.9c0.1-0.6,0.2-1.2,0.3-1.8
			c0-0.1,0.2-0.3,0.3-0.3C359.1,407.1,360.6,406.7,362.2,406.3z"/>
		<path class="st12" d="M384,382.2c-0.6-0.5-1.1-0.8-1.4-1.2c-0.2-0.2-0.1-0.7,0-0.9c0.1-0.2,0.6-0.4,0.8-0.4c0.3,0,0.7,0.3,0.7,0.6
			C384.2,380.8,384,381.4,384,382.2z"/>
		<path class="st12" d="M356,377.1c0.2-0.7,0.2-1.2,0.5-1.7c0.1-0.2,0.6-0.4,0.9-0.4c0.2,0,0.5,0.4,0.6,0.7c0.1,0.4,0,0.8-0.5,0.9
			C357,376.7,356.6,376.9,356,377.1z"/>
		<path class="st12" d="M389.1,386.2c-0.5-0.4-0.8-0.6-1.1-0.9c-0.3-0.2-0.6-0.4-0.3-0.8c0.2-0.3,0.6-0.5,1-0.6
			c0.2,0,0.6,0.4,0.6,0.7C389.3,385.1,389.2,385.6,389.1,386.2z"/>
		<path class="st12" d="M349.8,379.1c0.1-0.5,0.1-1,0.3-1.4c0.1-0.3,0.7-0.6,0.9-0.5c0.3,0.1,0.6,0.5,0.7,0.9
			c0.2,0.5-0.3,0.5-0.6,0.6C350.7,378.8,350.3,378.9,349.8,379.1z"/>
	</g>
	<rect x="294.2" y="412.8" class="st1" width="125.8" height="39.2"/>
	<text transform="matrix(1 0 0 1 294.2484 422.7816)"><tspan x="0" y="0" class="st2 st4">PASO EL </tspan><tspan x="0" y="16.8" class="st2 st4">PLANCHÓN</tspan></text>
	<polygon class="st13" points="372.9,336 366.6,330.1 375.3,330.1 376.6,319.8 380.3,329.4 388.2,330.5 382,335.4 389.3,340.7 
		379.4,339.8 370.9,345.5 	"/>
	<circle class="st14" cx="121.5" cy="51.5" r="28"/>
	<line class="st14" x1="121.5" y1="23.5" x2="121.5" y2="51.5"/>
	<line class="st11" x1="694" y1="464.3" x2="799.5" y2="464.3"/>
	<line class="st15" x1="694.2" y1="489.7" x2="799.7" y2="489.7"/>
	<rect x="815.1" y="484.1" class="st1" width="134.9" height="21.8"/>
	<text transform="matrix(1 0 0 1 815.1387 494.0837)" class="st2 st4">Ruta de vuelo</text>
	<rect x="815" y="447" class="st1" width="134.9" height="34.8"/>
	<text transform="matrix(1 0 0 1 815.0349 456.9958)"><tspan x="0" y="0" class="st2 st4">Ruta realizada por la </tspan><tspan x="0" y="16.8" class="st2 st4">tripulación</tspan></text>
	<polygon class="st13" points="782.9,516.9 776.6,511 785.3,511 786.6,500.7 790.2,510.3 798.2,511.4 792,516.3 799.3,521.6 
		789.4,520.7 780.9,526.5 	"/>
	<rect x="815" y="508.1" class="st1" width="134.9" height="21.8"/>
	<text transform="matrix(1 0 0 1 815.0349 518.0837)" class="st2 st4">Zona colisión</text>
</g>
</svg>
